<svg version="1.1" id="Слой_1" xmlns="http://www.w3.org/2000/svg" xmlns:xlink="http://www.w3.org/1999/xlink" x="0px" y="0px" viewBox="0 0 78.4 73.6" style="enable-background:new 0 0 78.4 73.6;" xml:space="preserve" class="folder2-svg">
<style type="text/css">
    .folder2-svg {
        fill: #FFFFFF;
    }
</style>
                                <path class="folder2-svg" d="M77.9,44.7L64,70.9c-0.7,1.3-2.6,2.7-4.1,2.7H4.4c-1.2,0-2.3-0.5-3.1-1.3S0,70.3,0,69.2V26.1
	c0-2.4,2-4.4,4.4-4.4h4.1v3.8H5.8c-0.5,0-1,0.2-1.4,0.6S3.8,27,3.8,27.5v40.4c0,1.1,0.9,2,2,2h2.8l13.1-26.5
	c0.7-1.5,2.1-2.7,3.6-2.7h32.1V30c2.1,0.2,3.8,1.9,3.8,4.1v6.6h14.7C77.7,40.6,79.1,42.4,77.9,44.7L77.9,44.7z M11,56.5
	c-0.1-13.2,0-52.9,0-52.9c0-2,1.6-3.6,3.6-3.6h29c0.5,0,0.9,0.2,1.2,0.5l9.4,10.2c0.3,0.3,0.4,0.7,0.4,1.1v26.4h-3V14.1
	c0-0.4-0.3-0.8-0.8-0.8h-7.2c-0.8,0-1.5-0.7-1.5-1.5v-8c0-0.4-0.3-0.8-0.8-0.8H14.7c-0.3,0-0.6,0.3-0.6,0.6v49.5l-2.3,4.7
	C11.8,57.9,11.1,57.8,11,56.5L11,56.5z M45.3,10.3h4.5l-4.5-4.9V10.3z M46.9,16.5h-28c-1,0-1.9,0.8-1.9,1.9c0,1,0.8,1.9,1.9,1.9H47
	c1,0,1.9-0.8,1.9-1.9C48.8,17.3,48,16.5,46.9,16.5L46.9,16.5z M48.8,29.3c0-1-0.8-1.9-1.9-1.9h-28c-1,0-1.9,0.8-1.9,1.9
	c0,1,0.8,1.9,1.9,1.9H47C48,31.1,48.8,30.3,48.8,29.3L48.8,29.3z M17,40.3c0,1,0.8,1.9,1.9,1.9h0.7c1.2-3.3,4.1-3.7,4.1-3.7h-4.8
	C17.8,38.4,17,39.2,17,40.3L17,40.3z"></path>
</svg>