<svg version="1.1" id="Слой_1" xmlns="http://www.w3.org/2000/svg" x="0" y="0" viewBox="-380.5 250 55 62" xml:space="preserve"><style>.st0{fill:#03a9f4}</style><path class="st0" d="M-361.1 257.9c0 3.6-2.9 6.5-6.5 6.5s-6.5-2.9-6.5-6.5 2.9-6.5 6.5-6.5c3.6-.1 6.5 2.8 6.5 6.5zm21.6 0c0 3.6-2.9 6.5-6.5 6.5s-6.5-2.9-6.5-6.5 2.9-6.5 6.5-6.5c3.6-.1 6.5 2.8 6.5 6.5zm-2.4 45.9v4.7c0 1.9 1.5 3.5 3.5 3.5 1.9 0 3.5-1.6 3.5-3.5v-4.7h-7zm0 0"/><path class="st0" d="M-330.4 288.5c-.2-1.3-1.1-2.3-2.4-2.6v-.6c-.3-1.7-4.3-17.2-4.3-17.2-.6-2.6-2.4-3.9-4.6-4 0 0-.8 0-1.5.1s-1.3.5-1.3.5c-1.7.8-3.3 2.5-3.5 4.5 0 .1-.1.2-.1.3-.4 3.1-.9 5.1-1.8 5.9-1 .9-3.2 1.3-7.1 1.3-.9 0-1.7.5-2.2 1.2-2.4-.5-3.8-1.1-4.5-2-1-1.1-1.3-3.2-1.8-6.5 0-.1 0-.2-.1-.3-.2-2-1.8-3.7-3.5-4.5 0 0-.6-.3-1.3-.5-.7-.1-1.5-.1-1.5-.1-2.3.1-4.9 1.3-5.5 4l-3 14.1c-.4 1.9.4 3.6 1.8 4.7v21.8c0 1.9 1.5 3.5 3.5 3.5 1.9 0 3.5-1.5 3.5-3.5V288c1.4-.6 2.6-1.7 3-3.4l1.1-5.3c1.8 2.1 4.8 3.3 10.2 4.1h.3c1.1 0 2-.7 2.4-1.7 4.2-.2 6.8-1.1 8.5-2.9l1.2 5.8c.3 1.5 1.3 2.5 2.5 3.1h1.6c.4-1 1.1-1.8 2-2.3-.9-4.1-2-8.1-3.1-10.6-.7-1.3.3-1.7.8-.4.5 1.3 2.5 7.4 3.3 11.4-1.2.4-2.1 1.4-2.3 2.6h-4.9v14.4h19.5v-14.4h-4.9zm-8 0c.2-.6.7-1 1.3-1.1.5.5 1.1.8 1.9.8h.5c.5-.1 1-.4 1.4-.8.6.1 1.1.5 1.3 1.1h-6.4zm0 0"/></svg>