<svg version="1.1" id="Слой_1" xmlns="http://www.w3.org/2000/svg" x="0" y="0" viewBox="-367.5 266.5 29 29" xml:space="preserve"><style>.st0{fill:#1a237e}</style><path class="st0" d="M-342.2 278.4c.2.9.4 1.8.4 2.8 0 6.2-5 11.2-11.2 11.2-6.2 0-11.2-5-11.2-11.2 0-6.2 5-11.2 11.2-11.2 1.6 0 3.1.3 4.4.9l1.7-2.7c-1.9-.9-3.9-1.4-6.1-1.4-7.9 0-14.3 6.4-14.3 14.3s6.4 14.3 14.3 14.3 14.3-6.4 14.3-14.3c0-2.2-.5-4.3-1.4-6.1l-2.1 3.4zm0 0"/><path class="st0" d="M-340.6 266.8c-1-.7-2.4-.3-3.1.7l-8.9 14.3-3-4.3c-.7-1-2.1-1.3-3.1-.5-1 .7-1.3 2.1-.5 3.1l4.9 7c.4.6 1.1 1 1.8 1h.1c.8 0 1.4-.4 1.8-1.1l10.7-17.2c.7-.9.4-2.3-.7-3zm0 0"/></svg>