<svg version="1.1" id="Слой_1" xmlns="http://www.w3.org/2000/svg" x="0" y="0" viewBox="-389 258 72 46" xml:space="preserve"><style>.st0{fill:#03a9f4}</style><path class="st0" d="M-386.9 270.3l-.7 17.9s-1.5 4.2-1.5 5.6c0 1.8 1.2 7.1 2.1 7.1.9 0 2-5.2 2-7.1 0-1.5-1.7-5.7-1.7-5.7l-.2-17.8zM-352 290c-6.4 0-23.3-10.6-23.3-10.6V291c.1 1 .1 1 .1 1.4 0 4.1 3.9 11.6 23.2 11.6 19.6 0 22.3-6.7 22.3-10.8 0-.4 0-.4.1-2.5v-11.4c0 .1-16.2 10.6-22.4 10.7z"/><path class="st0" d="M-352.5 270.3c-1.1 0-2-.2-2.6-.5H-387s25.4 15.9 35 15.8c9.7-.1 34.6-15 35-16.5.8-2.8-26.1-11.2-35.4-11.1-8.7 0-33.3 10.6-33.3 10.6h30c.4-.6 1.7-1 3.2-1 1.8 0 3.3.6 3.3 1.4.1.7-1.4 1.3-3.3 1.3z"/></svg>