<svg version="1.1" id="Layer_1" xmlns="http://www.w3.org/2000/svg" x="0" y="0" viewBox="0 0 52 79" xml:space="preserve"><style>.st0{fill:#03a9f4}</style><path class="st0" d="M39.6 36.4c-.5.7-.7 1.6-.7 2.5 0 1.5.7 2.9 1.9 3.7 1.2.9 2.8 1.1 4.2.6 1.4-.5 2.4-1.6 2.9-3 .4-1.4.1-3-.8-4.2-.9-1.2-2.4-1.8-3.8-1.7-1.6.1-2.9.9-3.7 2.1zm-15.8-22c1.4 1.3 3.3 2 5.2 2 2.9 0 5.7-1.7 7-4.3 1.3-2.7 1-5.9-.8-8.3C33.4 1.4 30.4.3 27.5.9c-2.9.6-5.2 2.7-6 5.5-.8 2.9.1 6 2.3 8zm25.5 41.5c.1.7.7 1.3 1.4 1.2.7 0 1.3-.6 1.3-1.3v-1.2c0-.9-.2-1.9-.5-2.8-.2-.8-.5-1.5-.9-2.3-1-1.8-2.3-3.3-3.9-4.4-.4-.3-.8-.5-1.2-.7-1.2-.6-2.7-.6-4 0-.3.1-.6.3-.9.5-.4.2-.7.5-1.1.8-.8.6-1.5 1.4-2.1 2.2-1.1 1.4-1.9 3.1-2.3 4.8-.2 1-.3 2.1-.3 3.2 0 .7.6 1.3 1.3 1.3.7 0 1.3-.5 1.4-1.2.2-1.5.5-3 1.3-4.3v1.5l-3 12.2c-.1.5-.2 1.1.8 1.1h2.5l.5 10.2c0 .8.8 1.5 1.6 1.5s1.5-.7 1.6-1.5l.6-10.2h.2l.4 10.1c0 .8.8 1.5 1.6 1.5s1.5-.7 1.6-1.5l.6-10.2h2.5c.3 0 .5-.1.7-.3.2-.2.2-.5.2-.7L48 53v-1.4c.8 1.3 1.1 2.8 1.3 4.3zm-22.8 1.9c.3-.3.4-.7.3-1.1l-5.2-18.8v-3c.8 1.2 1.3 2.5 1.6 3.8.3 1 .4 2.1.5 3.1.1 1.2 1.2 2 2.3 2 1.2-.1 2.1-1 2.1-2.2v-2.1c0-1-.2-2-.4-2.9-.4-2-1.2-3.9-2.2-5.7-1-1.8-2.3-3.4-3.8-4.8-.7-.7-1.5-1.3-2.3-1.9-.6-.4-1.3-.9-1.9-1.2-.1 0-.1-.1-.2-.1-2-1-4.5-1-6.5 0-.7.3-1.4.7-2 1.1-.8.6-1.5 1.2-2.3 1.8-1.5 1.4-2.8 3-3.9 4.7-.5.9-1 1.8-1.4 2.8-.4.9-.7 1.9-.9 2.9-.2 1-.4 2-.4 3 .1.9.1 1.7.1 2.4 0 1.2 1 2.2 2.1 2.2 1.2.1 2.2-.8 2.3-2 .1-1.1.3-2.1.5-3.1.4-1.4.9-2.7 1.7-3.9v2.8l-5.2 19c-.1.4 0 .8.3 1.1.3.3.6.5 1 .5H7l.8 17.4c.1 1.4 1.2 2.5 2.6 2.5 1.4 0 2.5-1.1 2.6-2.5l1-17.5h.2l.8 17.7c.1 1.4 1.2 2.5 2.6 2.5 1.4 0 2.5-1.1 2.6-2.5l1-17.5h4.3c.4 0 .7-.2 1-.5z"/><path class="st0" d="M6.2 19.1c.7.1 1.7.1 2.7.2.6.6 1.2 1.1 2 1.5 1.1.6 2.3.9 3.6.9 2.1 0 4.1-.9 5.5-2.4 1.2-.1 2.4-.3 3.3-.5.5-.1.7-.7.4-1-.7-.8-1.6-1.2-1.7-3 .1-2-.6-4.1-2-5.6-2-2.2-5.2-3-8-2s-4.7 3.6-5 6.5v.1s0 2.4-1.4 4.2c-.4.4 0 1 .6 1.1zm28.7 46.8l1-4.5.1-2.8c-1.3-.3-2.2-1.5-2.3-2.9 0-1.3.1-2.5.4-3.7.3-1.2.7-2.4 1.3-3.5.4-.7.8-1.3 1.2-1.9.1-.5 0-1 0-1.5V32c.7 1.4 1.1 2.9 1.5 4.5.8-2 2.6-3 5-3.4-.4-1.6-1-3.5-1.7-4.9-.9-1.9-1.9-3.6-3.2-5.2-.8-1-1.8-2-2.8-2.9-.5-.4-1-.8-1.6-1.2-.5-.3-.9-.6-1.4-.8-5.1-2.4-9.2 1.5-9.3 1.6-1.1 1-2.2 1.9-3.3 2.9 2.9 2 5.3 4.8 7 7.9l.6 1.2.9-10h1.5L31 32.3l-1.8 3-1.1-1.8c.4 1.1.7 2.3.9 3.5.3 1.5.3 3 .3 4.6 0 2.1-1.8 3.8-3.9 3.8-.3 0-.6 0-.9-.1 0 0 2.9 10.5 3 11.2.2.9.3 2.8-1.8 2.8h-3.5l-.3 4.7.5 11.5c.1 1.4 1.3 2.6 2.7 2.6 1.4 0 2.6-1.2 2.7-2.6l1-19.3.8 19.3c.1 1.4 1.3 2.6 2.7 2.6 1.4 0 2.6-1.2 2.7-2.6l.4-8.4c-.9-.1-.5-1.2-.5-1.2zm-5-44.8h-1.5l-.8-2h3.2l-.9 2z"/></svg>