<svg version="1.1" id="Слой_1" xmlns="http://www.w3.org/2000/svg" x="0" y="0" viewBox="0 0 66 60" xml:space="preserve"><style>.st0{fill:#1b207b}</style><path class="st0" d="M36.4 6.2H14.7c-1 0-1.8.8-1.8 1.8s.8 1.8 1.8 1.8h21.7c1 0 1.8-.8 1.8-1.8 0-.9-.8-1.8-1.8-1.8zm0 7.4H14.7c-1 0-1.8.8-1.8 1.8s.8 1.8 1.8 1.8h21.7c1 0 1.8-.8 1.8-1.8 0-.9-.8-1.8-1.8-1.8zm-.2 29.2c-1.3 0-2.3 1-2.3 2.3 0 .8.4 1.5 1 1.9v3.4c0 .3.2.5.5.5H37c.3 0 .5-.2.5-.5V47c.6-.4 1-1.1 1-1.9.1-1.2-1-2.3-2.3-2.3zm0-13.6c-2.4 0-4.3 1.9-4.3 4.3v3.6h8.7v-3.6c0-2.3-2-4.3-4.4-4.3z"/><path class="st0" d="M64.9 21.4c-.7-.9-1.7-1.4-2.8-1.4h-3.6c0-2-1.6-3.6-3.6-3.6h-3.6v-3.6c0-2-1.6-3.6-3.6-3.6h-1.8V1.8c0-1-.8-1.8-1.8-1.8H7.5c-1 0-1.8.8-1.8 1.8v7.3H3.9c-2 0-3.6 1.6-3.6 3.6v43.6c0 2 1.6 3.6 3.6 3.6h50.9c1.7 0 3.2-1.2 3.6-2.8l7.3-32.7c.2-1.1-.1-2.2-.8-3zm-59.2 35H3.9V12.7h1.8v43.7zm9.2-33.6S7.5 56.1 7.5 56.3V1.8h36.4v14.5c-2 0-3.6 1.6-3.6 3.6H18.5c-1.8.1-3.2 1.3-3.6 2.9zm32 31.4c0 .5-.4.9-.9.9H26.5c-.5 0-.9-.4-.9-.9V38.1c0-.5.4-.9.9-.9H28v-3.6c0-4.6 3.7-8.3 8.3-8.3 4.6 0 8.3 3.7 8.3 8.3v3.6H46c.5 0 .9.4.9.9v16.1zm.6-37.8h-1.8v-3.6h1.8v3.6z"/></svg>