<svg version="1.1" id="Слой_1" xmlns="http://www.w3.org/2000/svg" x="0" y="0" viewBox="0 0 42 60" xml:space="preserve"><style>.st0{fill:#1b207b}</style><circle class="st0" cx="9.8" cy="23.9" r="3.6"/><path class="st0" d="M16.9 43.9h-.3v-.5c.4-.2.6-.5.8-.9 0-3.7-.1-11.3-.1-11.3-.4-1.9-1.6-3.1-3.4-3.4H6.6c-.3 0-.6 0-.8.1-1.8.3-3 1.5-3.4 3.4 0 .1-.1 7.6-.1 11.3.2.4.5.8 1 .9 1 .2 1.7-.3 1.8-1.3V33h.7v24.6c0 .3 0 .7.1 1 .1.7.7 1.1 1.3 1.3h1c1.1-.4 1.5-1.2 1.5-2.3V43.5h.7v14.1c0 1.2.3 2 1.5 2.4h1c1.1-.4 1.4-1.2 1.4-2.4V33h.5v9.2c.1.7.5 1.2 1.1 1.3v.4h-.3c-.6 0-1 .5-1 1.1v7.4c0 .6.5 1.1 1 1.1h1.6c.6 0 1-.5 1-1.1V45c-.3-.6-.7-1.1-1.3-1.1zM9.8 28.2h.9l-.5 1.3h-.7L9 28.2h.8zm0 8.6l-.9-.8.6-5.9h.6l.6 5.9-.9.8zm31.8-25.5V7.5h-2.1c-.1-.3-.2-.6-.3-.8l1.7-1.2-2.2-3L37 3.7c-.2-.2-.5-.4-.7-.5l.7-2L33.4 0l-.7 2h-.8l-.7-2-3.5 1.1.7 2c-.3.2-.5.3-.7.5L26 2.4l-2.2 3 1.7 1.2c-.1.3-.2.6-.3.8h-2.1v3.7h2.1c.1.3.2.6.3.8l-1.7 1.2 2.2 3 1.7-1.2c.2.2.5.4.7.5l-.7 2 3.5 1.1.7-2h.8l.7 2 3.5-1.1-.7-2c.3-.2.5-.3.7-.5l1.7 1.2 2.2-3-1.7-1.3c.1-.3.2-.6.3-.8h2.2zm-9.3.3c-1.2 0-2.2-1-2.2-2.2 0-1.2 1-2.2 2.2-2.2 1.2 0 2.2 1 2.2 2.2.1 1.2-.9 2.2-2.2 2.2zm-23 .4h.5s.1 0 .1-.1l.1-.1.1-.1 3-3.9c.3-.4.3-1.1-.2-1.4-.4-.3-1.1-.3-1.4.2l-2.3 3-1.1-1.3c-.4-.4-1-.4-1.4 0-.4.4-.4 1 0 1.4l1.9 1.9h.3s.1 0 .1.1h.3c-.1.3-.1.3 0 .3zm1.5-7.8c0-.5-.4-.9-.9-.9s-.9.4-.9.9c.1.4.5.8.9.8.5 0 .9-.4.9-.8zM3.7 9.4c0 .5.4.9.9.9s.9-.4.9-.9-.4-.9-.9-.9c-.6 0-.9.4-.9.9zm11.2.8c.5 0 .9-.4.9-.9s-.4-.9-.9-.9-.9.4-.9.9c.1.5.4.9.9.9z"/><path class="st0" d="M16 2.3C14.4.9 12.2 0 9.8 0 7.5 0 5.3.9 3.7 2.3 1.7 4 .4 6.6.4 9.4s1.3 5.4 3.3 7.1c1.7 1.4 3.8 2.3 6.2 2.3 2.4 0 4.5-.9 6.2-2.3 2-1.7 3.3-4.3 3.3-7.1C19.3 6.6 18 4 16 2.3zM9.8 16.5c-3.9 0-7.1-3.2-7.1-7.1 0-3.9 3.2-7.1 7.1-7.1 3.9 0 7.1 3.2 7.1 7.1 0 3.9-3.1 7.1-7.1 7.1z"/><path class="st0" d="M9.9 15.5c.5 0 .9-.4.9-.9s-.4-.9-.9-.9-.9.4-.9.9c.1.5.5.9.9.9z"/><circle class="st0" cx="32.1" cy="23.9" r="3.6"/><path class="st0" d="M39.2 43.9h-.3v-.5c.4-.2.6-.5.8-.9 0-3.7-.1-11.3-.1-11.3-.4-1.9-1.6-3.1-3.4-3.4h-7.3c-.3 0-.6 0-.8.1-1.8.3-3 1.5-3.4 3.4 0 .1-.1 7.6-.1 11.3.2.4.5.8 1 .9 1 .2 1.7-.3 1.8-1.3V33h.6v24.6c0 .3 0 .7.1 1 .1.7.7 1.1 1.3 1.3h1c1.1-.4 1.5-1.2 1.5-2.3V43.5h.7v14.1c0 1.2.3 2 1.5 2.4h1c1.1-.4 1.4-1.2 1.4-2.4V33h.5v9.2c.1.7.5 1.2 1.1 1.3v.4h-.3c-.6 0-1 .5-1 1.1v7.4c0 .6.5 1.1 1 1.1h1.6c.6 0 1-.5 1-1.1V45c-.2-.6-.7-1.1-1.2-1.1zm-7.1-15.7h.9l-.5 1.3h-.7l-.5-1.3h.8zm0 8.6l-.9-.8.6-5.9h.6L33 36l-.9.8z"/></svg>