<svg version="1.1" id="Слой_1" xmlns="http://www.w3.org/2000/svg" xmlns:xlink="http://www.w3.org/1999/xlink" x="0px" y="0px" viewBox="0 0 60 60" style="max-height: 60px;enable-background:new 0 0 60 60;" xml:space="preserve">

<style type="text/css">

    .st0 {
        fill: #1b207b;
    }

    .st1 {
        fill: #FFFFFF;
    }

</style>

                                    <g>

                                        <path class="st0" d="M30,51C18.4,51,9,41.6,9,30C9,18.4,18.4,9,30,9c11.6,0,21,9.4,21,21C51,41.6,41.6,51,30,51"></path>

                                        <path class="st1" d="M30,15c-0.6,0-1-0.4-1-1v-2c0-0.6,0.5-1,1-1s1,0.4,1,1v2C31,14.6,30.6,15,30,15"></path>

                                        <path class="st1" d="M30,49c-0.6,0-1-0.4-1-1v-2c0-0.6,0.5-1,1-1s1,0.4,1,1v2C31,48.6,30.6,49,30,49"></path>

                                        <path class="st1" d="M48,31h-2c-0.6,0-1-0.5-1-1c0-0.6,0.4-1,1-1h2c0.6,0,1,0.5,1,1C49,30.6,48.6,31,48,31"></path>

                                        <path class="st1" d="M14,31h-2c-0.6,0-1-0.5-1-1c0-0.6,0.4-1,1-1h2c0.6,0,1,0.5,1,1C15,30.6,14.6,31,14,31"></path>

                                        <path class="st1" d="M30,33c-2.2,0-4-1.8-4-4c0-2.2,1.8-4,4-4c2.2,0,4,1.8,4,4C34,31.2,32.2,33,30,33 M30,27c-1.1,0-2,0.9-2,2

		c0,1.1,0.9,2,2,2c1.1,0,2-0.9,2-2C32,27.9,31.1,27,30,27"></path>

                                        <path class="st1" d="M30,27c-0.6,0-1-0.5-1-1v-6c0-0.6,0.5-1,1-1s1,0.5,1,1v6C31,26.6,30.6,27,30,27"></path>

                                        <path class="st1" d="M19,41c-0.3,0-0.5-0.1-0.7-0.3c-0.4-0.4-0.4-1,0-1.4l8.9-8.9c0.4-0.4,1-0.4,1.4,0c0.4,0.4,0.4,1,0,1.4

		l-8.9,8.9C19.5,40.9,19.3,41,19,41"></path>

                                        <path class="st0" d="M1,31c-0.6,0-1-0.5-1-1C0,13.5,13.5,0,30,0c7.7,0,15.1,2.9,20.7,8.3c0.4,0.4,0.4,1,0,1.4c-0.4,0.4-1,0.4-1.4,0

		C44.1,4.8,37.2,2,30,2C14.6,2,2,14.6,2,30C2,30.6,1.6,31,1,31"></path>

                                        <path class="st0" d="M51,10h-9c-0.6,0-1-0.4-1-1c0-0.6,0.4-1,1-1h7V1c0-0.6,0.5-1,1-1s1,0.4,1,1V10z M51,10"></path>

                                        <path class="st0" d="M29.4,60c-0.5,0-1-0.5-1-1c0-0.6,0.5-1,1-1c0.6,0,1,0.5,1,1C30.4,59.6,30,60,29.4,60L29.4,60z M31.4,59

		c0-0.6,0.4-1,0.9-1.1c0.6,0,1,0.4,1.1,0.9c0.1,0.6-0.4,1-0.9,1.1v0h-0.1C31.9,59.9,31.5,59.5,31.4,59 M26.3,59.8L26.3,59.8

		c-0.5-0.1-0.9-0.6-0.9-1.1c0.1-0.6,0.6-0.9,1.1-0.9c0.5,0.1,0.9,0.6,0.9,1.1c-0.1,0.5-0.5,0.9-1,0.9H26.3z M34.4,58.7

		c-0.1-0.5,0.3-1.1,0.8-1.2c0.5-0.1,1.1,0.2,1.2,0.8c0.1,0.5-0.3,1.1-0.8,1.2c-0.1,0-0.1,0-0.2,0C35,59.5,34.5,59.2,34.4,58.7

		 M23.3,59.2c-0.5-0.1-0.9-0.7-0.8-1.2c0.1-0.5,0.7-0.9,1.2-0.8c0.5,0.1,0.9,0.7,0.7,1.2c-0.1,0.5-0.5,0.8-1,0.8

		C23.4,59.3,23.4,59.3,23.3,59.2 M37.4,58.1c-0.2-0.5,0.1-1.1,0.7-1.2c0.5-0.2,1.1,0.1,1.3,0.7c0.2,0.5-0.1,1.1-0.7,1.3

		c-0.1,0-0.2,0-0.3,0C37.9,58.8,37.5,58.5,37.4,58.1 M20.3,58.4c-0.5-0.2-0.8-0.7-0.6-1.3c0.2-0.5,0.8-0.8,1.3-0.6

		c0.5,0.2,0.8,0.7,0.6,1.3c-0.1,0.4-0.5,0.7-0.9,0.7C20.5,58.4,20.4,58.4,20.3,58.4 M40.2,57.2c-0.2-0.5,0-1.1,0.5-1.3

		c0.5-0.2,1.1,0,1.3,0.5c0.2,0.5,0,1.1-0.5,1.3c-0.1,0-0.3,0.1-0.4,0.1C40.8,57.8,40.4,57.5,40.2,57.2 M17.4,57.2

		c-0.5-0.2-0.7-0.8-0.5-1.3c0.2-0.5,0.8-0.7,1.3-0.5c0.5,0.2,0.7,0.8,0.5,1.3c-0.2,0.4-0.5,0.6-0.9,0.6

		C17.7,57.3,17.6,57.3,17.4,57.2 M43,56c-0.3-0.5-0.1-1.1,0.4-1.4c0.5-0.3,1.1-0.1,1.4,0.4c0.3,0.5,0.1,1.1-0.4,1.3

		c-0.2,0.1-0.3,0.1-0.5,0.1C43.5,56.5,43.2,56.3,43,56 M14.7,55.8c-0.5-0.3-0.6-0.9-0.3-1.4c0.3-0.5,0.9-0.6,1.4-0.4

		c0.5,0.3,0.6,0.9,0.3,1.4c-0.2,0.3-0.5,0.5-0.9,0.5C15,55.9,14.8,55.9,14.7,55.8 M45.6,54.5c-0.3-0.4-0.2-1.1,0.2-1.4

		c0.5-0.3,1.1-0.2,1.4,0.3c0.3,0.4,0.2,1.1-0.3,1.4c-0.2,0.1-0.4,0.2-0.6,0.2C46.1,54.9,45.8,54.8,45.6,54.5 M12.1,54.1

		c-0.5-0.3-0.5-1-0.2-1.4c0.3-0.4,1-0.5,1.4-0.2c0.4,0.3,0.5,1,0.2,1.4c-0.2,0.3-0.5,0.4-0.8,0.4C12.5,54.3,12.3,54.2,12.1,54.1

		 M48,52.7c-0.4-0.4-0.3-1.1,0.1-1.4c0.4-0.4,1.1-0.3,1.4,0.1c0.4,0.4,0.3,1-0.1,1.4c-0.2,0.2-0.4,0.2-0.7,0.2

		C48.5,53.1,48.2,53,48,52.7 M9.7,52.1c-0.4-0.4-0.4-1-0.1-1.4c0.4-0.4,1-0.4,1.4-0.1v0c0.4,0.4,0.4,1,0.1,1.4

		c-0.2,0.2-0.5,0.3-0.7,0.3C10.1,52.3,9.9,52.3,9.7,52.1 M50.3,50.8c-0.4-0.4-0.4-1,0-1.4c0.4-0.4,1-0.4,1.4,0c0.4,0.4,0.4,1,0,1.4

		C51.5,50.9,51.2,51,51,51C50.7,51,50.5,50.9,50.3,50.8 M7.5,49.9c-0.4-0.4-0.3-1,0.1-1.4C8,48.1,8.7,48.1,9,48.5

		C9.4,49,9.4,49.6,9,50c-0.2,0.2-0.4,0.2-0.7,0.2C8,50.2,7.7,50.1,7.5,49.9 M52.3,48.5c-0.4-0.3-0.5-1-0.2-1.4

		c0.3-0.4,1-0.5,1.4-0.2c0.4,0.3,0.5,1,0.2,1.4c-0.2,0.3-0.5,0.4-0.8,0.4C52.7,48.8,52.5,48.7,52.3,48.5 M5.6,47.4

		C5.3,47,5.4,46.4,5.8,46c0.4-0.3,1.1-0.2,1.4,0.2c0.3,0.4,0.2,1.1-0.2,1.4c-0.2,0.1-0.4,0.2-0.6,0.2C6.1,47.9,5.8,47.7,5.6,47.4

		 M54.1,46.1c-0.5-0.3-0.6-0.9-0.3-1.4c0.3-0.5,0.9-0.6,1.4-0.3c0.5,0.3,0.6,0.9,0.3,1.4c-0.2,0.3-0.5,0.5-0.9,0.5

		C54.5,46.3,54.3,46.2,54.1,46.1 M3.9,44.8c-0.3-0.5-0.1-1.1,0.4-1.4c0.5-0.3,1.1-0.1,1.4,0.4h0c0.3,0.5,0.1,1.1-0.4,1.4

		c-0.1,0.1-0.3,0.1-0.5,0.1C4.5,45.3,4.1,45.2,3.9,44.8 M55.7,43.6c-0.5-0.2-0.7-0.8-0.5-1.3c0.2-0.5,0.8-0.7,1.3-0.5

		c0.5,0.2,0.7,0.8,0.5,1.3c-0.2,0.4-0.5,0.6-0.9,0.6C55.9,43.7,55.8,43.6,55.7,43.6 M2.5,42.1c-0.2-0.5,0-1.1,0.5-1.3

		c0.5-0.2,1.1,0,1.3,0.5c0.2,0.5,0,1.1-0.5,1.3c-0.1,0.1-0.3,0.1-0.4,0.1C3.1,42.7,2.7,42.4,2.5,42.1 M56.9,40.9

		c-0.5-0.2-0.8-0.8-0.6-1.3c0.2-0.5,0.8-0.8,1.3-0.6c0.5,0.2,0.8,0.8,0.6,1.3c-0.1,0.4-0.5,0.7-0.9,0.7C57.2,40.9,57,40.9,56.9,40.9

		 M1.4,39.2c-0.2-0.5,0.1-1.1,0.6-1.3c0.5-0.2,1.1,0.1,1.3,0.7c0.2,0.5-0.1,1.1-0.6,1.3c-0.1,0-0.2,0-0.3,0

		C2,39.9,1.6,39.6,1.4,39.2 M57.9,38c-0.5-0.1-0.9-0.7-0.7-1.2c0.1-0.5,0.7-0.9,1.2-0.7c0.5,0.1,0.9,0.7,0.7,1.2

		c-0.1,0.4-0.5,0.8-1,0.8C58.1,38.1,58,38,57.9,38 M0.6,36.2c-0.1-0.5,0.2-1.1,0.8-1.2c0.5-0.1,1.1,0.2,1.2,0.8

		c0.1,0.5-0.2,1.1-0.8,1.2c-0.1,0-0.1,0-0.2,0C1.2,37,0.7,36.6,0.6,36.2 M58.6,35.1C58,35,57.7,34.5,57.7,34

		c0.1-0.5,0.6-0.9,1.1-0.9c0.6,0.1,0.9,0.6,0.9,1.1c-0.1,0.5-0.5,0.9-1,0.9C58.7,35.1,58.6,35.1,58.6,35.1 M0.2,33.1

		c-0.1-0.5,0.3-1,0.9-1.1c0.6-0.1,1,0.3,1.1,0.9c0.1,0.5-0.3,1-0.9,1.1H1.2C0.7,34,0.2,33.6,0.2,33.1 M59,32.1c-0.6,0-1-0.5-1-1

		c0-0.5,0.5-1,1-1c0.6,0,1,0.5,1,1C60,31.7,59.5,32.1,59,32.1L59,32.1z M0,30c0-0.6,0.4-1,1-1c0.5,0,1,0.5,1,1c0,0.6-0.5,1-1,1

		C0.5,31,0,30.6,0,30"></path>

                                    </g>

</svg>