<svg xmlns="http://www.w3.org/2000/svg" viewBox="-382 255.5 58 51"><path d="M-340 255.9c-5.3 0-10 2.6-13 6.6-2.9-4-7.6-6.6-13-6.6-8.9 0-16 5-16 16 0 3.8 1.8 7.8 4.5 11.7C-369 294.5-353 306-353 306s15.5-11.4 24-22c3-4.1 5-8.3 5-12.1 0-8.8-7.2-16-16-16zm-4.4 36c-3.7 2.5-6.4 1.8-7.9-.3-.1-.1-.1-.2-.2-.4 0 .2-.1 1.8-.1 3.7h-1.8c0-1.9.1-3.5.1-3.7-1.9 1.7-4.8 1.6-7.7-1.7-2.8-3.2-2.9-10.3-2.9-10.3s7.1 1 9.8 4.2c.7.8 1.2 1.6 1.6 2.3.1-.5.2-.9.3-1.3.2-1 .4-1.8.5-2.6-2-.2-3.8-1.8-4.5-5.4-.8-4.1 2.8-10.3 2.8-10.3s5.6 4.5 6.3 8.6c.8 4-.6 6.3-2.8 7-.1 1.1-.3 2.1-.6 3.3-.1.3-.2.7-.3 1.1.5-.6 1.2-1.2 2.1-1.8 3.5-2.3 10.6-1.5 10.6-1.5s-1.8 6.7-5.3 9.1z" fill="#03a9f4"/></svg>