<svg version="1.1" id="Layer_1" xmlns="http://www.w3.org/2000/svg" x="0" y="0" viewBox="0 0 72 64" xml:space="preserve"><style>.st0{fill:#03a9f4}</style><path class="st0" d="M67 19h5l-5-6.3-9.5-12c-.4-.4-.9-.7-1.4-.7H15.9c-.5 0-1 .2-1.3.6L5 12.7 0 19h5v38.1H1.4c-.8 0-1.4.6-1.4 1.4v4c0 .8.6 1.5 1.4 1.5h69.1c.8 0 1.4-.6 1.4-1.4v-4c0-.8-.6-1.4-1.4-1.4H67V19zM26.9 47.2v9.6h-15V19.5h48.2v37.3h-15v-9.6H26.9zm0 0"/><path class="st0" d="M15.4 24.3h6.9v6.9h-6.9zm11.5 0h6.9v6.9h-6.9zm11.4 0h6.9v6.9h-6.9zm11.4 0h6.9v6.9h-6.9zM15.4 35.7h6.9v6.9h-6.9zm11.5 0h6.9v6.9h-6.9zm11.4 0h6.9v6.9h-6.9zm11.4 0h6.9v6.9h-6.9zM15.4 47.2h6.9v6.9h-6.9zm34.3 0h6.9v6.9h-6.9z"/></svg>