<svg version="1.1" id="Слой_1" xmlns="http://www.w3.org/2000/svg" x="0" y="0" viewBox="-380.5 243.5 55 75" xml:space="preserve"><style>.st0{fill:#1a237e}</style><path class="st0" d="M-358.2 260.6c-1.6.7-3.1 1.7-4.3 3h2.9c.4-1.1.9-2.1 1.4-3zm-2.1 5.6h-4.2c-.9 1.5-1.4 3.2-1.6 5.1h5.2c.1-1.8.3-3.5.6-5.1zm16.8-2.6c-1.2-1.3-2.6-2.3-4.3-3 .5.9 1 1.9 1.3 3h3zm-19 18.1c1.2 1.3 2.6 2.3 4.3 3-.5-.9-1-1.9-1.3-3h-3zm14.7-10.4c-.1-1.8-.3-3.6-.7-5.1h-9.1c-.4 1.5-.6 3.2-.7 5.1h10.5zm-5.2-11.8c-1.3 0-2.7 1.5-3.7 4.1h7.4c-1-2.5-2.4-4.1-3.7-4.1zm-7.9 14.4h-5.2c.2 1.8.7 3.5 1.6 5.1h4.2c-.3-1.5-.5-3.2-.6-5.1zm15.8-2.6h5.2c-.2-1.8-.7-3.5-1.6-5.1h-4.2c.3 1.6.5 3.3.6 5.1zm-7.9 14.4c1.3 0 2.7-1.5 3.7-4.1h-7.4c1 2.6 2.4 4.1 3.7 4.1zm7.3-6.7h4.2c.9-1.5 1.4-3.2 1.6-5.1h-5.2c-.1 1.9-.3 3.6-.6 5.1zm-21 18.1h-2.3v4.3h2.3c1.8 0 2.7-.7 2.7-2.2 0-1.4-.9-2.1-2.7-2.1zm7.3 4.7h3.1l-1.6-3.4-1.5 3.4zm0 0"/><path class="st0" d="M-331.4 243.5h-43.1c-3.3 0-5.9 2.7-5.9 5.9v63.2c0 3.3 2.7 5.9 5.9 5.9h43.1c3.3 0 5.9-2.7 5.9-5.9v-63.2c0-3.3-2.7-5.9-5.9-5.9zm-21.6 13.4c8.7 0 15.7 7.1 15.7 15.7 0 8.7-7.1 15.7-15.7 15.7-8.7 0-15.7-7.1-15.7-15.7s7-15.7 15.7-15.7zm-15.9 46.6v2.5c0 .5-.4 1-1 1h-.1c-.5 0-1-.4-1-1v-10c0-.5.4-1 1-1h3.3c2.9 0 4.8 1.6 4.8 4.2s-1.8 4.3-4.8 4.3h-2.2zm16.6 3c-.2.3-.5.5-.8.5h-.1c-.4 0-.7-.2-.9-.6l-1.2-2.5h-5l-1.1 2.5c-.2.4-.5.6-.9.6h-.1c-.3 0-.6-.2-.8-.5-.2-.3-.2-.6-.1-.9l4.6-10c.2-.4.5-.6.9-.6h.2c.4 0 .7.2.9.6l4.6 10c0 .3 0 .6-.2.9zm4.4.4c-1.5 0-3-.6-4-1.6-.2-.2-.3-.4-.3-.7 0-.3.1-.5.3-.7l.1-.1c.4-.4 1-.4 1.4 0 .6.6 1.6 1 2.6 1s2.3-.3 2.3-1.3c0-.9-.5-1.2-2.3-1.8-1.6-.5-3.7-1.1-3.7-3.7 0-1.9 1.7-3.1 4.1-3.1 1.1 0 2.2.3 3.1.8.2.1.4.4.4.6.1.3 0 .5-.1.8v.1c-.3.5-.9.6-1.3.3-.5-.3-1.3-.5-2-.5-.9 0-2.1.3-2.1 1.1 0 .9.5 1.2 2.3 1.7 1.6.5 3.8 1.1 3.8 3.8-.3 2-2 3.3-4.6 3.3zm8.6 0c-1.5 0-3-.6-4-1.6-.2-.2-.3-.4-.3-.7 0-.3.1-.5.3-.7l.1-.1c.4-.4 1-.4 1.4 0 .6.6 1.6 1 2.6 1s2.3-.3 2.3-1.3c0-.9-.5-1.2-2.3-1.8-1.6-.5-3.7-1.1-3.7-3.7 0-1.9 1.7-3.1 4.1-3.1 1.1 0 2.2.3 3.1.8.2.1.4.4.5.6.1.3 0 .5-.1.8v.1c-.3.5-.9.6-1.3.3-.5-.3-1.3-.5-2-.5-.9 0-2.1.3-2.1 1.1 0 .9.5 1.2 2.3 1.7 1.6.5 3.8 1.1 3.8 3.8-.4 2-2.1 3.3-4.7 3.3zm0 0"/><path class="st0" d="M-358.2 273.9c.1 1.8.3 3.6.7 5.1h9.1c.4-1.5.6-3.2.7-5.1h-10.5zm10.4 10.7c1.6-.7 3.1-1.7 4.3-3h-2.9c-.4 1.2-.9 2.2-1.4 3zm0 0"/></svg>