<svg version="1.1" id="Слой_1" xmlns="http://www.w3.org/2000/svg" x="0" y="0" viewBox="-386 246 66 70" xml:space="preserve"><style>.st0{fill:#03a9f4}</style><path class="st0" d="M-368.9 259.2c-1.2.5-2.4 1.3-3.3 2.3h2.2c.3-.9.7-1.7 1.1-2.3zm-1.6 4.3h-3.2c-.7 1.2-1.1 2.5-1.2 3.9h4c0-1.4.2-2.7.4-3.9zm12.9-2c-.9-1-2-1.8-3.3-2.3.4.7.7 1.4 1 2.3h2.3zm-14.6 13.8c.9 1 2 1.8 3.3 2.3-.4-.7-.7-1.4-1-2.3h-2.3zm11.3-7.9c-.1-1.4-.3-2.7-.5-3.9h-7a16 16 0 00-.5 3.9h8zm-4-9.1c-1 0-2.1 1.2-2.8 3.1h5.7c-.8-1.9-1.9-3.1-2.9-3.1zm-6.1 11.1h-4c.1 1.4.6 2.7 1.2 3.9h3.2c-.1-1.2-.3-2.5-.4-3.9zm12.1-2h4c-.1-1.4-.6-2.7-1.2-3.9h-3.2c.2 1.2.4 2.5.4 3.9zm-6 11c1 0 2.1-1.2 2.8-3.1h-5.7c.8 2 1.9 3.1 2.9 3.1zm5.6-5.1h3.2c.7-1.2 1.1-2.5 1.2-3.9h-4c0 1.4-.2 2.7-.4 3.9zm-16.1 13.8h-1.7v3.3h1.7c1.4 0 2.1-.6 2.1-1.7 0-1-.7-1.6-2.1-1.6zm5.6 3.6h2.4l-1.2-2.6-1.2 2.6zm0 0"/><path class="st0" d="M-348.4 246h-33.1c-2.5 0-4.5 2-4.5 4.5V299c0 2.5 2 4.5 4.5 4.5h33.1c2.5 0 4.5-2 4.5-4.5v-48.5c.1-2.5-2-4.5-4.5-4.5zm-16.5 10.3c6.7 0 12.1 5.4 12.1 12.1 0 6.7-5.4 12.1-12.1 12.1-6.7 0-12.1-5.4-12.1-12.1 0-6.7 5.4-12.1 12.1-12.1zm-12.2 35.7v1.9c0 .4-.3.8-.8.8h-.1c-.4 0-.8-.3-.8-.8v-7.6c0-.4.3-.8.8-.8h2.6c2.3 0 3.7 1.2 3.7 3.2s-1.4 3.3-3.7 3.3h-1.7zm12.7 2.4c-.1.2-.4.4-.6.4h-.1c-.3 0-.6-.2-.7-.4l-.9-1.9h-3.8l-.9 1.9c-.1.3-.4.4-.7.4h-.1c-.3 0-.5-.1-.6-.3-.1-.2-.2-.5-.1-.7l3.5-7.6c.1-.3.4-.4.7-.4h.1c.3 0 .6.2.7.4l3.5 7.6c.2.1.2.3 0 .6zm3.4.3c-1.1 0-2.3-.5-3.1-1.2-.1-.1-.2-.3-.2-.5s.1-.4.2-.5c.3-.3.8-.3 1.1 0 .5.5 1.3.8 2 .8.8 0 1.7-.3 1.7-1s-.4-.9-1.8-1.4c-1.2-.4-2.9-.9-2.9-2.8 0-1.4 1.3-2.4 3.2-2.4.8 0 1.7.2 2.4.6.2.1.3.3.3.5s0 .4-.1.6v.1c-.2.4-.7.5-1 .2-.4-.2-1-.4-1.5-.4-.7 0-1.6.2-1.6.8 0 .7.4.9 1.8 1.3 1.2.4 2.9.9 2.9 2.9-.1 1.4-1.4 2.4-3.4 2.4zm6.6 0c-1.1 0-2.3-.5-3.1-1.2-.1-.1-.2-.3-.2-.5s.1-.4.2-.5c.3-.3.8-.3 1.1 0 .5.5 1.3.8 2 .8.8 0 1.7-.3 1.7-1s-.4-.9-1.8-1.4c-1.2-.4-2.9-.9-2.9-2.8 0-1.4 1.3-2.4 3.2-2.4.8 0 1.7.2 2.4.6.2.1.3.3.3.5s0 .4-.1.6v.1c-.2.3-.7.5-1 .2-.4-.2-1-.4-1.5-.4-.7 0-1.6.2-1.6.8 0 .7.4.9 1.8 1.3 1.2.4 2.9.9 2.9 2.9-.1 1.4-1.4 2.4-3.4 2.4zm0 0"/><path class="st0" d="M-368.9 269.4c.1 1.4.3 2.7.5 3.9h7c.3-1.2.5-2.5.5-3.9h-8zm8 8.2c1.2-.5 2.4-1.3 3.3-2.3h-2.2c-.4.9-.7 1.6-1.1 2.3zm24.5-4.8c-.6-1.2-1.5-2.2-2.5-3.1.2.8.3 1.6.4 2.5l2.1.6zm-2.8 5.3l3.8 1.1c.2-1.4.2-2.8-.1-4.1l-3.1-.9c-.1 1.3-.3 2.6-.6 3.9zm-2.1 5.6l3.1.9c1-.9 1.7-2.1 2.2-3.4l-3.8-1.1c-.4 1.3-.9 2.5-1.5 3.6zm-.7 20.4c.8.2 1.7.2 1.9-.5.2-.7-.1-1-1.3-1.8-.2-.1-.3-.2-.5-.3v.2c0 .8-.3 1.6-.7 2.2.2 0 .4.1.6.2z"/><path class="st0" d="M-323.3 260.4l-18.6-5.3v10.7c6.3 1.9 10 8.5 8.2 14.9-1.2 4.1-4.4 7.1-8.2 8.3v7.9c.6-.2 1.4-.2 2.2 0 .8.2 1.6.7 2.1 1.2.1.1.2.3.2.5s-.1.4-.3.5c-.3.3-.8.3-1.1 0-.3-.3-.9-.6-1.4-.8-.7-.2-1.6-.2-1.7.4 0 .2-.1.3 0 .4.1.4.5.7 1.4 1.3 1.1.7 2.6 1.6 2 3.6-.4 1.5-2 2.1-3.9 1.6-.5-.1-.9-.4-1.4-.7-.6.3-1.2.5-1.9.5H-373c.5.6 1.2 1.1 2.1 1.3l31.8 9.1c2.4.7 4.9-.7 5.6-3.1l13.3-46.6c.7-2.5-.7-5-3.1-5.7z"/><path class="st0" d="M-341.9 268.2v3l1.2.3c-.2-1.5-.6-2.7-1.2-3.3zm0 17.4v1.2c.6-.2 1.1-.5 1.7-.8l-1.7-.4zm0-12.3v4l.7.2c.3-1.4.5-2.7.5-3.9l-1.2-.3z"/></svg>