<svg version="1.1" id="Слой_1" xmlns="http://www.w3.org/2000/svg" x="0" y="0" viewBox="-391.5 254 77 54" xml:space="preserve"><style>.st0{fill:#03a9f4}</style><path class="st0" d="M-377.8 297.7c.6.7 1.5 1 2.4.8l15.8-4.1-1.3 10.3c-.1.8.2 1.6.8 2.1.4.4 1 .6 1.5.6.2 0 .5 0 .7-.1l8.3-2.6c.5-.2 1-.5 1.3-.9l10.4-15.5 8.7-3.6c4.9-2 8.5-4.1 11-6.2 4.3-3.7 4.1-7.1 3.2-9.3-.8-2-2.8-4.3-7.7-4.3-3.4 0-7.8 1.1-13.2 3.4l-34.8 14.4-10-7.1c-.7-.5-1.5-.6-2.3-.3l-6.9 2.9c-.7.3-1.2.9-1.4 1.6-.2.7 0 1.5.5 2.1l13 15.8zm44.5-27.9c4.8-2 8.7-3 11.4-3 2.7 0 3.1 1 3.3 1.4.2.4-8.2 3.7-11.8 5.3"/><path class="st0" d="M-335.8 266.8l.4-9.6c0-.8-.4-1.6-1-2-.5-.3-1-.5-1.6-.4-.2 0-.5.1-.7.2l-8.1 3.3c-.5.2-.9.6-1.2 1.1l-8.5 15.6 20.7-8.2z"/></svg>