<svg version="1.1" id="Layer_1" xmlns="http://www.w3.org/2000/svg" x="0" y="0" viewBox="0 0 57 62" xml:space="preserve"><style>.st0{fill:#03a9f4}</style><path class="st0" d="M56.6 41.5c-.4-1.2-1.4-2.1-2.6-2.6-1.2-.4-2.5-.3-3.6.4l-10.5 6.3-1.4.6h-7.6c-.1 0-.1-.1-.2-.1 0 0-.1-.1 0-.2l.1-.1 5.8-2.1c2.2-.7 3.5-3 2.9-5.2-.3-1.1-1.1-2.1-2.1-2.6s-2.2-.6-3.3-.3l-5.9 2-15.6 1c-1 .1-2 .5-2.7 1.2l-8.5 8.5c-1.7 1.7-1.9 4.3-.4 6 .4.4 2 2 4.5 4.3 1.4 1.4 2.8 2.6 3.4 3.3.2.2.5.3.7.3.2 0 .5-.1.6-.2l4.7-3.9c1-.8 2.2-1.3 3.5-1.3h15.9c.6 0 1.1-.1 1.7-.3l7.5-3.2h.1l.4-.2h.1l10.7-6.4c1.6-1.2 2.4-3.3 1.8-5.2zm-20.1-9.4c8.9 0 16.1-7.2 16.1-16.1-.1-8.8-7.3-16-16.1-16S20.4 7.2 20.4 16.1c0 8.8 7.2 16 16.1 16zm0-30.1c7.7 0 14 6.3 14 14s-6.3 14-14 14-14-6.3-14-14c-.1-7.7 6.2-14 14-14zm0 0"/><path class="st0" d="M31 19.8c0-.6-.5-1-1-1-.6 0-1 .5-1 1 0 1.9 1.7 3.6 4.3 4.3v.5c0 .6.5 1 1 1 .6 0 1-.5 1-1v-.1c.4 0 .8.1 1.1.1.4 0 .8 0 1.1-.1v.1c0 .6.5 1 1 1 .6 0 1-.5 1-1v-.5c2.6-.7 4.3-2.4 4.3-4.3s-1.7-3.6-4.3-4.3v-5.4c1.4.5 2.3 1.4 2.3 2.2 0 .6.5 1 1 1 .6 0 1-.5 1-1 0-1.9-1.7-3.6-4.3-4.3v-.5c0-.6-.5-1-1-1-.6 0-1 .5-1 1v.1c-.4 0-.8-.1-1.1-.1-.4 0-.8 0-1.1.1v-.1c0-.6-.5-1-1-1-.6 0-1 .5-1 1V8c-2.6.7-4.3 2.4-4.3 4.3s1.7 3.6 4.3 4.3V22c-1.4-.5-2.3-1.4-2.3-2.2zm8.6-2.2c1.4.5 2.3 1.4 2.3 2.2 0 .8-.9 1.7-2.3 2.2v-4.4zm-4.3-8c.4 0 .7-.1 1.1-.1s.8 0 1.1.1v5.5c-.4 0-.8-.1-1.1-.1-.4 0-.8 0-1.1-.1V9.6zm0 7.4c.4 0 .8.1 1.1.1.4 0 .8 0 1.1.1v5.4c-.4 0-.7.1-1.1.1s-.8 0-1.1-.1V17zM31 12.3c0-.8.9-1.7 2.3-2.2v4.4c-1.4-.5-2.3-1.4-2.3-2.2zm0 0"/></svg>