<svg xmlns="http://www.w3.org/2000/svg" viewBox="0 0 69 75"><path d="M65.3 18.3c-.6-6-1.6-10.6-3.1-12.5-6.4-7.5-50.9-8.1-56 0-1.2 2-2.1 6.6-2.7 12.5C1.6 18.5.2 20.1.2 22v7.3c0 1.6 1 3 2.5 3.5-.2 7.4-.4 19.5.5 29.6 0 4.6 3.1 3.9 3.1 3.9h2.9v5c0 2 2 3.6 4.6 3.6 2.5 0 4.6-1.6 4.6-3.6v-5h33.9v5c0 2 2 3.6 4.6 3.6 2.5 0 4.6-1.6 4.6-3.6v-5h.9s3.7.5 3.9-1.7c0-6 .4-19.2.1-31.7 1.5-.5 2.7-1.9 2.7-3.6V22c-.3-1.9-1.8-3.5-3.8-3.7zM19.2 6.9h30.1c1.1 0 2.1.9 2.1 2.1v1c0 1.1-.9 2.1-2.1 2.1H19.2c-1.1 0-2.1-.9-2.1-2.1V9c0-1.1.9-2.1 2.1-2.1zm-1.6 49.5c-2.7 0-4.9-2.2-4.9-4.9s2.2-4.9 4.9-4.9 4.9 2.2 4.9 4.9-2.2 4.9-4.9 4.9zm33.5 0c-2.7 0-4.9-2.2-4.9-4.9s2.2-4.9 4.9-4.9 4.9 2.2 4.9 4.9-2.2 4.9-4.9 4.9zm2.1-19.2h-38c-2.3 0-4.1-1.8-4.1-4.1v-14c0-2.3 1.8-4.1 4.1-4.1h38c2.3 0 4.1 1.8 4.1 4.1V33c0 2.3-1.8 4.2-4.1 4.2zm4.1 2" fill="#1a237e"/></svg>