<svg version="1.1" id="Слой_1" xmlns="http://www.w3.org/2000/svg" x="0" y="0" viewBox="0 0 60 85" xml:space="preserve"><style>.st0{fill:#1a237e}</style><path class="st0" d="M10.1 48.6h26.4v3.1H10.1zm0-7.9h32.5v3.1H10.1zm0 16.9h16.3v3.1H10.1zm0-25.1h26.4v3.1H10.1zm0-15.4h19.5v10.6H10.1zm39 46.3c0-4.8-3.9-8.6-8.6-8.6-4.7 0-8.6 3.9-8.6 8.6 0 4.7 3.9 8.6 8.6 8.6 4.7 0 8.6-3.8 8.6-8.6zm3.9 3l-12.6 9.9 7 8.8 3.3-8.7 9.3-1.2-7-8.8zm-34.7 4l8.7 3.3 1.2 9.3 8.8-7-9.9-12.6-8.8 7zm0 0"/><path class="st0" d="M19.8 73.7h-16v-70h32.9L36.6 17h14.2v47.6l2.6-1.8 1.2 1.5v-51l.1-.1L40.5-.1v-.1H0v77.7h24.5l-.3-2.1-4.4-1.7zM40.5 5.1l8.6 8h-8.7l.1-8zm0 0"/></svg>