<svg version="1.1" id="Режим_изоляции" xmlns="http://www.w3.org/2000/svg" x="0" y="0" viewBox="0 0 36.4 45" xml:space="preserve"><style>.st0{fill:#3f51b5}</style><path class="st0" d="M18.2 26.9c5.9 0 10.6-4.8 10.6-10.6 0-5.9-4.8-10.6-10.6-10.6-5.9 0-10.6 4.8-10.6 10.6s4.7 10.6 10.6 10.6zm-8.7-9.7h2.9c.2 3.4 1.4 5.7 2.6 7.2-2.9-1.1-5.1-3.9-5.5-7.2zm9.6 6.8v-6.8H22c-.2 2.3-.9 4.3-2.1 5.9-.2.4-.5.7-.8.9zm0-8.7V8.5c.3.3.5.6.8.9 1.3 1.6 2 3.6 2.1 5.9h-2.9zm-1.8-6.8v6.8h-2.9c.2-2.3.9-4.3 2.1-5.9.2-.4.5-.7.8-.9zm0 8.7V24c-1.2-1.2-2.7-3.3-2.9-6.8h2.9zm4 7.2c1.2-1.5 2.4-3.9 2.6-7.2h2.9c-.3 3.3-2.5 6.1-5.5 7.2zm5.6-9.1H24c-.2-3.4-1.4-5.7-2.6-7.2 2.9 1.1 5.1 3.9 5.5 7.2zM15.1 8.1c-1.2 1.5-2.4 3.9-2.6 7.2h-3c.4-3.3 2.6-6.1 5.6-7.2z"/><path d="M32.3 0H0v45h32.3c2.3 0 4.1-1.9 4.1-4.1V4.1c0-2.2-1.9-4.1-4.1-4.1zm2.2 40.9c0 1.2-1 2.3-2.3 2.3H1.9V1.9h30.4c1.2 0 2.3 1 2.3 2.3l-.1 36.7z" fill="#03a9f4"/><path class="st0" d="M10.3 32.4H7.5v6.5H9v-2.1h1.3c1.2 0 2.1-1.1 2.1-2.2 0-1-.9-2.2-2.1-2.2zm0 3.1H9v-1.8h1.2c.3 0 .7.3.7.9 0 .6-.3.9-.6.9zm4.3-3.1l-2.5 6.5h1.6l.5-1.5h2l.5 1.5h1.6l-2.5-6.5h-1.2zm-.2 4l.8-2.4.7 2.4h-1.5zm7.1-1.3c-.9-.2-1.4-.4-1.4-.8s.3-.5.8-.5c.8 0 1.6.5 1.7.6l.6-1.2c-.6-.3-1.4-.7-2.3-.7-1.3 0-2.4.7-2.4 2.1 0 1 .6 1.4 1.8 1.8.9.3 1.6.4 1.6.9 0 .3-.3.5-.8.5-1 0-2-.6-2.1-.8l-.7 1.3c.8.5 1.8.8 2.8.8 1.3 0 2.4-.5 2.4-2 .1-1.3-.7-1.7-2-2zm5.7 0c-.9-.2-1.4-.4-1.4-.8s.3-.5.8-.5c.8 0 1.6.5 1.7.6l.6-1.2c-.6-.3-1.4-.7-2.3-.7-1.3 0-2.4.7-2.4 2.1 0 1 .6 1.4 1.8 1.8.9.3 1.6.4 1.6.9 0 .3-.3.5-.8.5-1 0-2-.6-2.1-.8l-.7 1.2c.8.5 1.8.8 2.8.8 1.3 0 2.4-.5 2.4-2 0-1.2-.8-1.6-2-1.9z"/></svg>