<svg version="1.1" id="Слой_1" xmlns="http://www.w3.org/2000/svg" x="0" y="0" viewBox="0 0 42 44" xml:space="preserve"><style>.st0{fill:#03a9f4}.st1{fill:#3f51b5}</style><path class="st0" d="M8.2 17.6h18.1c.4 0 .7-.3.7-.7 0-.4-.3-.7-.7-.7H8.2c-.4 0-.7.3-.7.7 0 .3.3.7.7.7zm0 0"/><path class="st0" d="M26.3 17.8H8.2c-.5 0-1-.4-1-1 0-.5.4-.9 1-.9h18.1c.5 0 1 .4 1 .9s-.5 1-1 1zM8.2 16.3c-.3 0-.5.2-.5.5s.2.5.5.5h18.1c.3 0 .5-.2.5-.5s-.2-.5-.5-.5H8.2zm0-4.5h7.2c.4 0 .7-.3.7-.7 0-.4-.3-.7-.7-.7H8.2c-.4 0-.7.3-.7.7 0 .3.3.7.7.7zm0 0"/><path class="st0" d="M15.5 12H8.2c-.5 0-1-.4-1-1 0-.5.4-1 1-1h7.2c.5 0 1 .4 1 1s-.4 1-.9 1zm-7.3-1.5c-.3 0-.5.2-.5.5s.2.5.5.5h7.2c.3 0 .5-.2.5-.5s-.2-.5-.5-.5H8.2zm0 12.8h18.1c.4 0 .7-.3.7-.7 0-.4-.3-.7-.7-.7H8.2c-.4 0-.7.3-.7.7 0 .4.3.7.7.7zm0 0"/><path class="st0" d="M26.3 23.6H8.2c-.5 0-1-.4-1-1 0-.5.4-1 1-1h18.1c.5 0 1 .4 1 1 0 .5-.5 1-1 1zM8.2 22.1c-.3 0-.5.2-.5.5s.2.5.5.5h18.1c.3 0 .5-.2.5-.5s-.2-.5-.5-.5H8.2zm12.3 5.6H8.2c-.4 0-.7.3-.7.7 0 .4.3.7.7.7h12.3c.4 0 .7-.3.7-.7 0-.4-.3-.7-.7-.7zm0 0"/><path class="st0" d="M20.5 29.4H8.2c-.5 0-1-.4-1-1 0-.5.4-1 1-1h12.3c.5 0 1 .4 1 1 0 .5-.5 1-1 1zM8.2 27.9c-.3 0-.5.2-.5.5s.2.5.5.5h12.3c.3 0 .5-.2.5-.5s-.2-.5-.5-.5H8.2zm10.2 5.6H8.2c-.4 0-.7.3-.7.7 0 .4.3.7.7.7h10.1c.4 0 .7-.3.7-.7.1-.4-.3-.7-.6-.7zm0 0"/><path class="st0" d="M18.4 35.2H8.2c-.5 0-1-.4-1-.9s.4-1 1-1h10.1c.5 0 1 .4 1 1 0 .4-.4.9-.9.9zM8.2 33.7c-.3 0-.5.2-.5.5s.2.5.5.5h10.1c.3 0 .5-.2.5-.5s-.2-.5-.5-.5H8.2z"/><path class="st0" d="M34.3 25.1V10.7L23.7.2H.2v43.5h31.9c5.2 0 9.4-4.2 9.4-9.4 0-4.5-3.1-8.3-7.2-9.2zM24.1 2.6l7.7 7.7h-7.7V2.6zm3 39.6H1.7V1.6h21v10.1h10.1v13.1h-.7c-5.2 0-9.4 4.2-9.4 9.4v1.1c0 .3.1.5.1.8v.1c.1.2.1.5.2.7 0 .1 0 .1.1.2.1.3.2.5.3.7 0 0 0 .1.1.1l.3.6s0 .1.1.1c.1.2.3.5.4.7l.1.1c.1.2.3.4.4.6l.1.1c.2.2.3.4.5.6l.1.1c.2.2.4.3.5.5h.1c.2.2.4.3.6.5.1 0 .1.1.2.1.1.2.1.2.2.3zm5 0c-4.4 0-8-3.6-8-8s3.6-8 8-8h.7c.2 0 .4 0 .7.1l.3.1c3.6.8 6.3 4 6.3 7.8 0 4.4-3.6 8-8 8zm0 0"/><path class="st0" d="M32.1 43.9H0v-44h23.8l10.7 10.7v14.2c4.3 1.1 7.2 4.9 7.2 9.3.1 5.4-4.3 9.8-9.6 9.8zM.5 43.4h31.7c5.1 0 9.2-4.1 9.2-9.2 0-4.3-2.9-7.9-7.1-8.9h-.2V10.8L23.6.4H.5v43zm31.6-1c-4.5 0-8.2-3.7-8.2-8.2 0-4.5 3.7-8.2 8.2-8.2h.7c.2 0 .4.1.7.1l.3.1c3.8.8 6.5 4.2 6.5 8 0 4.5-3.7 8.2-8.2 8.2zm0-15.9c-4.3 0-7.7 3.5-7.7 7.7 0 4.3 3.5 7.7 7.7 7.7s7.7-3.5 7.7-7.7c0-3.6-2.6-6.8-6.1-7.6l-.3-.1c-.2 0-.4-.1-.6-.1-.2.1-.5.1-.7.1zm-4.2 15.9H1.5v-41H23v10.1h10.1V25h-.9c-5.1 0-9.2 4.1-9.2 9.2v1c0 .3.1.5.1.8l-.2.1h.2c.1.2.1.5.2.7l.1.2c.1.2.2.5.3.7v.1c.1.2.2.5.3.6 0 .1 0 .1.1.1.1.2.3.4.4.7l.1.1c.1.2.3.4.4.5l.1.1c.2.2.3.4.5.6l.1.1c.2.2.4.3.5.5l-.1.2.1-.2c.2.2.4.3.6.5l1.1.8zm-26-.4h24.5c-.1-.1-.3-.2-.4-.3h-.1c-.2-.2-.4-.3-.6-.5l-.1-.1c-.2-.2-.4-.4-.5-.6l-.1-.1c-.2-.2-.3-.4-.5-.6l-.1-.1c-.2-.2-.3-.5-.4-.7 0-.1-.1-.1-.1-.2l-.3-.6c0-.1 0-.1-.1-.1-.1-.2-.2-.5-.3-.8l.1-.3c-.1-.2-.1-.5-.2-.7v-.1c-.1-.3-.1-.6-.1-.8v-1.1c0-5.3 4.3-9.6 9.6-9.6h.5V12H22.5V1.8H1.9V42zm30.5-31.5H24V2.1l8.4 8.4zm-8-.4h6.9l-6.9-6.9v6.9z"/><path class="st1" d="M32.1 24.6c-5.3 0-9.6 4.3-9.6 9.6s4.3 9.6 9.6 9.6 9.6-4.3 9.6-9.6-4.2-9.6-9.6-9.6zm0 17.6c-4.4 0-8-3.6-8-8s3.6-8 8-8 8 3.6 8 8-3.6 8-8 8z"/><path class="st1" d="M32.1 44.1c-5.4 0-9.8-4.4-9.8-9.8s4.4-9.8 9.8-9.8 9.8 4.4 9.8 9.8-4.3 9.8-9.8 9.8zm0-19.3c-5.2 0-9.4 4.2-9.4 9.4s4.2 9.4 9.4 9.4 9.4-4.2 9.4-9.4-4.2-9.4-9.4-9.4zm0 17.6c-4.5 0-8.2-3.7-8.2-8.2 0-4.5 3.7-8.2 8.2-8.2s8.2 3.7 8.2 8.2c0 4.5-3.6 8.2-8.2 8.2zm0-15.9c-4.3 0-7.7 3.5-7.7 7.7s3.5 7.7 7.7 7.7 7.7-3.5 7.7-7.7-3.4-7.7-7.7-7.7z"/><path class="st1" d="M29.3 31.2h.2c.4 0 .8-.3.9-.6.1-.4 0-.8-.3-1.1-.3-.3-.8-.3-1.1-.1-.4.2-.6.6-.5 1 .1.4.4.7.8.8zm6.1 0h.2c.4 0 .8-.3.9-.6.1-.4 0-.8-.3-1.1-.3-.3-.8-.3-1.1-.1-.4.2-.6.6-.5 1 .1.4.4.7.8.8zm0 0"/><path class="st1" d="M37.5 33.4v-.8c0-.2-.1-.4-.2-.6v-.1c0-.1-.1-.1-.1-.2-.1-.1-.2-.3-.3-.4l-.1-.1-.1-.1s-.1-.1-.2-.1c-.2.2-.4.3-.6.3-.2.1-.5 0-.7-.1-.2-.1-.3-.2-.4-.3 0 0-.1 0-.1.1l-.1.1-.1.1c-.1.1-.2.2-.3.4 0 .1-.1.1-.1.2v.1c-.1.2-.1.4-.1.6v1c-.1 0-.2-.1-.3-.1-.1-.1-.2-.1-.3-.2-.1-.1-.2-.2-.3-.2-.1-.1-.2-.1-.3-.1-.1 0-.2 0-.3.1-.1.1-.2.1-.3.2-.1.1-.2.1-.3.2-.1 0-.1.1-.2.1h-.2v-1c0-.2-.1-.4-.1-.6v-.1c0-.1-.1-.1-.1-.2-.1-.1-.2-.3-.3-.4l-.1-.1-.1-.1-.1-.1c-.2.2-.4.3-.6.3-.2.1-.5 0-.7-.1-.2-.1-.3-.2-.4-.3-.1 0-.1.1-.2.1l-.1.1-.1.1c-.1.1-.2.2-.3.4 0 .1-.1.1-.1.2v.1c-.1.2-.1.4-.2.6v.8c-.2.1-.3.3-.3.5v3.8c0 .1.1.2.2.2s.2-.1.2-.2v-3.8c0-.1 0-.1.1-.2.1.1.2.1.3.1v.2s0 .1.1.1h.2c0 .2.1.4.2.5l.1 3.2c0 .2.2.3.3.3.2 0 .3-.1.3-.3l.1-2.4.1 2.4c0 .2.2.3.3.3.2 0 .3-.1.3-.3l.2-3.2c.2-.2.2-.5.2-.8l-.2-1.6s0 .1.1.1c.1.1.1.3.1.4 0 .1 0 .2.1.3v.5c0 .1.1.3.2.3.2.3.7.2 1 .1l-.1 1.2c0 .1 0 .3.1.4l.1 2.3c0 .1.1.2.2.2s.2-.1.2-.2l.1-1.8.1 1.8c0 .1.1.2.2.2s.2-.1.2-.2l.1-2.3c.1-.1.1-.3.1-.4l-.1-1.2c.3.1.8.2 1-.1.1 0 .2-.1.2-.3v-.5c0-.1 0-.2.1-.3 0-.1.1-.3.1-.4 0 0 0-.1.1-.1l-.2 1.6v.1c-.2.5-.3 1-.4 1.5 0 .2-.1.5-.1.7v.5l.1.1h.6l.1 1.1c0 .2.2.3.3.3.2 0 .3-.1.3-.3v-1.1h.1v1.1c0 .2.2.3.3.3.2 0 .3-.1.3-.3v-1.1h.6c.1 0 .1 0 .1-.1v-.6c0-.3-.1-.6-.1-.8-.1-.4-.2-.7-.3-1.1 0 .1.1.1.2.1 0 0 .1 0 .1-.1v-.1c.1 0 .2 0 .3-.1.1 0 .2.1.2.2v3.8c0 .1.1.2.2.2s.2-.1.2-.2v-3.8c.1-.2-.1-.5-.3-.5zm-9.1.3l-.1-.1v-.5c0-.1 0-.2.1-.3 0-.1.1-.3.1-.4 0 0 0-.1.1-.1l-.2 1.4zm8.5.2v-.2l-.2-1.6.1.1c.1.1.1.3.1.4 0 .1 0 .2.1.3v.6c-.1.2-.1.3-.1.4zm0 0"/><path class="st1" d="M32.6 32.9c.2 0 .5-.1.6-.3.1-.2.1-.5 0-.7-.1-.2-.3-.3-.6-.3-.2 0-.5.1-.6.3-.1.2-.1.5 0 .7.1.2.4.3.6.3zm0 0"/></svg>