<svg version="1.1" id="Слой_1" xmlns="http://www.w3.org/2000/svg" x="0" y="0" viewBox="45 -51 168 168" xml:space="preserve"><style>.st1{fill:#fff}</style><circle cx="129" cy="33" r="84" fill="#1a237e"/><path class="st1" d="M162.3 25l-4.8-15.2-5.1 15.2zm-16.9 21.2l-1.6 4.7 4.1-2.9zM179 25.6h-7.1l-16.7 12 1.2 4.2.9-.5 13.3 9.7-5-15.7zm-78.3 15.7l.7.4 1.3-4.1-16.7-12h-7l13.4 9.7-5 15.7zm4.9-16.3l-5.1-15.2L95.7 25zm4.5 22.9l4.1 3-1.6-4.8z"/><path class="st1" d="M119.1 24.7l-5.7-16.8-5.3 16.8zm-5.4 19.7l.8.6 1.7-5.2-18.3-13.6-9.5.1L104 37.5l-5.8 18.3zm10.9 7.8l4.7 3.4-1.8-5.5z"/><path class="st1" d="M149.8 24.9l-5.4-17-5.6 16.9zm19.7 1.4l-8.6-.1-19 13.7 1.5 5.1.8-.6 15.4 11.4-5.8-18.3zm-39.1 23.8l-1.9 5.5 4.7-3.4z"/><path class="st1" d="M136 26.2l22.8.2-18.5 13.4 6.9 21.7L128.8 48l-18.6 13.3 7.1-21.7L99 26l22.9.2 7.2-21.7z"/></svg>