<svg version="1.1" id="Слой_1" xmlns="http://www.w3.org/2000/svg" x="0" y="0" viewBox="45 -51 168 168" xml:space="preserve"><style>.st1{fill:#fff}</style><circle cx="129" cy="33" r="84" fill="#1a207b"/><circle class="st1" cx="93.3" cy="34.1" r="3.3"/><path class="st1" d="M96.4 47.7l1 7.9c.1 1-.6 1.8-1.6 1.8-.8 0-1.4-.6-1.6-1.3l-1-5.1-1 5.1c-.2.7-.8 1.3-1.6 1.3-1 0-1.7-.8-1.6-1.8l1-7.9-.5-4.5-3.8 2.7c-.5.3-1.1.2-1.5-.2-.3-.5-.3-1 .1-1.4l5.1-4.8c.3-.3.7-.5 1.2-.5h6.9l3.8-2.7c.5-.3 1.1-.2 1.5.2.3.5.3 1-.1 1.4l-5.6 5.3-.7 4.5z"/><path class="st1" d="M99.2 34.5l6.5-13.2c.2-.6.9-.9 1.4-.9h13.7c.6 0 1.2.3 1.4.9l6.4 12.6c.5 1 .2 2.2-.7 2.9-1.1.8-2.7.4-3.3-.8l-4.3-8.4-.9 8.6 2.1 17.9c.2 1.8-1.1 3.2-2.9 3.2-1.4 0-2.7-1.1-2.9-2.6L114 40.4l-1.7 14.4c-.2 1.4-1.4 2.6-2.9 2.6-1.8 0-3-1.5-2.9-3.2l2-17.9-1-8.6-4.5 8.8c-.6 1-1.8 1.5-3 1-.9-.5-1.3-1.8-.8-3z"/><circle class="st1" cx="113.9" cy="12.3" r="6"/><circle class="st1" cx="139.9" cy="13.9" r="5.8"/><path class="st1" d="M124.5 34.6l9.3-12.2c.3-.4.8-.6 1.4-.6h9.4c.6 0 1 .2 1.4.6l9.4 12.1c.6.9.5 2.2-.3 2.8-.8.6-1.8.6-2.6-.2l-6.6-7.6 3 12.9h-4.2l.4 13c0 1.1-.9 2-1.9 2-1 0-1.8-.8-2-1.8L140 43.8l-1.1 11.9c-.1 1-1 1.8-1.9 1.8-1.1 0-2-.9-2-2l.4-12.9h-4.2l2.9-13-6.6 7.7c-.7.6-1.8.7-2.6.2-1-.8-1.1-2-.4-2.9z"/><path class="st1" d="M152.9 35.3l7.2 3.7h5.7c.2 0 .5.1.7.2l7 3.4c.6.5.6 1.4.2 1.9-.4.5-1 .5-1.7.3l-5.4-1.9 2.2 8h-2.3l-.1 5.2c0 .6-.6 1.2-1.2 1.2s-1.2-.5-1.3-1.1l-.6-5.2-.5 5.3c-.1.6-.6 1.1-1.3 1.1-.6 0-1.2-.6-1.3-1.2L160 51h-2.3l2.1-8-6.9-5.4v-2.3z"/><circle class="st1" cx="162.7" cy="34.5" r="3.3"/></svg>