<svg version="1.1" id="Слой_1" xmlns="http://www.w3.org/2000/svg" x="0" y="0" viewBox="0 0 84 71" xml:space="preserve"><style>.st0{fill:#1a237e}</style><path class="st0" d="M50.3 13.9c-.2-.4-.7-.7-1.1-.5l-13.3 4.7c-1.2-.9-3-.8-4 .4l-4.2 4.9-3.7-3.2c0 .3.1.5.1.8v7l2.1 1.8c1.2 1.1 3.1.9 4.1-.3l5-5.9 4-2.4L49.9 15c.4-.2.5-.7.4-1.1zm-34.5 1.2h-2.5c-1.9 0-3.6.9-4.7 2.3L1 24.6c-1.2 1.1-1.3 2.9-.2 4.1l6.3 7c1.1 1.2 2.9 1.3 4.1.2 1.2-1.1 1.3-2.9.2-4.1L7 27l6.1-5.5-3.6 4.9 3.5 3.9c1.9 2.2 1.7 5.5-.4 7.4-1.5 1.3-3.5 1.6-5.2 1v27.9c0 1.9 1.6 3.5 3.5 3.5s3.5-1.6 3.5-3.5V45.7h2.3v20.8c0 1-.3 1.9-.7 2.8.6.5 1.3.7 2.1.7 1.9 0 3.5-1.6 3.5-3.5V20.9c.1-3.1-2.5-5.8-5.8-5.8zM11.5 13c.9.5 2 .8 3.1.8s2.2-.3 3.1-.8c2.2-1.1 3.7-3.4 3.7-6 0-3.8-3.1-6.8-6.8-6.8-3.8 0-6.8 3-6.8 6.8 0 2.7 1.5 4.9 3.7 6zm0 0"/><path class="st0" d="M78.6.7H30.7c-1.2 0-2.3 1-2.3 2.3v15.9L30 17c.8-.9 1.8-1.5 2.9-1.7v-10h43.4v29.4H33v-4.9L32 31c-.9 1-2.1 1.7-3.5 1.8V37c0 1.2 1 2.3 2.3 2.3h48c1.2 0 2.3-1 2.3-2.3V3C80.9 1.7 79.9.7 78.6.7zm-1.3 56.7H62.2c-3.7 0-6.6 3-6.7 6.6v6.6H58c0-3.8 3.1-6.9 6.9-6.9h10c3.8 0 6.9 3.1 6.9 6.9H84V64c-.1-3.6-3.1-6.6-6.7-6.6zM64 49.7c0 3.2 2.6 5.8 5.8 5.8 3.2 0 5.8-2.6 5.8-5.8 0-3.2-2.6-5.8-5.8-5.8-3.2 0-5.8 2.6-5.8 5.8z"/><path class="st0" d="M74.9 65.7h-10c-2.7 0-4.9 2.2-4.9 4.9h19.8c0-2.7-2.2-4.9-4.9-4.9zm-27.1-8.1H32.7c-3.7 0-6.6 3-6.7 6.6v6.6h2.5c0-3.8 3.1-6.9 6.9-6.9h10c3.8 0 6.9 3.1 6.9 6.9h2.2v-6.6c-.1-3.7-3.1-6.6-6.7-6.6zm-13.4-7.7c0 3.2 2.6 5.8 5.8 5.8 3.2 0 5.8-2.6 5.8-5.8 0-3.2-2.6-5.8-5.8-5.8-3.2 0-5.8 2.6-5.8 5.8z"/><path class="st0" d="M45.3 65.9h-10c-2.7 0-4.9 2.2-4.9 4.9h19.8c.1-2.7-2.1-4.9-4.9-4.9z"/></svg>