<svg version="1.1" id="Слой_1" xmlns="http://www.w3.org/2000/svg" x="0" y="0" viewBox="45 -51 168 168" xml:space="preserve"><style>.st1{fill:#fff}</style><circle cx="129" cy="33" r="84" fill="#1a207b"/><path class="st1" d="M161.2 9.2C148.1-8.6 123-12.3 105.2.7s-21.6 38.1-8.5 55.9 38.1 21.6 55.9 8.5c17.9-13 21.7-38.1 8.6-55.9zm-9.9 54.1c-16.7 12.3-40.3 8.8-52.6-7.9s-8.8-40.3 7.9-52.6 40.3-8.8 52.6 7.9 8.9 40.2-7.9 52.6z"/><path class="st1" d="M133.5 38.3c-.4.3-.8.5-1.1.8-3.6 1.8-7.9.4-9.6-3.1-1.8-3.6-.4-7.9 3.1-9.6L130.8.1c.3-1.7 6.1-.6 5.7 1.1l-4.7 25c1.5.6 2.9 1.7 3.7 3.4.6 1.2.8 2.5.8 3.7l23.1 7.8c1.7.5 0 6.1-1.8 5.5l-24.1-8.3z"/><path class="st1" d="M134.3 24c-.2.5-.3.9-.4 1.3 1.4.7 2.6 1.8 3.4 3.3.5 1 .8 2.1.8 3.2.4.2.8.2 1.3.3l22.9 7.8c2-7.5 1.4-15.7-2.4-23.2-4.5-8.7-12.3-14.5-21-16.7l-4.6 24z"/><circle class="st1" cx="129" cy="-2.9" r="1.2"/><circle class="st1" cx="111.1" cy="2" r="1.2"/><circle class="st1" cx="98" cy="15.1" r="1.2"/><circle class="st1" cx="93.1" cy="33" r="1.2"/><circle class="st1" cx="98" cy="50.9" r="1.2"/><circle class="st1" cx="111.1" cy="64" r="1.2"/><circle class="st1" cx="129" cy="68.9" r="1.2"/><circle class="st1" cx="146.9" cy="64" r="1.2"/><circle class="st1" cx="160" cy="50.9" r="1.2"/></svg>