<svg version="1.1" id="Layer_1" xmlns="http://www.w3.org/2000/svg" x="0" y="0" viewBox="0 0 265 289.1" xml:space="preserve"><style>.st0{fill:#fff}</style><path class="st0" d="M256 9h-72.3v45.2H256V9zm-13.6 36.2h-45.2v-9h45.2v9zm0-18.1h-21.1v-9h21.1v9z"/><path class="st0" d="M265 63.2V0h-90.3v99.4h-18.1v54.2H78.3v54.2H0v81.3h243.9V99.4h-60.2V63.2H265zM183.7 9H256v45.2h-72.3V9zM70.8 250v9h-12v-9h12zm-54.2 0h12v9h-12v-9zm132.5-54.3v9h-12v-9h12zm-54.2 0h12v9h-12v-9zm78.3-45.1v-9h12v9h-12zm54.2 0h-12v-9h12v9zm-140.1 12h69.3v15.1H87.3v-15.1zM9 216.8h69.3v15.1H9v-15.1zm225.9-108.4v15.1h-69.3v-15.1h69.3z"/><path class="st0" d="M16.7 161.3L129.5 48.6v19.2h9V33.1H97.9v9.1h25.2L10.4 154.9z"/></svg>