<svg xmlns="http://www.w3.org/2000/svg" viewBox="0 0 91 65"><path d="M88.6 0H2.4C1.1 0 0 1.1 0 2.5v60C0 63.9 1.1 65 2.4 65h86.2c1.4 0 2.4-1.1 2.4-2.5v-60C91 1.1 89.9 0 88.6 0zM32.1 56H8.7v-4.6h23.4V56zm0-12.6H8.7v-4.6h23.4v4.6zm8-12.9H8.7v-4.6h31.4v4.6zM81.5 57h-3.4c0-3-.6-6-1.7-8.8-.6-1.5-4.6-2.8-4.6-2.8-2.1-.8-2.1-1.5-2.1-1.5-4.1 8.4-7.3 0-7.3 0-.3 1.1-4.5 2.5-4.5 2.5-.7.2-1.3.7-1.8 1.2-1.8 2.8-2.1 9.1-2.1 9.1v.3h-1.9V24.6h29.3l.1 32.4zm3.3-42.1c0 1.4-1.1 2.5-2.4 2.5H8.7c-1.4 0-2.4-1.1-2.4-2.5v-4.4C6.3 9.1 7.4 8 8.7 8h73.7c1.4 0 2.4 1.1 2.4 2.5v4.4zM61.4 39.5C61.7 42.2 64 45 66 45c2.3 0 4.6-2.9 4.9-5.5.3-.2.4-.5.4-.9 0 0 .5-1.9-.2-1.6.2-.7 1-3.5-.5-5.2-.6-.7-1.5-1.3-2.4-1.5l-.7-.3c-.5-.3-.8-.8-.9-1.4-.2.1-.5.3-.6.5.1-.3.3-.6.5-.8-.2.1-.4.3-.5.4-.4.2-.6.5-.7.9-.1-.1-.2-.1-.3-.1-.2 0-.4 0-.6.1-1.5.6-2.6 1.8-3.2 3.3 0 0-.4 1 .1 4.1-.8-.4-.3 1.6-.3 1.6 0 .4.1.7.4.9zm4.5-10.6c-.1.2-.2.4-.3.7h-.1c.1-.3.2-.6.4-.7z" fill="#1a237e"/></svg>