<svg version="1.1" id="Layer_1" xmlns="http://www.w3.org/2000/svg" x="0" y="0" viewBox="0 0 290.4 260.3" xml:space="preserve"><style>.st0{fill:#fff}</style><path class="st0" d="M289.7 201.6c-4-11.7-11.8-45.7-50.8-54l5.3-1.4c12.6-3.3 21.4-14.8 21.4-27.8V113c1.9-1 3.3-2.8 3.9-4.9 10.5-.2 19-8.8 19-19.3 0-10.6-8.5-19.1-19-19.3-.5-2.1-1.8-3.7-3.6-4.8.6-7.6-1-17.9-5.4-27.6-2.1-4.4-4.8-9.1-8.5-13.5-31.2-40-101.3-27.7-113.1 26.1v.2c3.3 2.9 6.3 5.8 8.6 8.7.1.1.2.2.3.4 16.9-58 99.4-55.1 109.6 6.4-1.7 1.4-2.9 3.5-2.9 5.9v35c0 2.3 1.1 4.3 2.7 5.8.2.2.5.3.8.5v5.8c0 20.9-22.7 22.3-43 27.6-5-5.4-13.9-1.9-13.9 5.4 0 9.2 13.1 11.3 15.7 2.1 10-2.6 7.3-1.9 13.5-3.6-1.8 1.2-3.6 2.3-5.5 3.3-1.8 15.5-22.6 19.2-29.6 5.2-6.6-.9-12.9-3.3-18.6-6.7-3.6 3.2-7.9 5.5-12.7 6.6-.1.1-.2.3-.3.4 0 9.6-2.8 17.9-8.6 25.1 13.1 7.9 23.7 19.6 30.4 34h92.9c8.2 0 14.1-8.3 11.4-16.2z"/><path class="st0" d="M195.9 142.9c2.8-4.3 7.7-7.2 13.2-7.2 3.6 0 6.9 1.3 9.6 3.4 16-8.8 27.3-29.9 27.3-54.4 0-32.5-19.8-58.9-44.2-58.9-22.2 0-40.6 21.9-43.7 50.5 1.7 4.1 3.2 8.4 4.1 12.8 1.1 5 1.3 8.1 1.5 12.9 12.8 3 22.5 14.6 22.5 28.2 0 3.1-.6 6-1.5 8.8 3.6 1.9 7.3 3.2 11.2 3.9zm-53 50.7c-6.7 3.5-9.1 3.6-34.6 10.3-7.6 7.5-20.3 5.5-25.1-4.2-9.7-1.4-18.8-5.7-26.5-12.2C33.1 190.8 13 207 5.1 230c-3.6 10.7-7.9 17.5-2.8 24.5 6.1 8.5 5.6 5.2 165 5.2 8.5 0 14.6-8.4 11.8-16.5-4.6-13.8-9.8-36.5-36.2-49.6zM84 184.2c3.6-5.6 10.4-8.7 17.6-6.5l13.7-3.6c20.6-19.3 17.6-43.6 17.6-61.5-10.3-58.9-75.4-60.5-86 0v26.9c4.2 23.4 18.8 41.4 37.1 44.7z"/><path class="st0" d="M22.2 149.4c.8 3.3 3.7 5.9 7.3 5.9 4.3 0 7.7-3.5 7.7-7.7v-35c0-2.4-1.2-4.5-2.9-5.9 1.9-12 8.4-24 16.4-31.9 11.8-12.6 31.5-19.8 54-14.3 8.7 2.8 17.2 6.8 24.3 14.3 7.9 7.8 14.3 19.4 16.4 31.9-4.6 3.7-2.9 6.9-2.9 40.9 0 2.7 1.4 4.9 3.5 6.3v5.8c0 20.2-20 21.5-43 27.6-5-5.4-13.9-1.9-13.9 5.4 0 9.2 13.1 11.3 15.7 2.1 23.8-6.3 49-8.7 49-35.1v-5.4c1.9-1 3.3-2.8 3.8-4.9 10.5-.2 19-8.8 19-19.3 0-10.6-8.5-19.1-19-19.3-.5-2.1-1.8-3.7-3.6-4.8.4-4.6-.2-10.3-1.2-15-.8-3.8-2.2-8.1-4.2-12.6-2.1-4.4-4.8-9.1-8.5-13.5-3.5-4.5-8-8.6-13.1-12.2C82.5 21.9 21 58.4 25.8 106c-1.8 1-3.1 2.7-3.6 4.8-10.5.2-19 8.8-19 19.3s8.5 19.1 19 19.3z"/></svg>