<svg xmlns="http://www.w3.org/2000/svg" viewBox="-265 378.9 64 84"><path d="M-201 444.7s0 .1 0 0v.4s0 .1-.1.1c0 0 0 .1-.1.1l-.1.1-16.9 17-.1.1s-.1 0-.1.1c0 0-.1 0-.1.1h-44.9c-.7 0-1.3-.6-1.3-1.3v-81.3c0-.7.6-1.3 1.3-1.3h61.3c.7 0 1.3.6 1.3 1.3v64.3c-.2.2-.2.3-.2.3zm-16.9 13.6l12.3-12.4h-12.3v12.4zm14.2-76.7h-58.7v78.6h41.8v-15.6c0-.7.6-1.3 1.3-1.3h15.6v-61.7zm-38.2 50.5c0-.7.6-1.3 1.3-1.3h27.6c.7 0 1.3.6 1.3 1.3 0 .7-.6 1.3-1.3 1.3h-27.6c-.7 0-1.3-.6-1.3-1.3zm28.9-11.2h-27.6c-.7 0-1.3-.6-1.3-1.3 0-.7.6-1.3 1.3-1.3h27.6c.7 0 1.3.6 1.3 1.3 0 .7-.6 1.3-1.3 1.3zm0-12.5h-27.6c-.7 0-1.3-.6-1.3-1.3 0-.7.6-1.3 1.3-1.3h27.6c.7 0 1.3.6 1.3 1.3 0 .7-.6 1.3-1.3 1.3zm0-12.5h-25.6c-.7 0-1.3-.6-1.3-1.3 0-.7.6-1.3 1.3-1.3h25.6c.7 0 1.3.6 1.3 1.3 0 .7-.6 1.3-1.3 1.3zm-35.5 3.2c-.3.3-.6.4-.9.4-.3 0-.7-.1-.9-.4l-2.7-2.7c-.5-.5-.5-1.4 0-1.9s1.4-.5 1.9 0l1.7 1.7 6.2-6.2c.5-.5 1.4-.5 1.9 0s.5 1.4 0 1.9l-7.2 7.2zm2.6 3c.7 0 1.3.6 1.3 1.3v7.1c0 .7-.6 1.3-1.3 1.3h-7.1c-.7 0-1.3-.6-1.3-1.3v-7.1c0-.7.6-1.3 1.3-1.3h7.1zm-5.8 7.2h4.4v-4.5h-4.4v4.5zm-1.3 5.3h7.1c.7 0 1.3.6 1.3 1.3v7.1c0 .7-.6 1.3-1.3 1.3h-7.1c-.7 0-1.3-.6-1.3-1.3v-7c0-.8.6-1.4 1.3-1.4zm1.3 7.2h4.4v-4.5h-4.4v4.5zm-1.3 5.3h7.1c.7 0 1.3.6 1.3 1.3v7.1c0 .7-.6 1.3-1.3 1.3h-7.1c-.7 0-1.3-.6-1.3-1.3v-7.1c0-.7.6-1.3 1.3-1.3zm1.3 7.2h4.4v-4.5h-4.4v4.5zm-1.3 5.4h7.1c.7 0 1.3.6 1.3 1.3v7.1c0 .7-.6 1.3-1.3 1.3h-7.1c-.7 0-1.3-.6-1.3-1.3V441c0-.7.6-1.3 1.3-1.3zm1.3 7.1h4.4v-4.5h-4.4v4.5zm11.1-3.6h16c.7 0 1.3.6 1.3 1.3 0 .7-.6 1.3-1.3 1.3h-16c-.7 0-1.3-.6-1.3-1.3 0-.7.6-1.3 1.3-1.3z" fill="#1a237e"/></svg>