<svg width="70" height="70" viewBox="0 0 70 70" fill="none" xmlns="http://www.w3.org/2000/svg">
<g clip-path="url(#clip0)">
<path d="M27.9478 0.00292969H12.0508V9.69684L27.9478 7.04736V0.00292969Z" fill="#00ABF4"/>
<path d="M62.947 65.8959V20.0012H37.0508V65.8959H32.9492V15.8996V10.3721L7.05305 14.688V65.8959H0V69.9974H70V65.8959H62.947ZM52.8202 25.8988H57.1767V30.0004H52.8202V25.8988ZM52.8202 35.8981H57.1767V39.9997H52.8202V35.8981ZM52.8202 45.8973H57.1767V49.9989H52.8202V45.8973ZM52.8202 55.8967H57.1767V59.9982H52.8202V55.8967ZM42.821 25.8988H47.1775V30.0004H42.821V25.8988ZM42.821 35.8981H47.1775V39.9997H42.821V35.8981ZM42.821 45.8973H47.1775V49.9989H42.821V45.8973ZM42.821 55.8967H47.1775V59.9982H42.821V55.8967ZM22.8225 15.8996H27.179V20.0012H22.8225V15.8996ZM22.8225 25.8988H27.179V30.0004H22.8225V25.8988ZM22.8225 35.8981H27.179V39.9997H22.8225V35.8981ZM22.8225 45.8973H27.179V49.9989H22.8225V45.8973ZM12.8233 25.8988H17.1798V30.0004H12.8233V25.8988ZM12.8233 35.8981H17.1798V39.9997H12.8233V35.8981ZM12.8233 45.8973H17.1798V49.9989H12.8233V45.8973ZM12.9507 55.8967H27.0516V65.8959H22.95V59.9982H17.0522V65.8959H12.9507V55.8967Z" fill="#00ABF4"/>
</g>
<defs>
<clipPath id="clip0">
<rect width="70" height="70" fill="white"/>
</clipPath>
</defs>
</svg>
