<svg xmlns="http://www.w3.org/2000/svg" viewBox="0 0 63 66"><path d="M62.9 21.1l-2.4 2.2 1.4 2.9c.1.2 0 .3-.1.5-.1.1-.1.1-.2.1h-.3l-2.9-1.5-2.4 2.2c-.1.1-.3.1-.5.1-.2-.1-.2-.3-.2-.4l.6-3.2-2.9-1.7c-.2-.1-.2-.3-.2-.4 0-.2.2-.3.4-.3l3.3-.4.5-3.2c0-.2.2-.3.4-.3s.4.1.4.2l1.4 2.9 3.3-.4c.2 0 .4.1.4.2.1.2.1.3 0 .5zm-6.8 16.1l.6-3.2c0-.2.2-.3.4-.3s.4.1.4.2l1.4 2.9 3.3-.4c.2 0 .4.1.4.2.1.2 0 .3-.1.5l-2.4 2.2 1.4 2.9c.1.2 0 .3-.1.5-.1.1-.1.1-.2.1h-.3L58 41.3l-2.4 2.2c-.1.1-.3.1-.5.1-.1-.2-.2-.4-.1-.6l.6-3.2-2.9-1.5c-.2-.1-.2-.3-.2-.4 0-.2.2-.3.4-.3l3.2-.4zM48.2 9.7l1.4 2.9c.1.2 0 .3-.1.5-.1.1-.1.1-.2.1H49l-2.9-1.5-2.4 2.2c-.1.1-.3.1-.5.1-.2-.1-.2-.3-.2-.4l.6-3.2-2.9-1.5c-.2-.1-.2-.3-.2-.4 0-.2.2-.3.4-.3l3.3-.4.6-3.2c0-.2.2-.3.4-.3s.4.1.4.2L47 7.2l3.3-.4c.2 0 .4.1.4.2.1.2 0 .3-.1.5l-2.4 2.2zM46.6 66H35.7V17.1l10.9 7V66zM8.2 49.7l.8-.4v-9l8.9-3.9v9.2l1.2-.5v9.3l1.9-1.2V25.4L34.5 17v49H8.2V49.7zm19.9 3.6l4.8-3v-4l-4.8 3.1v3.9zm0-6.4l4.8-3v-4L28.1 43v3.9zm0-6.4l4.8-3v-4l-4.8 3.1v3.9zm0-6.5l4.8-3v-4l-4.8 3.1V34zm0-6.4l4.8-3v-4l-4.8 3.1v3.9zm-5.5 29.1l4.1-2.6v-3.9l-4.1 2.6v3.9zm0-6.4l4.1-2.6v-3.9l-4.1 2.6v3.9zm0-6.5l4.1-2.6v-3.9L22.6 40v3.8zm0-6.4l4.1-2.6V31l-4.1 2.6v3.8zm0-6.4l4.1-2.6v-3.9l-4.1 2.6V31zm-8.4 29.2l3-1.3v-3.6l-3 1.4v3.5zm0-5.4l3-1.3v-3.6l-3 1.4v3.5zm-.4-5.2l3-1.3v-3.6l-3 1.4v3.5zm-.2-5.8l3-1.3V39l-3 1.4v3.4zm-3.4 18.1l3-1.3V57l-3 1.4v3.5zm0-5.4l3-1.3v-3.6l-3 1.4v3.5zm-.1-5.2l3-1.3v-3.6l-3 1.4v3.5zm-.2-5.7l3-1.3v-3.6l-3 1.4v3.5zm21-40l1.4 2.9c.1.2 0 .3-.1.5h-.5l-2.9-1.5-2.4 2.2c-.1.1-.3.1-.5.1-.2-.1-.2-.3-.2-.4l.6-3.2-2.9-1.5c-.2-.1-.2-.3-.2-.4 0-.2.2-.3.4-.3l3.3-.4.6-3.1c0-.2.2-.3.4-.3s.4.1.4.2l1.4 2.9 3.3-.4c.2 0 .4.1.4.2.1.2 0 .3-.1.5l-2.4 2zm-15 8.3l1.4 2.9c.1.2 0 .3-.1.5-.1.1-.3.1-.5.1l-2.9-1.5-2.3 2.1c-.1.1-.1.1-.2.1H11c-.2-.1-.2-.3-.2-.4l.6-3.2L8.5 13c-.2-.1-.2-.3-.2-.4 0-.2.2-.3.4-.3l3.3-.4.6-3.1c0-.2.2-.3.4-.3s.4.1.4.2l1.4 2.9L18 11c.2 0 .4.1.4.2.1.2 0 .3-.1.5l-2.4 2.2zm-5.7 13.6c.1.2 0 .3-.1.5l-2.4 2.2L9.1 33c.1.2 0 .3-.1.5-.1.1-.3.1-.5.1L5.6 32l-2.4 2.2c-.1.1-.2.1-.2.1h-.3c-.2-.1-.2-.3-.2-.4l.6-3.1-2.9-1.5c-.2-.2-.2-.4-.2-.5 0-.2.2-.3.4-.3l3.2-.5.6-3.2c0-.2.2-.3.4-.3s.4.1.4.2l1.4 2.9 3.3-.4c.2 0 .4.1.5.3zm50.5 38.3H47.4V47.3l13.3 4.2v14.3zM53 52.5l-4-1.4v3.5l4.1 1.2v-3.3zm0 6.1l-4-1.5v3.5l4.1 1.2v-3.2zm1 3.4l4.1 1.2V60L54 58.6V62zm4.1-8L54 52.5V56l4.1 1.2V54z" fill="#03a9f4"/></svg>