<svg width="70" height="61" viewBox="0 0 70 61" fill="none" xmlns="http://www.w3.org/2000/svg">
<path d="M34.502 11.8972C38.2728 11.8972 41.3288 9.2345 41.3288 5.94897C41.3288 2.6627 38.2728 0 34.502 0C30.7321 0 27.6753 2.6627 27.6753 5.94897C27.6753 9.2345 30.7321 11.8972 34.502 11.8972Z" fill="#00ABF4"/>
<path d="M52.6559 39.3745H52.2136V35.9608C53.0325 35.2303 53.3083 34.119 52.793 33.1352L43.0585 14.5498C42.5242 13.527 41.3133 12.9945 40.0971 13.1078H28.9072C27.6893 12.9945 26.4802 13.5269 25.945 14.5498L16.2097 33.1353C15.5409 34.4131 16.1872 35.923 17.6531 36.5063C18.046 36.6624 18.4589 36.7368 18.8624 36.7368C19.9709 36.7368 21.0319 36.1843 21.5219 35.248L26.2252 26.2672L26.2183 57.9472C26.2183 59.6337 27.7857 61 29.7218 61C31.658 61 33.2254 59.6337 33.2254 57.9472V39.7532H35.78V57.9472C35.78 59.6337 37.3466 61 39.2836 61C41.2197 61 42.7871 59.6337 42.7871 57.9472L42.7776 26.2672L47.4835 35.248C47.7481 35.7567 48.1905 36.1397 48.7101 36.3952V39.3746H48.2676C47.4947 39.3746 46.8676 39.9211 46.8676 40.595V53.3555C46.8676 54.0294 47.4947 54.5759 48.2676 54.5759H52.6559C53.4298 54.5759 54.0569 54.0294 54.0569 53.3555V40.5949C54.0569 39.921 53.4297 39.3745 52.6559 39.3745ZM36.9207 26.9429L35.0521 30.0463C34.9429 30.2242 34.7329 30.3358 34.5004 30.3358C34.2723 30.3358 34.058 30.2244 33.9531 30.0454L32.082 26.9429C31.9727 26.7629 31.9206 26.565 31.9224 26.3611C31.9405 25.0247 32.0959 19.7572 33.2252 17.42L32.3604 16.6644C32.1167 16.4528 32.1167 16.1111 32.3604 15.8994L34.0623 14.4155C34.3043 14.2039 34.6964 14.2039 34.9402 14.4155L36.6439 15.8994C36.761 16.0006 36.8268 16.1386 36.8268 16.2819C36.8268 16.4251 36.7609 16.5631 36.6439 16.6644L35.7773 17.42C36.9085 19.7572 37.062 25.0247 37.0803 26.3611C37.082 26.563 37.0272 26.7637 36.9207 26.9429Z" fill="#00ABF4"/>
</svg>
