<svg xmlns="http://www.w3.org/2000/svg" viewBox="0 0 43.4 47.1"><path d="M42.6 46.3c-1 1-2.7 1-3.7 0l-5.4-5.4C29 43.8 22.9 43.2 19 39.3c-4.6-4.6-4.6-12.1 0-16.7s12-4.6 16.6 0c3.9 4 4.5 10.1 1.7 14.6l5.4 5.4c1 1 1 2.7-.1 3.7zm-9.3-21.5c-3.4-3.4-8.8-3.4-12.1 0-3.3 3.4-3.3 8.9 0 12.2 3.3 3.4 8.8 3.4 12.1 0 3.4-3.4 3.4-8.8 0-12.2zm-15.4-3.3c-.6.6-1.2 1.3-1.6 2-.4 0-.7-.1-1.1-.1-.2-1-.4-2.1-.6-3.4.8.1 1.6.1 2.5.1.8 0 1.6 0 2.5-.1v.2c-.7.3-1.2.8-1.7 1.3zm-.8-2.6c-.9 0-1.7 0-2.5-.1-.1-.8-.1-1.7-.1-2.6 0-.9 0-1.8.1-2.6.8-.1 1.6-.1 2.5-.1.9 0 1.7 0 2.5.1.1.8.1 1.7.1 2.6 0 .9 0 1.8-.1 2.6-.8.1-1.6.1-2.5.1zM15.2 6.3c-.3.5-.6 1.2-.8 2-.8.1-1.6.3-2.3.6.8-1.2 1.9-2.1 3.1-2.6zm-3.1.9c-.6.7-1.2 1.5-1.7 2.4-.9.5-1.7 1.1-2.4 1.7 1-1.7 2.4-3.1 4.1-4.1zm-2.4 4.1c-.3.7-.5 1.5-.6 2.3-.8.2-1.4.5-2 .8.5-1.2 1.4-2.3 2.6-3.1zm-2.9 5c0-.5.8-1.1 2.2-1.6-.1.5-.1 1-.1 1.6 0 .5 0 1 .1 1.6-1.4-.5-2.2-1.1-2.2-1.6zM9.1 19c.1.8.3 1.6.6 2.3-1.2-.9-2.1-1.9-2.6-3.1.6.3 1.3.6 2 .8zm-1 2.2c.7.6 1.5 1.2 2.4 1.7.5.9 1 1.7 1.7 2.4-1.8-.9-3.2-2.3-4.1-4.1zm6.9 4.6c0 .1-.1.2-.1.3-1.1-.5-2-1.3-2.8-2.5.7.3 1.5.5 2.3.6.2.7.4 1.2.6 1.6zm-3.8-3.6c-.4-.9-.8-1.8-1-2.9 1 .2 2.1.4 3.3.5.1 1.2.3 2.3.5 3.3-.9-.2-1.9-.5-2.8-.9zm2.9-12.8c-.2 1-.4 2.2-.5 3.3-1.2.1-2.3.3-3.3.5.2-1 .5-2 1-2.9.8-.3 1.8-.7 2.8-.9zm-4 8.8c-.1-.6-.1-1.2-.1-1.9 0-.6 0-1.3.1-1.9 1-.2 2.1-.5 3.4-.6-.1.8-.1 1.6-.1 2.5 0 .8 0 1.7.1 2.5-1.3-.2-2.5-.4-3.4-.6zm7-12.3c.5 0 1.1.8 1.5 2.2-.5-.1-1-.1-1.5-.1s-1 0-1.6.1c.5-1.4 1.1-2.2 1.6-2.2zm2.4 6.8c-.8-.1-1.6-.1-2.5-.1-.8 0-1.6 0-2.5.1.1-1.3.3-2.5.6-3.4.6-.1 1.2-.1 1.9-.1.6 0 1.3 0 1.9.1.3.9.5 2.1.6 3.4zm-.6-6.4c1.2.5 2.3 1.4 3.1 2.6-.7-.3-1.5-.5-2.3-.6-.2-.8-.4-1.4-.8-2zm1.2 3.1c1 .2 2 .6 2.9 1 .4.9.7 1.8 1 2.9-1-.2-2.1-.4-3.3-.5-.2-1.2-.4-2.4-.6-3.4zM22 7.2c1.7 1 3.1 2.4 4.1 4.1-.7-.6-1.5-1.2-2.4-1.7-.5-.9-1.1-1.7-1.7-2.4zm2.4 4.1c1.2.9 2.1 1.9 2.6 3.1-.5-.3-1.2-.6-2-.8-.1-.8-.3-1.6-.6-2.3zm3 5c0 .4-.6.9-1.7 1.4-.2 0-.3 0-.5.1 0-.5.1-.9.1-1.4 0-.5 0-1-.1-1.6 1.4.4 2.2 1 2.2 1.5zm-3.3-1.9c.1.6.1 1.2.1 1.9 0 .6 0 1.1-.1 1.6-.6.2-1.3.4-1.9.6-.5.1-1 .1-1.6.2.1-.8.1-1.6.1-2.5 0-.8 0-1.7-.1-2.5 1.4.3 2.5.5 3.5.7zm4.3 1.9c0-6.3-5.1-11.4-11.3-11.4-6.3 0-11.3 5.1-11.3 11.4 0 5.4 3.7 9.9 8.7 11.1-.3 1.3-.5 2.5-.5 3.9H6.2c-.6 0-1.1.5-1.1 1.1V35c0 .6.5 1.1 1.1 1.1H15c.6 1.6 1.6 3 2.9 4.3.6.6 1.2 1.2 1.9 1.6H5.1C2.3 42 0 39.8 0 36.9V5.1C0 2.2 2.3 0 5.1 0h24c2.8 0 5.1 2.2 5.1 5.1v14.4c-1.7-1.1-3.7-1.7-5.8-1.9v-1.3z" fill="#1b1f7a"/></svg>