<svg xmlns="http://www.w3.org/2000/svg" viewBox="0 0 45 45"><g stroke-width=".467" stroke-miterlimit="10"><path fill="#03A9F4" stroke="#03A9F4" d="M9.3 17.9H28c.4 0 .7-.3.7-.7 0-.4-.3-.7-.7-.7H9.3c-.4 0-.7.3-.7.7 0 .4.3.7.7.7h0zm0-6h7.5c.4 0 .7-.3.7-.7 0-.4-.3-.7-.7-.7H9.3c-.4 0-.7.3-.7.7 0 .4.3.7.7.7h0zm0 12H28c.4 0 .7-.3.7-.7 0-.4-.3-.7-.7-.7H9.3c-.4 0-.7.3-.7.7 0 .4.3.7.7.7h0zM22 28.4H9.3c-.4 0-.7.3-.7.7 0 .4.3.7.7.7H22c.4 0 .7-.3.7-.7.1-.4-.3-.7-.7-.7h0zm-2.2 6H9.3c-.4 0-.7.3-.7.7 0 .4.3.7.7.7h10.5c.4 0 .7-.3.7-.7 0-.4-.3-.7-.7-.7h0zm0 0"/><path fill="#03A9F4" stroke="#03A9F4" d="M25.3 0H1.1v44.8H32c-1.3-.3-2.5-.8-3.6-1.5H2.6V1.5h21.7V12h10.5v13.3c.5 0 1 .1 1.5.2V10.9L25.3 0zm.5 10.5v-8l7.9 7.9h-7.9z"/><path fill="#3F51B5" stroke="#3F51B5" d="M34 25.2c-5.5 0-9.9 4.4-9.9 9.9S28.5 45 34 45s9.9-4.4 9.9-9.9-4.5-9.9-9.9-9.9zm0 18.1c-4.5 0-8.2-3.7-8.2-8.2s3.7-8.2 8.2-8.2c4.5 0 8.2 3.7 8.2 8.2s-3.7 8.2-8.2 8.2z"/><path fill="#3F51B5" stroke="#3F51B5" d="M35.6 36.4l1.1 1.1c.3.3.3 1-.1 1.3l-1.5 1.6c-.6.6-1.4-.2-.8-.8l1-1-.9-.9 1.2-1.3zm-3.3 0h0l-1.1 1.1c-.3.3-.3 1 .1 1.3l1.5 1.6c.6.6 1.4-.2.8-.8l-1-1 .9-.9-1.2-1.3m1.7-4.1c.9 0 1.6-.7 1.6-1.6 0-.9-.7-1.6-1.6-1.6-.9 0-1.6.7-1.6 1.6 0 .9.7 1.6 1.6 1.6h0zm1.7 3.5v-1.1l1.3 1.2c.1.1.2.1.4.1.1 0 .3-.1.4-.2.2-.2.2-.6 0-.8 0 0-1.5-1.6-1.7-1.8-.4-.4-1-.6-1.9-.6h-.3c-1 0-1.5.2-1.9.6-.2.2-1.7 1.8-1.7 1.8-.2.2-.2.6 0 .8.1.1.3.2.4.2.1 0 .3 0 .4-.1l1.3-1.2v1.1h3.3zm0 0"/></g></svg>