<svg version="1.1" id="Слой_1" xmlns="http://www.w3.org/2000/svg" x="0" y="0" viewBox="0 0 45.3 45" xml:space="preserve"><style>.st0{fill:#3e51b3}.st1{fill:#0ea7f2}</style><path class="st0" d="M30.2 12l-4.3 6.2-3.1-2.5c-.3-.3-.8-.2-1.1.1-.3.3-.2.8.1 1.1l3.7 3.1c.1.1.3.2.5.2h.1c.2 0 .4-.1.5-.3l4.8-6.9c.2-.4.2-.8-.2-1.1-.2-.3-.7-.2-1 .1zm0 0"/><path class="st0" d="M26.1 20.2c-.2 0-.4-.1-.5-.2l-3.8-3c-.3-.3-.4-.8-.1-1.1.1-.2.3-.3.6-.3.2 0 .4 0 .6.2l3 2.5 4.3-6.2c.1-.2.3-.3.5-.3s.4 0 .6.1c.2.1.3.3.3.5s0 .4-.1.6l-4.8 6.9c-.1.2-.3.3-.6.3zm-3.8-4.6c-.3 0-.4.1-.6.3-.3.3-.2.8.1 1l3.7 3.1c.1.1.3.2.5.2h.1c.2 0 .4-.1.5-.3l4.8-6.9c.1-.2.2-.4.1-.6 0-.2-.1-.4-.3-.5-.2-.1-.4-.2-.6-.1-.2 0-.4.1-.5.3l-4.4 6.3-3.1-2.5c.1-.2-.1-.3-.3-.3z"/><path class="st0" d="M21 9.6c-3.5 3.5-3.5 9.1 0 12.6 1.7 1.7 4 2.6 6.3 2.6s4.6-.9 6.3-2.6c3.5-3.5 3.5-9.1 0-12.6-3.5-3.4-9.2-3.4-12.6 0zm12.9 10.3V12c1.5 2.4 1.5 5.4 0 7.9zm-1.1-9.4v10.9l-.1.1c-3 3-8 3-11 0-.5-.5-.8-.9-1.2-1.5l-.5-1.2c-.4-1.1-.6-2.3-.5-3.5l.2-1.1c.3-1.3.9-2.5 1.9-3.5L23 9.5c1.3-.9 2.8-1.3 4.3-1.3 1.9 0 3.9.7 5.5 2.3zm0 0"/><path class="st0" d="M27.3 24.9c-2.4 0-4.6-.9-6.3-2.6-1.7-1.7-2.6-3.9-2.6-6.3s.9-4.6 2.6-6.3C22.6 7.9 24.9 7 27.3 7s4.6.9 6.3 2.6c3.5 3.5 3.5 9.2 0 12.6-1.7 1.7-4 2.7-6.3 2.7zm0-17.8c-2.4 0-4.6.9-6.3 2.6-1.7 1.7-2.6 3.9-2.6 6.3s.9 4.6 2.6 6.3c1.7 1.7 3.9 2.6 6.3 2.6s4.6-.9 6.3-2.6c3.5-3.5 3.5-9.1 0-12.5-1.7-1.8-4-2.7-6.3-2.7zm0 16.6c-2 0-4-.8-5.5-2.3-.4-.4-.8-.9-1.2-1.5l-.6-1.1c-.4-1.1-.6-2.3-.5-3.6l.2-1.1c.3-1.3 1-2.6 1.9-3.6L23 9.4c1.3-.9 2.8-1.3 4.3-1.3 2.1 0 4 .8 5.5 2.3v10.9c-1.5 1.7-3.5 2.4-5.5 2.4zm0-15.5c-1.5 0-3 .4-4.3 1.3l-1.3 1.1c-.9 1-1.6 2.2-1.9 3.5l-.2 1.1c-.1 1.2.1 2.4.5 3.5l.6 1.1c.3.5.7 1 1.1 1.5 3 3 7.9 3 10.9 0V10.5c-1.4-1.5-3.4-2.3-5.4-2.3zM33.9 20v-8.1l.1.1c1.4 2.4 1.4 5.5 0 7.9l-.1.1zm.1-7.9v7.6c1.3-2.3 1.3-5.2 0-7.6z"/><path class="st1" d="M5.8 11.5h4.6c.3 0 .6-.3.6-.6s-.3-.6-.6-.6H5.8c-.3 0-.6.3-.6.6 0 .4.3.6.6.6zm0 0"/><path class="st1" d="M10.4 11.6H5.8c-.3 0-.6-.3-.6-.6s.3-.6.6-.6h4.6c.3 0 .6.3.6.6s-.3.6-.6.6zm-4.6-1.2c-.3 0-.5.2-.5.5s.2.5.5.5h4.6c.3 0 .5-.2.5-.5s-.2-.5-.5-.5H5.8zm0 8.1h3.1c.3 0 .6-.3.6-.6s-.3-.6-.6-.6H5.8c-.3 0-.6.3-.6.6s.3.6.6.6zm0 0"/><path class="st1" d="M8.9 18.5H5.8c-.3 0-.6-.3-.6-.6s.3-.6.6-.6h3.1c.3 0 .6.3.6.6s-.2.6-.6.6zm-3.1-1.1c-.3 0-.5.2-.5.5s.2.5.5.5h3.1c.3 0 .5-.2.5-.5s-.2-.5-.5-.5H5.8zm0 8.1h10.5c.3 0 .6-.3.6-.6s-.3-.6-.6-.6H5.8c-.3 0-.6.3-.6.6s.3.6.6.6zm0 0"/><path class="st1" d="M16.3 25.5H5.8c-.3 0-.6-.3-.6-.6s.3-.6.6-.6h10.5c.3 0 .6.3.6.6s-.2.6-.6.6zM5.8 24.4c-.3 0-.5.2-.5.5s.2.5.5.5h10.5c.3 0 .5-.2.5-.5s-.2-.5-.5-.5H5.8zm20.9 7H10.1c-.3 0-.6.3-.6.6s.3.6.6.6h16.6c.3 0 .6-.3.6-.6 0-.4-.3-.6-.6-.6zm0 0"/><path class="st1" d="M26.7 32.6H10.1c-.3 0-.6-.3-.6-.6s.3-.6.6-.6h16.6c.3 0 .6.3.6.6s-.3.6-.6.6zm-16.6-1.2c-.3 0-.5.2-.5.5s.2.5.5.5h16.6c.3 0 .5-.2.5-.5s-.2-.5-.5-.5H10.1zm-4.3 1.1h2.5c.3 0 .6-.3.6-.6s-.3-.6-.6-.6H5.8c-.3 0-.6.3-.6.6 0 .4.3.6.6.6zm0 0"/><path class="st1" d="M8.3 32.6H5.8c-.3 0-.6-.3-.6-.6s.3-.6.6-.6h2.5c.3 0 .6.3.6.6s-.3.6-.6.6zm-2.5-1.2c-.3 0-.5.2-.5.5s.2.5.5.5h2.5c.3 0 .5-.2.5-.5s-.2-.5-.5-.5H5.8zm20.9 3.5h-3.5c-.3 0-.6.3-.6.6s.3.6.6.6h3.5c.3 0 .6-.3.6-.6 0-.4-.3-.6-.6-.6zm0 0"/><path class="st1" d="M26.7 36h-3.5c-.3 0-.6-.3-.6-.6s.3-.6.6-.6h3.5c.3 0 .6.3.6.6s-.3.6-.6.6zm-3.5-1.1c-.3 0-.5.2-.5.5s.2.5.5.5h3.5c.3 0 .5-.2.5-.5s-.2-.5-.5-.5h-3.5zM5.8 36h15.4c.3 0 .6-.3.6-.6s-.3-.6-.6-.6H5.8c-.3 0-.6.3-.6.6s.3.6.6.6zm0 0"/><path class="st1" d="M21.2 36H5.8c-.3 0-.6-.3-.6-.6s.3-.6.6-.6h15.4c.3 0 .6.3.6.6s-.3.6-.6.6zM5.8 34.9c-.3 0-.5.2-.5.5s.2.6.5.6h15.4c.3 0 .5-.2.5-.5s-.2-.5-.5-.5H5.8zM11.7 11c0 .3.3.6.6.6h4.8c.2-.4.4-.8.6-1.1h-5.3c-.4-.1-.7.1-.7.5z"/><path class="st1" d="M17.2 11.8h-5c-.5 0-.9-.4-.9-.9s.4-.9.9-.9H18l-.2.4c-.2.4-.4.7-.6 1.1v.3zm-4.9-1.1c-.2 0-.3.1-.3.3s.1.3.3.3h4.6l.3-.6h-4.9zm-2 7.2c0 .3.3.6.6.6h5.5c-.1-.4-.2-.8-.2-1.1h-5.3c-.3 0-.6.2-.6.5z"/><path class="st1" d="M16.8 18.8h-5.9c-.5 0-.9-.4-.9-.9s.4-.9.9-.9h5.6v.2c0 .4.1.7.2 1.1l.1.5zm-5.9-1.2c-.2 0-.3.1-.3.3s.1.3.3.3h5.2c0-.2-.1-.4-.1-.6h-5.1zM5.8 22h12.1c-.2-.4-.5-.7-.6-1.1H5.8c-.3 0-.6.3-.6.6.1.2.3.5.6.5z"/><path class="st1" d="M18.4 22.3H5.8c-.5 0-.9-.4-.9-.9s.4-.9.9-.9h11.6l.1.2c.2.4.4.7.6 1.1l.3.5zM5.8 21.1c-.2 0-.3.1-.3.3 0 .2.1.3.3.3h11.6l-.3-.6H5.8zm-.5-6.7c0 .3.3.6.6.6h10.4c0-.4.1-.8.2-1.1H5.8c-.3 0-.5.2-.5.5z"/><path class="st1" d="M16.4 15.3H5.8c-.5 0-.9-.4-.9-.9s.4-.9.9-.9h10.9l-.1.3c-.1.4-.1.7-.2 1.1v.4zM5.8 14.2c-.2 0-.3.1-.3.3s.1.3.3.3h10.1c0-.2 0-.4.1-.6H5.8z"/><path class="st1" d="M31.1 26.4v17.2H1.4V7.2h5.2c.4 0 .6-.2.6-.5V1.4h23.9v3.7l1.1.5V.9c0-.3-.3-.6-.6-.6h-25c-.2 0-.3.1-.4.2L.5 6.3c-.2.1-.2.2-.2.4v37.5c0 .3.3.6.6.6h30.8c.3 0 .6-.3.6-.6V25.9c-.4.2-.8.4-1.2.5zM6.1 2.3v3.8H2.2l3.9-3.8z"/><path class="st1" d="M31.7 45H.9c-.5 0-.9-.4-.9-.8V6.7c0-.2.1-.4.3-.6L6 .3c.2-.2.4-.3.6-.3h25c.5 0 .9.4.9.9v5.2l-1.7-.7V1.7H7.5v4.9c0 .5-.4.9-.9.9H1.7v35.8h29.1V26.2l.2-.1c.4-.1.8-.3 1.1-.5l.4-.2v18.7c.1.5-.3.9-.8.9zM6.6.6c-.1 0-.1 0-.2.1L.7 6.5c-.1 0-.1.1-.1.2v37.5c0 .2.1.3.3.3h30.8c.2 0 .3-.1.3-.3V26.4c-.2.1-.4.2-.6.2v17.3H1.1v-37h5.5c.2 0 .3-.1.3-.3V1.2h24.5V5l.6.2V.9c0-.2-.1-.3-.3-.3H6.6zm-.2 5.8H1.5l4.8-4.8v4.8zm-3.5-.6h2.9V2.9L2.9 5.8z"/><path class="st1" d="M18 25.5h3.4c-.6-.3-1.1-.7-1.5-1.1H18c-.3 0-.6.3-.6.6.1.2.3.5.6.5z"/><path class="st1" d="M22.5 25.8H18c-.5 0-.9-.4-.9-.9s.4-.9.9-.9h2l.1.1c.5.4 1 .8 1.5 1.1l.9.6zM18 24.6c-.2 0-.3.1-.3.3 0 .2.1.3.3.3h2.5c-.2-.2-.5-.4-.7-.6H18z"/><path class="st0" d="M27.3 5.1c-6 0-10.8 4.9-10.8 10.8s4.9 10.8 10.8 10.8 10.8-4.9 10.8-10.8S33.3 5.1 27.3 5.1zm0 19.1c-4.6 0-8.3-3.7-8.3-8.3 0-4.6 3.7-8.3 8.3-8.3 4.6 0 8.3 3.7 8.3 8.3 0 4.6-3.7 8.3-8.3 8.3z"/><path class="st0" d="M27.3 26.8c-6 0-10.9-4.9-10.9-10.9S21.3 5 27.3 5s10.9 4.9 10.9 10.9-4.9 10.9-10.9 10.9zm0-21.7c-6 0-10.8 4.8-10.8 10.8 0 6 4.8 10.8 10.8 10.8s10.8-4.8 10.8-10.8c0-5.9-4.9-10.8-10.8-10.8zm0 19.2c-4.6 0-8.3-3.7-8.3-8.3 0-4.6 3.7-8.3 8.3-8.3s8.3 3.7 8.3 8.3c0 4.5-3.7 8.3-8.3 8.3zm0-16.6c-4.6 0-8.3 3.7-8.3 8.3 0 4.6 3.7 8.3 8.3 8.3s8.3-3.7 8.3-8.3c0-4.6-3.8-8.3-8.3-8.3z"/><path class="st0" d="M33.5 24.3l8.7 8.6 1.4.3 1.3-.8-.3-1.1-8.9-9.3z"/><path class="st0" d="M43.6 33.3l-1.5-.4-8.7-8.6 2.2-2.4 8.9 9.3.3 1.2-1.2.9zm-1.4-.4l1.4.4 1.3-.8-.3-1.1-8.9-9.4-2.1 2.3 8.6 8.6z"/><path class="st0" d="M45.3 31.9c0-.5-.2-1.1-.6-1.5l-8.3-8.3c1.3-1.8 1.9-4 1.9-6.3 0-3-1.2-5.8-3.3-7.9-.9-.9-1.8-1.6-2.9-2.1-.4-.2-.8-.4-1.1-.5-3.9-1.4-8.5-.6-11.7 2.6-.7.7-1.3 1.5-1.8 2.3-.2.4-.4.7-.6 1.1-.3.7-.6 1.5-.7 2.3-.1.4-.1.8-.2 1.1v.9c0 .5 0 1 .1 1.4 0 .4.1.8.2 1.1.2.8.5 1.6.8 2.3.2.4.4.8.7 1.1.4.6.9 1.2 1.5 1.8.2.2.4.4.6.5.5.4 1 .8 1.6 1.1 1.8 1 3.7 1.6 5.7 1.6 1.3 0 2.6-.2 3.8-.7.4-.1.8-.3 1.1-.5.4-.2.9-.5 1.3-.8l8.3 8.3c.4.4.9.6 1.5.6.5 0 1.1-.2 1.5-.6.4.2.6-.3.6-.9zM20.2 23c-1.9-1.9-2.9-4.4-2.9-7.1s1-5.2 2.9-7.1C22.1 6.9 24.7 6 27.3 6c2.6 0 5.1 1 7.1 2.9 1.9 1.9 2.9 4.4 2.9 7.1 0 2.7-1 5.2-2.9 7.1-4 3.8-10.3 3.8-14.2-.1zm14.2 1.4c.2-.2.5-.4.7-.6.2-.2.4-.4.6-.7l5.9 5.9-1.3 1.3-5.9-5.9zm9.5 8.2c-.4.4-.9.4-1.3 0l-1.5-1.5 1.3-1.3 1.5 1.5c.2.2.3.4.3.6 0 .3-.1.5-.3.7z"/><path class="st0" d="M43.3 34c-.6 0-1.1-.2-1.5-.6l-8.3-8.3c-.4.3-.8.5-1.3.7-.4.2-.8.3-1.1.5-1.2.4-2.5.7-3.8.7-2 0-4-.5-5.7-1.6-.5-.3-1.1-.7-1.6-1.1l-.1-.1c-.2-.2-.4-.3-.5-.5-.5-.5-1-1.2-1.5-1.8-.2-.4-.5-.8-.7-1.1v-.1c-.4-.7-.6-1.5-.8-2.3-.1-.4-.2-.8-.2-1.1-.1-.5-.1-.9-.1-1.4V15c0-.4.1-.8.2-1.1.1-.8.4-1.5.7-2.3.2-.4.4-.8.6-1.1.5-.8 1.1-1.6 1.8-2.3 3-3 7.6-4.1 11.7-2.6.4.1.8.3 1.1.5 1.1.5 2 1.2 2.9 2.1 2.1 2.1 3.3 4.9 3.3 7.9 0 2.3-.7 4.4-1.9 6.3l8.3 8.3c.4.4.6.9.6 1.5s-.2 1.1-.6 1.5c-.5.1-1 .3-1.5.3zm-9.8-8.9l8.3 8.3c.4.4.9.6 1.4.6.5 0 1-.2 1.4-.6.4-.4.6-.9.6-1.4 0-.5-.2-1-.6-1.4l-8.3-8.3c1.3-1.8 1.9-4 1.9-6.3 0-3-1.2-5.7-3.2-7.8-.8-.8-1.8-1.5-2.9-2.1-.4-.2-.7-.3-1.1-.5-4-1.6-8.5-.5-11.6 2.5-.7.7-1.3 1.5-1.8 2.3-.2.4-.4.7-.5 1.1-.3.7-.6 1.5-.7 2.3-.1.4-.1.7-.1 1.1v.9c0 .5 0 1 .1 1.4 0 .4.1.7.2 1.1.2.8.5 1.6.8 2.3v.1c.2.4.4.7.6 1.1.4.6.9 1.3 1.5 1.8.2.2.3.3.6.5l.1.1c.5.4 1 .8 1.5 1.1 1.7 1 3.7 1.6 5.7 1.6 1.3 0 2.6-.2 3.8-.7.4-.1.7-.3 1.1-.5.4-.1.8-.3 1.2-.6zm9.8 7.8c-.3 0-.5-.1-.7-.3l-1.5-1.5 1.3-1.3 1.5 1.5c.2.2.3.4.3.7 0 .3-.1.5-.3.7-.1.1-.4.2-.6.2zm-2.1-1.8l1.5 1.5c.3.3.9.3 1.2 0 .2-.2.3-.4.3-.6 0-.2-.1-.5-.3-.6l-1.5-1.5-1.2 1.2zm-.9-.8l-5.9-5.9c.3-.2.5-.4.7-.6.2-.2.4-.4.6-.7l5.9 5.9-1.3 1.3zm-5.8-5.9l5.8 5.8 1.2-1.2-5.8-5.8-.6.6c-.1.2-.4.4-.6.6zm-7.2 1.5c-2.6 0-5.1-1-7.1-2.9-1.9-1.9-2.9-4.4-2.9-7.1 0-2.7 1-5.2 2.9-7.1 1.9-1.9 4.4-2.9 7.1-2.9 2.7 0 5.2 1 7.1 2.9 1.9 1.9 2.9 4.4 2.9 7.1 0 2.7-1 5.2-2.9 7.1-2 2-4.6 2.9-7.1 2.9zm0-19.9c-2.7 0-5.2 1-7 2.9-1.9 1.9-2.9 4.4-2.9 7s1 5.2 2.9 7c1.9 1.9 4.5 2.9 7 2.9s5.1-1 7-2.9c1.9-1.9 2.9-4.4 2.9-7 0-2.7-1-5.2-2.9-7C32.4 7 29.9 6 27.3 6z"/></svg>