<svg xmlns="http://www.w3.org/2000/svg" viewBox="0 0 43 45"><g stroke-width=".467" stroke-miterlimit="10"><g fill="#03A9F4" stroke="#03A9F4"><path d="M8.3 18H27c.4 0 .7-.3.7-.7 0-.4-.3-.7-.7-.7H8.3c-.4 0-.7.3-.7.7 0 .4.3.7.7.7h0zm0-5.9h7.5c.4 0 .7-.3.7-.7 0-.4-.3-.7-.7-.7H8.3c-.4 0-.7.3-.7.7 0 .3.3.7.7.7h0zm0 11.9H27c.4 0 .7-.3.7-.7 0-.4-.3-.7-.7-.7H8.3c-.4 0-.7.3-.7.7 0 .4.3.7.7.7h0zM21 28.5H8.3c-.4 0-.7.3-.7.7 0 .4.3.7.7.7H21c.4 0 .7-.3.7-.7 0-.4-.3-.7-.7-.7h0zm-2.2 6H8.3c-.4 0-.7.3-.7.7 0 .4.3.7.7.7h10.5c.4 0 .7-.3.7-.7 0-.4-.3-.7-.7-.7h0zm0 0"/><path d="M35.2 25.8V11L24.3.1H.1v44.8h32.8c5.4 0 9.7-4.4 9.7-9.7.1-4.6-3.1-8.4-7.4-9.4h0zM24.7 2.7l7.9 7.9h-7.9V2.7zm3.1 40.7H1.6V1.6h21.6v10.5h10.5v13.5H33c-5.4 0-9.7 4.4-9.7 9.7v1.1c0 .3.1.6.1.8v.1c.1.3.1.5.2.7 0 .1 0 .1.1.2.1.3.2.5.3.8 0 0 0 .1.1.1l.3.6c0 .1.1.1.1.2.1.2.3.5.4.7 0 .1.1.1.1.1.1.2.3.4.4.6l.1.1c.2.2.4.4.5.6l.1.1c.2.2.4.4.6.5h.1c.2.2.4.3.7.5.1 0 .1.1.2.1 0 .1 0 .2.1.2h0zm5.1 0c-4.5 0-8.2-3.7-8.2-8.2 0-4.5 3.7-8.2 8.2-8.2h.7c.2 0 .4.1.7.1l.3.1c3.7.8 6.5 4.1 6.5 8 .1 4.5-3.6 8.2-8.2 8.2h0zm0 0"/></g><path fill="#3F51B5" stroke="#3F51B5" d="M33 25.3c-5.5 0-9.9 4.4-9.9 9.9s4.4 9.9 9.9 9.9 9.9-4.4 9.9-9.9-4.5-9.9-9.9-9.9zm0 18.1c-4.5 0-8.2-3.7-8.2-8.2S28.4 27 33 27c4.5 0 8.2 3.7 8.2 8.2s-3.7 8.2-8.2 8.2z"/></g><path fill="#3F51B5" d="M37.3 30.4l-.1.1c-.2.1-.3.3-.5.5-.3.3-.5.6-.6 1-.1.2-.1.4 0 .6 0 .2.1.3.2.4.1.1.1.2.2.2l.1.1c.1.1.1.2.2.3.1.2.2.4.3.7.1.4.2.7.1 1.1 0 .4-.2.7-.4 1-.4.6-.9 1.1-1.5 1.6-.6.4-1.3.8-2 1.1-.3.2-.7.3-1 .4-.1.1-.3.1-.4.1l.9-1.8c.1 0 .2-.1.3-.1.3-.1.6-.2.9-.4h.1v-.1c0-.1-.1-.2-.1-.3-.1 0-.1.1-.2.1-.2.1-.3.1-.5.2l.7-1.5c.4-.1.7-.3 1-.5.1 0 .1-.1.2-.2l.2-.2c0-.1.1-.1.1-.2v-.3c0-.1 0-.2-.1-.3 0-.1-.1-.2-.2-.4s-.1-.4-.2-.6c0-.2-.1-.4-.1-.6 0-.4.1-.8.3-1.1.2-.3.4-.6.7-.9l.9-.6c.1-.1.3-.1.4-.2v.2c-.1 0-.2.1-.2.1l-.1.1h-.1v.1h.1l.1-.1c.1 0 .1-.1.2-.1 0 .3.1.4.1.5zm-.9 4.4c0-.4-.1-.7-.3-1-.1-.1-.1-.2-.2-.3-.1-.1-.1-.2-.1-.3h-.1s-.1 0-.1.1c.1.1.1.2.2.3.1.1.1.2.2.4s.2.5.2.8h.2zm-1.8 1.8c.1.1.1.2.2.4.2-.1.5-.3.7-.5.2-.2.4-.4.6-.7l-.3-.2c-.1.1-.2.3-.3.4l-.9.6zm1.6-5.6c-.1 0-.1-.1 0 0-.1-.1-.2 0-.2 0l-.1.1c-.1.1-.2.3-.3.4-.2.3-.3.6-.3 1h.2c0-.3.1-.5.2-.7.1-.3.3-.6.5-.8-.1 0 0 0 0 0zm-.1 2.8zm-4.6 5.9l-2.2-4.6c-.2-.3-.3-.7-.3-1.1 0-1.4 1.1-2.5 2.4-2.5s2.4 1.1 2.4 2.5c0 .4-.1.8-.3 1.1l-2 4.6zm0-7c-.7 0-1.4.6-1.4 1.4s.6 1.4 1.4 1.4c.7 0 1.4-.6 1.4-1.4s-.7-1.4-1.4-1.4z"/></svg>