<svg xmlns="http://www.w3.org/2000/svg" viewBox="0 0 43 45"><g stroke-width=".467" stroke-miterlimit="10"><g fill="#03A9F4" stroke="#03A9F4"><path d="M8.3 18H27c.4 0 .7-.3.7-.7 0-.4-.3-.7-.7-.7H8.3c-.4 0-.7.3-.7.7 0 .4.3.7.7.7h0zm0-5.9h7.5c.4 0 .7-.3.7-.7 0-.4-.3-.7-.7-.7H8.3c-.4 0-.7.3-.7.7 0 .3.3.7.7.7h0zm0 11.9H27c.4 0 .7-.3.7-.7 0-.4-.3-.7-.7-.7H8.3c-.4 0-.7.3-.7.7 0 .4.3.7.7.7h0zM21 28.5H8.3c-.4 0-.7.3-.7.7 0 .4.3.7.7.7H21c.4 0 .7-.3.7-.7 0-.4-.3-.7-.7-.7h0zm-2.2 6H8.3c-.4 0-.7.3-.7.7 0 .4.3.7.7.7h10.5c.4 0 .7-.3.7-.7 0-.4-.3-.7-.7-.7h0zm0 0"/><path d="M35.2 25.8V11L24.3.1H.1v44.8h32.8c5.4 0 9.7-4.4 9.7-9.7.1-4.6-3.1-8.4-7.4-9.4h0zM24.7 2.7l7.9 7.9h-7.9V2.7zm3.1 40.7H1.6V1.6h21.6v10.5h10.5v13.5H33c-5.4 0-9.7 4.4-9.7 9.7v1.1c0 .3.1.6.1.8v.1c.1.3.1.5.2.7 0 .1 0 .1.1.2.1.3.2.5.3.8 0 0 0 .1.1.1l.3.6c0 .1.1.1.1.2.1.2.3.5.4.7 0 .1.1.1.1.1.1.2.3.4.4.6l.1.1c.2.2.4.4.5.6l.1.1c.2.2.4.4.6.5h.1c.2.2.4.3.7.5.1 0 .1.1.2.1 0 .1 0 .2.1.2h0zm5.1 0c-4.5 0-8.2-3.7-8.2-8.2 0-4.5 3.7-8.2 8.2-8.2h.7c.2 0 .4.1.7.1l.3.1c3.7.8 6.5 4.1 6.5 8 .1 4.5-3.6 8.2-8.2 8.2h0zm0 0"/></g><path fill="#3F51B5" stroke="#3F51B5" d="M33 25.3c-5.5 0-9.9 4.4-9.9 9.9s4.4 9.9 9.9 9.9 9.9-4.4 9.9-9.9-4.5-9.9-9.9-9.9zm0 18.1c-4.5 0-8.2-3.7-8.2-8.2S28.4 27 33 27c4.5 0 8.2 3.7 8.2 8.2s-3.7 8.2-8.2 8.2z"/><path fill="#3F51B5" stroke="#3F51B5" d="M33.4 32c.2-.2.3-.4.5-.6-.6.1-1.1.1-1.6-.1h-.1c-.3.3-.6.5-.9.8l-.1.1c0 .9 0 1.1-.5 1.9h.8v.9c0 .2 0 .3.2.5.8.6 1.1 1.8.7 2.7-.4 1-1.3 1.6-2.3 1.6-1 0-1.9-.7-2.3-1.6-.3-1 0-2 .8-2.7.1-.1.1-.2.1-.2v-1h.9c-.3-.7-.2-1.3.1-1.9.1-.2.2-.4.4-.5.3-.3.5-.3.8-.1.3-.2.5-.5.8-.7 0 0 0-.1-.1-.1-.2-.3-.1-.6.2-.8.3-.2.6-.2.9-.2.4 0 .8.1 1.1.2.3.1.5.3.6.6.2-.3.4-.5.6-.8.2.2.5.4.7.6.1.1.2.1.3.1 1.2-.2 2.4.5 2.8 1.7.3 1.2-.3 2.5-1.4 2.9-1.2.5-2.5 0-3.1-1.1-.2-.4-.3-.8-.3-1.2 0-.1 0-.2-.1-.3 0-.2-.2-.4-.5-.7zM32 37.3c0-1-.8-1.9-1.9-1.9-1 0-1.8.8-1.9 1.8 0 1 .8 1.9 1.9 1.9 1.1.1 1.9-.7 1.9-1.8zm4.7-6.1c-1 0-1.9.8-1.9 1.9 0 1 .8 1.9 1.9 1.9 1 0 1.8-.8 1.8-1.8.1-1.2-.8-2-1.8-2zm-4.1-.2c.4.1.8.2 1.2 0 .1 0 .2-.1.3-.2-.1-.1-.1-.2-.2-.3-.4-.3-.9-.3-1.4-.2-.1 0-.3.1-.4.1-.1.1-.1.2 0 .2.3-.3.4-.3.5-.1.2.2.2.2 0 .5zm-2 1s0 0 0 0c-.1 0-.2.1-.3.2-.3.3-.4.7-.4 1.1 0 .2 0 .4.1.5.1.2.2.2.3.1.4-.4.5-.8.5-1.4-.2.1-.3.1-.4 0-.2-.2.1-.3.2-.5zm3.9-.8l.2.2h.2v-.1c-.1-.1-.2-.1-.2-.2l-.2.1zm-4.4 3.3v.4h.1v-.4h-.1z"/></g></svg>