<svg version="1.1" id="Слой_1" xmlns="http://www.w3.org/2000/svg" x="0" y="0" viewBox="0 0 43 44" xml:space="preserve"><style>.st0{fill:#03a9f4}.st1{fill:#3f51b5}</style><path class="st0" d="M8.7 17.5h18.2c.4 0 .7-.3.7-.7s-.3-.7-.7-.7H8.7c-.4 0-.7.3-.7.7s.3.7.7.7z"/><path class="st0" d="M26.9 17.8H8.7c-.5 0-.9-.4-.9-.9s.4-.9.9-.9h18.2c.5 0 .9.4.9.9s-.4.9-.9.9zM8.7 16.4c-.2 0-.4.2-.4.4s.2.4.4.4h18.2c.2 0 .4-.2.4-.4s-.2-.4-.4-.4H8.7zm0-4.7H16c.4 0 .7-.3.7-.7s-.3-.7-.7-.7H8.7c-.4 0-.7.3-.7.7s.3.7.7.7z"/><path class="st0" d="M16 12H8.7c-.5 0-.9-.4-.9-.9s.4-.9.9-.9H16c.5 0 .9.4.9.9.1.4-.4.9-.9.9zm-7.3-1.4c-.2 0-.4.2-.4.4s.2.4.4.4H16c.2 0 .4-.2.4-.4s-.2-.4-.4-.4H8.7zm0 12.8h18.2c.4 0 .7-.3.7-.7 0-.4-.3-.7-.7-.7H8.7c-.4 0-.7.3-.7.7 0 .4.3.7.7.7z"/><path class="st0" d="M26.9 23.6H8.7c-.5 0-.9-.4-.9-.9s.4-.9.9-.9h18.2c.5 0 .9.4.9.9s-.4.9-.9.9zM8.7 22.2c-.2 0-.4.2-.4.4s.2.4.4.4h18.2c.2 0 .4-.2.4-.4s-.2-.4-.4-.4H8.7zm12.4 5.5H8.7c-.4 0-.7.3-.7.7 0 .4.3.7.7.7H21c.4 0 .7-.3.7-.7.1-.4-.2-.7-.6-.7z"/><path class="st0" d="M21.1 29.4H8.7c-.5 0-.9-.4-.9-.9s.4-.9.9-.9H21c.3 0 .6.1.8.4.2 0 .2.2.2.4 0 .6-.4 1-.9 1zM8.7 28c-.2 0-.4.2-.4.4s.2.4.4.4H21c.2 0 .4-.2.4-.4v-.2c-.1-.1-.2-.2-.4-.2H8.7zm10.2 5.6H8.7c-.4 0-.7.3-.7.7 0 .4.3.7.7.7h10.2c.4 0 .7-.3.7-.7 0-.5-.3-.7-.7-.7z"/><path class="st0" d="M18.9 35.2H8.7c-.5 0-.9-.4-.9-.9s.4-.9.9-.9h10.2c.5 0 .9.4.9.9.1.5-.3.9-.9.9zM8.7 33.8c-.2 0-.4.2-.4.4s.2.4.4.4h10.2c.2 0 .4-.2.4-.4 0-.3-.2-.4-.4-.4H8.7z"/><path class="st0" d="M24.3.1H.8v43.5h30c-1.3-.3-2.4-.8-3.5-1.5H2.2V1.6h21.1v10.2h10.2v12.9c.5 0 1 .1 1.5.2V10.7L24.3.1zm.4 10.2V2.6l7.7 7.7h-7.7z"/><path class="st0" d="M33 43.9H.5v-44h23.9l10.8 10.7v14.6l-.3-.1c-.5 0-.9-.1-1.4-.1h-.3V12H23V1.8H2.5v40.1h25c1 .7 2.2 1.1 3.4 1.4l2.1.6zm-32-.5h28.1c-.7-.3-1.3-.6-1.9-.9H2V1.3h21.6v10.2h10.2v12.9c.3 0 .6.1.9.1V10.8L24.2.4H1v43zm31.9-32.9h-8.3v-.2h-.3V1.9l8.6 8.6zm-8-.5h6.8l-6.8-6.8V10z"/><path class="st1" d="M32.6 24.6c-5.3 0-9.6 4.3-9.6 9.6s4.3 9.6 9.6 9.6 9.6-4.3 9.6-9.6-4.2-9.6-9.6-9.6zm0 17.6c-4.4 0-8-3.6-8-8s3.6-8 8-8 8 3.6 8 8-3.5 8-8 8z"/><path d="M32.6 44.1c-2.7 0-5.1-1-7-2.9-1.9-1.9-2.9-4.3-2.9-7s1-5.1 2.9-7c1.9-1.9 4.3-2.9 7-2.9s5.1 1 7 2.9c1.9 1.9 2.9 4.3 2.9 7s-1 5.1-2.9 7c-1.8 1.9-4.3 2.9-7 2.9zm0-19.2c-5.2 0-9.4 4.2-9.4 9.4s4.2 9.4 9.4 9.4 9.4-4.2 9.4-9.4-4.2-9.4-9.4-9.4zm0 17.6c-2.2 0-4.2-.9-5.8-2.4-1.6-1.6-2.4-3.6-2.4-5.8 0-2.2.9-4.2 2.4-5.8 1.6-1.6 3.6-2.4 5.8-2.4 2.2 0 4.2.9 5.8 2.4 1.6 1.6 2.4 3.6 2.4 5.8 0 2.2-.8 4.3-2.4 5.8-1.5 1.5-3.6 2.4-5.8 2.4zm0-16c-4.3 0-7.7 3.5-7.7 7.7s3.5 7.7 7.7 7.7 7.7-3.5 7.7-7.7-3.4-7.7-7.7-7.7z" fill="#4555a5"/><path class="st1" d="M37.2 38.1h-6.1c.4-.3.7-.5 1-.8 1-.7 1.9-1.3 2.9-2 .1-.1.3-.2.4-.2.2 0 .5.1.6.2.3.1.6.3.8.6.1.3.1.6.2.8 0 .5.1 1 .2 1.4zM36 35.2c-.5-.2-.9-.4-1.4-.6.3-.6 1.4-3.3 1.7-4.1.1-.4.4-.4.8-.1-.3.8-.6 1.5-.8 2.2 0 .1-.1.3-.1.4.6.8.4 1.1-.2 2.2z"/><path class="st1" d="M35.2 32c0-.1-.1-.3-.2-.3-.1-.5-.3-1-.5-1.5-.1-.2-.3-.4-.5-.5-.9-.4-1.8-.4-2.6 0-.3.1-.5.5-.6.7-.2.4-.4.9-.4 1.4-.1.1-.1.2-.1.3 0 .2.1.3.3.4 0 .1.1.2.2.3.3.3.3.8.5 1.2.3.6.2.8-.4 1-.6.3-1.2.5-1.8.7-.2.1-.4.2-.5.4-.1.7-.2 1.4-.3 2.2h1.6c.2 0 .5 0 .7-.1 1.4-1 2.7-2 4-3-.2-.3-.6-.7-.6-.9.1-.6.4-1.3.8-1.7l.1-.1c.2-.2.3-.3.3-.5zm-5.9 4c0-.1-.1-.1-.1-.2.5-.2 1.1-.4 1.6-.6 0 .1 0 .1.1.2-.5.1-1 .3-1.6.6zm3.8-6.5c-.4.1-1 .1-1.4.4-.4.3-.5.9-.8 1.3-.2-1.2.6-1.8 2.2-1.7zm.7 5.5c-.5.7-1.5.8-2.2 0 .1-.1.1-.2.1-.2h1.9c.1-.1.2.1.2.2zm-.5-.7c-.4.2-.8.2-1.2-.1-.4-.3-.6-.7-.8-1.2-.1-.2-.2-.4-.2-.7h3.3c-.2.7-.4 1.3-.8 1.7l-.3.3z"/></svg>