<svg version="1.1" id="Слой_1" xmlns="http://www.w3.org/2000/svg" x="0" y="0" viewBox="0 0 64 85" xml:space="preserve"><style>.st0{fill:#1a237e}</style><path class="st0" d="M64 16.8v65.1c-.4 1-1 1.9-1.9 2.4-.5.3-1.1.5-1.6.7H3.7c-.2-.1-.3-.1-.5-.2-1.3-.4-2.2-1.2-2.7-2.4-.2-.4-.3-.7-.4-1.1C0 55.5 0 29.6 0 3.7.3 2.5.8 1.4 1.8.8 2.4.5 3 .2 3.6 0H47c.4.3.8.6 1.1.9L64 16.8zm-2.6 2.1H50c-2.9 0-4.6-1.7-4.6-4.6V3.6c0-.9 0-.9-.9-.9H4.8c-1.5 0-2.1.6-2.1 2.1v75.4c0 1.5.6 2.1 2.1 2.1h54.5c1.6 0 2.1-.6 2.1-2.2V18.9zm-1.9-2.7C55.6 12.3 51.8 8.6 48.1 5v9.3c0 1.3.6 1.9 1.9 1.9h9.5z"/><path class="st0" d="M37.9 33.6H22.1c-1 0-1.6-.5-1.6-1.3 0-.7.5-1.3 1.2-1.3h31.9c.3 0 .6 0 .9.1.6.2.9.7.8 1.3 0 .6-.5 1.1-1.2 1.2H37.9zm0 23.7H54c.8 0 1.3.6 1.4 1.3 0 .7-.5 1.3-1.3 1.4H22.3c-1.1 0-1.7-.5-1.7-1.3 0-.7.5-1.3 1.2-1.3h1.1c5-.1 10-.1 15-.1zm-6.5-3.2h-9.3c-.8 0-1.3-.4-1.5-1-.2-.9.4-1.6 1.3-1.7h18.8c.9 0 1.5.4 1.6 1.2.1.9-.5 1.5-1.5 1.5h-9.4zm-.1-33.8h-9.2c-1 0-1.6-.7-1.5-1.6.1-.7.6-1 1.5-1h18.7c.8 0 1.4.6 1.4 1.3 0 .8-.6 1.3-1.4 1.3h-9.5zm0 7.4h-9.2c-.6 0-1.1-.1-1.4-.7-.4-.8 0-1.7.9-1.9h18.9c1 0 1.5.4 1.6 1.2.1.9-.5 1.5-1.5 1.5h-7.4c-.6-.1-1.2-.1-1.9-.1zm0 42.9h9.2c1 0 1.5.4 1.6 1.2.1.7-.4 1.3-1 1.4H22.2c-1 0-1.5-.4-1.6-1.2-.1-.9.4-1.5 1.4-1.5h4.5c1.5.1 3.2.1 4.8.1zm0-23.8h-9.2c-1.1 0-1.6-.6-1.6-1.5 0-.6.5-1.1 1.1-1.2h19.2c.8 0 1.3.5 1.3 1.3 0 .7-.5 1.3-1.2 1.4h-9.6zm-14-4.3v1.6c-.1 1.5-1.2 2.6-2.7 2.7h-3.1c-1.5-.1-2.7-1.3-2.7-2.8v-2.9c0-1.6 1.2-2.8 2.8-2.8h2.9c1.6 0 2.7 1.1 2.8 2.7v1.5zm-2.7 0c0-1.6 0-1.6-1.5-1.6-1.7 0-1.7 0-1.7 1.7 0 1.6 0 1.6 1.5 1.6 1.7-.1 1.7-.1 1.7-1.7zm2.7-13.3v1.7c-.1 1.5-1.2 2.6-2.7 2.6h-3c-1.5-.1-2.7-1.2-2.7-2.8v-3c0-1.5 1.2-2.7 2.8-2.8h3c1.6 0 2.7 1.1 2.8 2.7-.2.6-.2 1.1-.2 1.6zm-2.7.1c0-1.6 0-1.6-1.6-1.6-1.5 0-1.5 0-1.5 1.6s0 1.6 1.6 1.6c1.5 0 1.5 0 1.5-1.6zm2.7 26.4v1.6c-.1 1.5-1.2 2.6-2.7 2.7h-3.1c-1.5-.1-2.7-1.3-2.7-2.8v-3c0-1.6 1.2-2.8 2.8-2.8h3c1.5 0 2.6 1.1 2.7 2.6v1.7zm-2.7 1.6v-3.2h-2.7c-.2 0-.4.3-.4.4v2.3c0 .2.2.4.3.4.9.1 1.8.1 2.8.1zM17.3 16v1.7c-.1 1.4-1.2 2.5-2.7 2.6h-3c-1.6 0-2.8-1.2-2.8-2.8v-3c0-1.6 1.1-2.7 2.7-2.8 1-.1 2.1 0 3.1 0 1.5.1 2.6 1.2 2.7 2.7V16zm-5.8 0c0 1.7 0 1.7 1.6 1.7s1.6 0 1.6-1.6 0-1.6-1.6-1.6c-1.6-.1-1.6-.1-1.6 1.5zm5.8 53v1.5c-.1 1.6-1.2 2.7-2.8 2.7h-3c-1.5 0-2.7-1.2-2.7-2.8v-2.8c0-1.6 1.2-2.8 2.8-2.9h2.8c1.6 0 2.7 1.1 2.8 2.7.1.5.1 1 .1 1.6zm-2.7 0c0-1.6 0-1.6-1.5-1.6-1.6 0-1.6 0-1.6 1.6s0 1.6 1.6 1.6c1.5 0 1.5 0 1.5-1.6zm13.8-28.1h-6.3c-1 0-1.6-.5-1.6-1.3s.6-1.3 1.6-1.3h12.7c.6 0 1.2.2 1.4.8.1.4.1 1-.1 1.3-.2.3-.8.6-1.2.6-2.2-.1-4.3-.1-6.5-.1zm0 26.4h-6.3c-1 0-1.5-.5-1.5-1.3s.6-1.4 1.5-1.4h12.8c.9 0 1.5.6 1.5 1.4 0 .8-.6 1.3-1.5 1.3h-6.5zm0-52.9h-6.3c-1 0-1.6-.5-1.6-1.3s.6-1.3 1.6-1.4h12.7c.6 0 1.2.2 1.4.8.1.4.1 1-.1 1.3-.2.3-.8.6-1.2.6-2.2.1-4.4 0-6.5 0z"/></svg>