<svg version="1.1" id="Слой_1" xmlns="http://www.w3.org/2000/svg" x="0" y="0" viewBox="0 0 84 84" xml:space="preserve"><style>.st0{fill:#1a237e}</style><path class="st0" d="M0 41.7v-1.5C.5 39 1.1 38 2.4 37.6c.5-.2 1-.2 1.6-.3-.1-.8-.2-1.6-.4-2.5-.6-3.4 1.4-5.9 4.9-5.9h18.4c2.1 0 3.8.8 5.2 2.4 1.5 1.8 3.1 3.6 4.7 5.5.3.4.7.6 1.2.6h28.8c2.1 0 3.5 1.3 3.8 3.3.8 5.3 1.6 10.7 2.4 16 1.1 7.6 2.3 15.3 3.4 22.9.3 2-.8 3.7-2.8 4.2-.1 0-.2.1-.3.1h-63c-.1 0-.2-.1-.3-.1-2.4-.6-3.6-1.9-4-4.3-.8-5.2-1.6-10.3-2.4-15.5-1-6-1.9-12.1-2.9-18.2-.2-1.4-.5-2.7-.7-4.1zm84-6c-.2 1.4-.5 2.9-.7 4.3-.9 5.8-1.7 11.5-2.6 17.3-.6 3.8-1.1 7.6-1.7 11.4-1.8-12.3-4-24.6-5-37.1h6.2c1.9 0 3.1.9 3.7 2.8 0 .1.1.2.1.3v1zM24.2 24.9h-6V4.3c0-2.7 1.5-4.2 4.2-4.2h43.8c2.6 0 4 1.4 4 3.9v27.8c0 .7-.1 1-.9.9-1.3-.1-2.6 0-3.9 0h-.8V5.6H24.1c.1 6.4.1 12.8.1 19.3z"/><path class="st0" d="M44.2 17.8H32.8c-1.2 0-2.1-.6-2.7-1.7-.5-1.1-.4-2.2.3-3.1.5-.7 1.3-1.1 2.2-1.1h23.2c1.6 0 2.8 1.3 2.8 3 0 1.6-1.3 2.9-3 3H45.2c-.3-.1-.6-.1-1-.1zm-14.3 7.5c.4-1.6 1.4-2.3 2.9-2.3h22.9c1.7 0 3 1.3 3 2.9 0 1.7-1.2 3-2.9 3H35.9c-.2 0-.5-.1-.6-.2-1.5-1.7-3.3-2.9-5.4-3.4z"/></svg>