<svg xmlns="http://www.w3.org/2000/svg" viewBox="0 0 43.4 50.1"><path d="M41 11l2.4 1.4-2.4 1.3V24h1.6v3.4L40.4 26l-2 1.4V24h1.5v-9.7l-4.4 2.4v-2.1s-6.9-3.7-13.8-3.7c-7 0-13.7 3.8-13.7 3.8v1.2l-8-3.7L21.2 0l16.2 9c0-.1.2-.2.3-.3 3.9-1.8 3.2 1.7 3.2 1.7v.6zm-1.1-1.2c0-.8-.8-.4-1.3-.1l1.3.7v-.6zm-.5 1.7c-.6 0-1 .5-1 1 0 .6.5 1 1 1 .6 0 1-.5 1-1 .1-.6-.4-1-1-1zm-30 3.8s6-3.4 12.2-3.4c6.2 0 12.4 3.3 12.4 3.3v6.9h-.1c1.9 4.9 1.7 10.5 1.6 13.1-.1 2.9-1 5.9-1.2 7.8l.8 7.1h-4.9l-.1-.5c0 .2-.1.3-.1.5h-7.5l3.9-7-1.4-.8v-4.1c6.1-.8 8.1-6.1 8.3-10.1l-2.5.4v1.8h-7.9V29h-1.4v1.3h-7.9v-1.8l-3-.4c.4 4.8 3.6 8.7 8 10.1v4.3l-1.1.3 3.8 7.3h-13l.5-5.1-1-17.2s-.1-3.4 1.7-6.8v-5.7zm14.4 14.2h6.1v-3.1h-6.1v3.1zm-9.3 0h6.1v-3.1h-6.1v3.1zm-.9-2.3v-1.7h7.9v1.8h1.4v-1.8h7.9v1.8l2.5-.4c-.1-1.6-.6-2.8-1.1-3.1-4.7-.4-10.4-.6-14.4-3.9-.3 3.5-3.8 6-7 6.2 0 .2-.1.4-.1.7l2.9.4z" fill="#1a237e"/></svg>