<svg version="1.1" id="Layer_1" xmlns="http://www.w3.org/2000/svg" x="0" y="0" viewBox="0 0 85 100" xml:space="preserve"><style>.st0{fill:#03a9f4}.st1{fill:#fff}</style><path class="st0" d="M84.8 28.6l-3.3 3 1.9 3.9c.1.2.1.5-.1.6-.1.1-.2.1-.3.1-.1 0-.2 0-.3-.1l-3.9-2-3.3 3c-.2.2-.4.2-.7.1-.2-.1-.3-.3-.3-.6l.8-4.3-3.9-2.1c-.2-.1-.3-.3-.3-.6 0-.2.2-.4.5-.4l4.4-.6.8-4.3c0-.2.2-.4.5-.4.2 0 .5.1.6.3l1.9 3.9 4.4-.6c.2 0 .5.1.6.3.2.4.2.7 0 .8zm-9.1 21.7l.8-4.2c0-.2.2-.4.5-.4.2 0 .5.1.6.3l1.9 3.9 4.4-.6c.2 0 .5.1.6.3.1.2.1.5-.1.6l-3.3 3 1.9 3.9c.1.2.1.5-.1.6-.1.1-.2.1-.3.1-.1 0-.2 0-.3-.1l-3.9-2-3.3 3c-.2.2-.4.2-.7.1-.2-.1-.3-.3-.3-.6L75 54l-3.9-2c-.2-.1-.3-.3-.3-.6 0-.2.2-.4.5-.4l4.4-.7zm-10.6-37l1.9 3.9c.1.2.1.5-.1.6-.1.1-.2.1-.3.1-.1 0-.2 0-.3-.1l-3.9-2-3.3 3c-.2.2-.4.2-.7.1-.2-.1-.3-.3-.3-.6l.8-4.3-3.9-2c-.2-.1-.3-.3-.3-.6 0-.2.2-.4.5-.4l4.4-.6.8-4.3c0-.2.2-.4.5-.4.2 0 .5.1.6.3l1.9 3.9 4.4-.6c.2 0 .5.1.6.3.1.2.1.5-.1.6l-3.2 3.1z"/><path class="st1" d="M62.8 99.8H48.2V23.3l14.6 9.5zM11.1 67.2l1.1-.5V54.6l12-5.3v12.5l1.6-.7v12.6l2.6-1.7V34.5l18.1-11.4v76.7H11.1z"/><path class="st0" d="M37.9 72.1l6.5-4v-5.4l-6.5 4.1zm0-8.7l6.5-4V54l-6.5 4.2zm0-8.6l6.5-4v-5.4l-6.5 4.1zm0-8.7l6.5-4v-5.4l-6.5 4.1zm0-8.6l6.5-4V28l-6.5 4.2zm-7.4 39.2l5.6-3.5V68l-5.6 3.5zm0-8.7l5.6-3.4v-5.3l-5.6 3.6zm0-8.6l5.6-3.5v-5.3l-5.6 3.6zm0-8.7l5.6-3.5V42l-5.6 3.6zm0-8.7l5.6-3.4v-5.3l-5.6 3.6zM19.1 81.5l4.1-1.8v-4.8l-4.1 1.8zm0-7.3l4.1-1.8v-4.8l-4.1 1.8zm-.5-7.1l4.1-1.7v-4.8l-4.1 1.8zm-.3-7.7l4.1-1.8v-4.8l-4.1 1.8zm-4.6 24.4l4.1-1.8v-4.8L13.7 79zm0-7.4l4.1-1.7v-4.8l-4.1 1.8zm-.1-6.9l4.1-1.8v-4.8l-4.1 1.8zm-.3-7.8l4.1-1.8v-4.8l-4.1 1.8zm28.3-54l1.9 3.9c.1.2.1.5-.1.6-.1.1-.2.1-.3.1-.1 0-.2 0-.3-.1l-3.9-2-3.3 3c-.2.2-.4.2-.7.1-.2-.1-.3-.3-.3-.6l.8-4.3-3.9-2c-.2-.1-.3-.3-.3-.6 0-.2.2-.4.5-.4l4.4-.6.9-4.2c0-.2.2-.4.5-.4.2 0 .5.1.6.3L40 4.4l4.4-.6c.2 0 .5.1.6.3.1.2.1.5-.1.6l-3.3 3zM21.5 18.9l1.9 3.9c.1.2.1.5-.1.6-.2.2-.4.2-.7.1l-3.9-2-3.3 3c-.1.1-.2.1-.3.1-.1 0-.2 0-.3-.1-.2-.1-.3-.3-.3-.6l.8-4.3-3.9-2c-.2-.1-.3-.3-.3-.6 0-.2.2-.4.5-.4L16 16l.8-4.2c0-.2.2-.4.5-.4.2 0 .5.1.6.3l1.9 3.9 4.4-.6c.2 0 .5.1.6.3.1.2.1.5-.1.6l-3.2 3zm-7.7 18.3c.1.2.1.5-.1.6l-3.3 3 1.9 3.9c.1.2.1.5-.1.6-.2.2-.4.2-.7.1l-3.9-2.1-3.3 3c-.1.1-.2.1-.3.1-.1 0-.2 0-.3-.1-.2-.1-.3-.3-.3-.6l.8-4.2-3.9-2c-.2 0-.3-.2-.3-.5 0-.2.2-.4.5-.4l4.4-.6.8-4.3c0-.2.2-.4.5-.4.2 0 .5.1.6.3l1.9 3.9 4.4-.6c.3 0 .6.1.7.3z"/><path class="st1" d="M80.1 99.8H64V64l16.1 6.6z"/><path class="st0" d="M71.5 71.1l-5.4-2v4.7l5.4 1.5zm0 8.1l-5.4-1.9v4.6l5.4 1.6zm1.4 4.7l5.5 1.6v-4.3l-5.5-2zM78.4 73l-5.5-1.9v4.6l5.5 1.6z"/></svg>