<svg xmlns="http://www.w3.org/2000/svg" viewBox="0 0 43.4 45"><path d="M33.7 10.1c.9 0 1.7-.2 2.5-.7l7.2-4.3V3l-8.1 4.8c-.6.4-1.3.6-2 .5H22.6c-.5-.2-1-.3-1.1-.4-3.3-.8-6-.5-7.7 0-1.3.4-2.8.2-4-.4L0 3v18.2l1 .6c1.5.8 2.7 2.1 3.4 3.7l-.6.5C2.3 27 2 29.2 3 30.8c.6.8 1.4 1.2 2.3 1.4h.4c.3 0 .6 0 .9-.1 0 .8.2 1.5.6 2.1.6.9 1.6 1.3 2.6 1.3h.8c-.1.8.1 1.7.6 2.4.6.8 1.4 1.2 2.3 1.4h.4c.8 0 1.6-.2 2.2-.7l.3-.3c.1.5.2 1 .5 1.4.5.6 1.1 1.1 2 1.2h.3c.6 0 1.3-.2 1.9-.6h.1l.4.6c.7 1 2.2 1.3 3.2.6.8-.6 1.2-1.8.8-2.8l.1.1c.7 1 1.9 1.4 3 1 1.2-.5 1.7-1.9 1.4-3 .8.9 2.2 1.1 3.2.4l.1-.1c1-.7 1.3-2.1.8-3.2.9.8 2.3 1 3.3.2 1.2-.9 1.5-2.6.6-3.8l-1.3-1.8 2.8-3.3c.7-.9 1.6-1.6 2.5-2.2l1.4-.8V20l-1.9 1.1c-1.1.6-2 1.4-2.8 2.4l-3 3.5c-.9-.8-2.3-1-3.3-.2-1.2.9-1.5 2.6-.6 3.8v.1h-.1c-.8-.6-2-.7-2.9 0l-.1.1c-.8.6-1.2 1.5-1 2.5l-.3.2c-.8-.4-1.8-.4-2.6.1-.7.5-1.1 1.4-1 2.3l-.8.5c-.6-.1-1.2 0-1.8.3-.6.5-1 1.2-1 1.9l-.4.3c-.2.2-.6.3-.9.2-.3-.1-.6-.3-.8-.5-.2-.2-.3-.6-.2-1 .1-.3.2-.7.5-.9l4.2-3.3c.2-.2.3-.4.4-.6 0-.5-.4-.9-.9-.9-.2 0-.3 0-.5.1l-6.8 5c-.4.3-.8.4-1.3.3-.5-.1-.9-.3-1.2-.7-.6-.8-.4-1.9.4-2.5l8.1-5.9c.2-.2.3-.4.3-.7 0-.5-.4-.9-.8-.9-.3 0-.5.1-.7.3L12 33c-.2.1-.3.3-.5.4-1 .6-2.4.5-2.9-.2s-.4-1.7.2-2.4l.8-.6 8.8-6.1c.2-.2.3-.4.4-.6 0-.3-.1-.6-.4-.8-.3-.2-.6-.2-1 0L8 29.3l-.2.2-.9.7c-.7.6-1.9.4-2.4-.4-.6-.8-.4-1.9.4-2.5l17.8-13.4c1.4.9 2.5 2.6 2.5 2.6 1.7 5.6 3.9 5.6 5.2 5 .7-.3 1-1.2.8-1.9-.7-2.2-1.1-6.3-1.1-6.3-.5-1.1-2.1-2.2-3.8-3.1l5.7.1 1.7-.2z" fill="#1b1f7a"/></svg>