<svg width="151" height="151" viewBox="0 0 151 151" fill="none" xmlns="http://www.w3.org/2000/svg">
<circle cx="75.5" cy="75.5" r="63.5" fill="#009EE1"/>
<circle cx="75.5" cy="75.5" r="75" stroke="#B5DCED"/>
<g clip-path="url(#clip0)">
<path d="M79.0042 45.4545L46.95 40.5837C45.4625 40.3504 43.9458 40.7587 42.8083 41.7212C41.6708 42.7129 41 44.142 41 45.6295V107.084C41 108.688 42.3125 110 43.9167 110H53.3958V94.6879C53.3958 91.8587 55.6708 89.5837 58.5 89.5837H65.7917C68.6208 89.5837 70.8958 91.8587 70.8958 94.6879V110H83.2917V50.5004C83.2917 47.992 81.4833 45.8629 79.0042 45.4545ZM57.0417 83.0212H52.6667C51.4592 83.0212 50.4792 82.0412 50.4792 80.8337C50.4792 79.6262 51.4592 78.6462 52.6667 78.6462H57.0417C58.2492 78.6462 59.2292 79.6262 59.2292 80.8337C59.2292 82.0412 58.2492 83.0212 57.0417 83.0212ZM57.0417 74.2712H52.6667C51.4592 74.2712 50.4792 73.2912 50.4792 72.0837C50.4792 70.8762 51.4592 69.8962 52.6667 69.8962H57.0417C58.2492 69.8962 59.2292 70.8762 59.2292 72.0837C59.2292 73.2912 58.2492 74.2712 57.0417 74.2712ZM57.0417 65.5212H52.6667C51.4592 65.5212 50.4792 64.5412 50.4792 63.3337C50.4792 62.1262 51.4592 61.1462 52.6667 61.1462H57.0417C58.2492 61.1462 59.2292 62.1262 59.2292 63.3337C59.2292 64.5412 58.2492 65.5212 57.0417 65.5212ZM57.0417 56.7712H52.6667C51.4592 56.7712 50.4792 55.7912 50.4792 54.5837C50.4792 53.3762 51.4592 52.3962 52.6667 52.3962H57.0417C58.2492 52.3962 59.2292 53.3762 59.2292 54.5837C59.2292 55.7912 58.2492 56.7712 57.0417 56.7712ZM71.625 83.0212H67.25C66.0425 83.0212 65.0625 82.0412 65.0625 80.8337C65.0625 79.6262 66.0425 78.6462 67.25 78.6462H71.625C72.8325 78.6462 73.8125 79.6262 73.8125 80.8337C73.8125 82.0412 72.8325 83.0212 71.625 83.0212ZM71.625 74.2712H67.25C66.0425 74.2712 65.0625 73.2912 65.0625 72.0837C65.0625 70.8762 66.0425 69.8962 67.25 69.8962H71.625C72.8325 69.8962 73.8125 70.8762 73.8125 72.0837C73.8125 73.2912 72.8325 74.2712 71.625 74.2712ZM71.625 65.5212H67.25C66.0425 65.5212 65.0625 64.5412 65.0625 63.3337C65.0625 62.1262 66.0425 61.1462 67.25 61.1462H71.625C72.8325 61.1462 73.8125 62.1262 73.8125 63.3337C73.8125 64.5412 72.8325 65.5212 71.625 65.5212ZM71.625 56.7712H67.25C66.0425 56.7712 65.0625 55.7912 65.0625 54.5837C65.0625 53.3762 66.0425 52.3962 67.25 52.3962H71.625C72.8325 52.3962 73.8125 53.3762 73.8125 54.5837C73.8125 55.7912 72.8325 56.7712 71.625 56.7712Z" fill="white"/>
<path d="M106.974 71.6222L86.2073 67.2734V110H105.895C108.709 110 110.999 107.71 110.999 104.896V76.6097C110.999 74.2005 109.357 72.1501 106.974 71.6222ZM100.061 101.25H95.6864C94.4789 101.25 93.4989 100.27 93.4989 99.0622C93.4989 97.8547 94.4789 96.8747 95.6864 96.8747H100.061C101.269 96.8747 102.249 97.8547 102.249 99.0622C102.249 100.27 101.269 101.25 100.061 101.25ZM100.061 92.4997H95.6864C94.4789 92.4997 93.4989 91.5197 93.4989 90.3122C93.4989 89.1047 94.4789 88.1247 95.6864 88.1247H100.061C101.269 88.1247 102.249 89.1047 102.249 90.3122C102.249 91.5197 101.269 92.4997 100.061 92.4997ZM100.061 83.7497H95.6864C94.4789 83.7497 93.4989 82.7697 93.4989 81.5622C93.4989 80.3547 94.4789 79.3747 95.6864 79.3747H100.061C101.269 79.3747 102.249 80.3547 102.249 81.5622C102.249 82.7697 101.269 83.7497 100.061 83.7497Z" fill="white"/>
</g>
<defs>
<clipPath id="clip0">
<rect width="70" height="70" fill="white" transform="translate(41 40)"/>
</clipPath>
</defs>
</svg>
