<svg width="151" height="151" viewBox="0 0 151 151" fill="none" xmlns="http://www.w3.org/2000/svg">
<circle cx="75.5" cy="75.5" r="63.5" fill="#009EE1"/>
<circle cx="75.5" cy="75.5" r="75" stroke="#B5DCED"/>
<path d="M74.2614 57.3701C74.6362 56.7705 75.2934 56.4062 76.0005 56.4062C76.7076 56.4062 77.3648 56.7705 77.7396 57.3701C79.5025 60.191 82.541 61.875 85.8675 61.875H87.6216V57.0898C87.6216 52.1897 83.635 48.2031 78.7349 48.2031H73.2661C68.366 48.2031 64.3794 52.1897 64.3794 57.0898V61.875H66.1335C69.46 61.875 72.4984 60.191 74.2614 57.3701Z" fill="white"/>
<path d="M71.2153 87.1066V91.2699C71.2153 93.9127 73.3577 96.0551 76.0005 96.0551C78.6433 96.0551 80.7856 93.9127 80.7856 91.2699V87.1064C79.2761 87.5899 77.6683 87.852 76.0005 87.852C74.3325 87.852 72.7248 87.59 71.2153 87.1066Z" fill="white"/>
<path d="M78.0513 77.598C78.0513 76.4654 78.9695 75.5472 80.102 75.5472H87.1077C87.4411 74.4659 87.6214 73.318 87.6214 72.1286V65.9769H85.8673C82.0779 65.9769 78.5503 64.4466 76.0003 61.7822C73.4505 64.4466 69.9229 65.9769 66.1335 65.9769H64.3794V72.1292C64.3794 78.5371 69.5926 83.7503 76.0005 83.7503C79.5423 83.7503 82.7169 82.1556 84.8502 79.6488H80.102C78.9695 79.6488 78.0513 78.7306 78.0513 77.598Z" fill="white"/>
<path d="M88.3052 89.2188H84.8872V91.2695C84.8872 96.1697 80.9006 100.156 76.0005 100.156C71.1004 100.156 67.1138 96.1697 67.1138 91.2695V89.2188H63.6958C57.2879 89.2188 52.0747 94.432 52.0747 100.84V107.949C52.0747 109.082 52.9929 110 54.1255 110H60.4146V104.941C60.4146 103.809 61.3328 102.891 62.4653 102.891C63.5979 102.891 64.5161 103.809 64.5161 104.941V110H87.6216V104.941C87.6216 103.809 88.5398 102.891 89.6724 102.891C90.8049 102.891 91.7231 103.809 91.7231 104.941V110H97.8755C99.0081 110 99.9263 109.082 99.9263 107.949V100.84C99.9263 94.432 94.7131 89.2188 88.3052 89.2188Z" fill="white"/>
<path d="M57.5435 72.8125H60.2778V61.875H58.9106V61.1914C58.9106 51.7681 66.5771 44.1016 76.0005 44.1016C85.4238 44.1016 93.0903 51.7681 93.0903 61.1914V61.875H91.7231V74.8633C91.7231 75.2402 91.4165 75.5469 91.0395 75.5469H87.1077C86.6375 77.0714 85.8601 78.4616 84.8502 79.6484H91.0395C93.6781 79.6484 95.8247 77.5018 95.8247 74.8633V72.4436C96.6412 71.9707 97.1919 71.0896 97.1919 70.0781V61.1914C97.1919 49.5063 87.6854 40 76.0005 40C64.3155 40 54.8091 49.5063 54.8091 61.1914V70.0781C54.8091 71.5883 56.0333 72.8125 57.5435 72.8125Z" fill="white"/>
</svg>
