<svg width="151" height="151" viewBox="0 0 151 151" fill="none" xmlns="http://www.w3.org/2000/svg">
<circle cx="75.5" cy="75.5" r="63.5" fill="#009EE1"/>
<circle cx="75.5" cy="75.5" r="75" stroke="#B5DCED"/>
<path d="M106.4 49.7968C106.274 48.8943 105.625 48.1519 104.747 47.9079L76.6128 40.0837C76.2117 39.9721 75.788 39.9721 75.3866 40.0837L47.2524 47.9079C46.3746 48.1519 45.7252 48.894 45.5996 49.7968C45.4364 50.9702 41.7137 78.6944 51.2621 92.4864C60.7992 106.262 74.8684 109.792 75.4626 109.936C75.6392 109.979 75.8191 110 75.9997 110C76.1803 110 76.3602 109.978 76.5368 109.936C77.1313 109.792 91.2005 106.262 100.737 92.4864C110.286 78.6948 106.563 50.9705 106.4 49.7968ZM94.1427 65.9825L74.9523 85.1729C74.5058 85.6194 73.9201 85.843 73.3348 85.843C72.7495 85.843 72.1639 85.6197 71.7173 85.1729L59.8521 73.3077C59.423 72.8788 59.182 72.2968 59.182 71.6902C59.182 71.0835 59.4233 70.5016 59.8521 70.0727L62.208 67.7168C63.1014 66.8237 64.5499 66.8234 65.443 67.7168L73.3348 75.6087L88.5518 60.3914C88.9807 59.9622 89.5626 59.7212 90.1693 59.7212C90.7759 59.7212 91.3579 59.9622 91.7868 60.3914L94.1427 62.7473C95.036 63.6406 95.036 65.0891 94.1427 65.9825Z" fill="white"/>
</svg>
