<svg width="70" height="70" viewBox="0 0 70 70" fill="none" xmlns="http://www.w3.org/2000/svg">
<g clip-path="url(#clip0)">
<path d="M68.6316 17.5489L35.6824 5.92354C35.2409 5.76768 34.7592 5.76768 34.3178 5.92354L1.36856 17.5489C0.549338 17.8379 0.00109539 18.6117 1.63885e-06 19.4804C-0.00109211 20.3491 0.545373 21.1242 1.36391 21.4151L34.3131 33.1288C34.5353 33.2078 34.7677 33.2473 35 33.2473C35.2324 33.2473 35.4647 33.2078 35.6869 33.1288L68.6361 21.4151C69.4546 21.1242 70.001 20.3491 70 19.4804C69.9989 18.6117 69.4507 17.8379 68.6316 17.5489Z" fill="#00ABF4"/>
<path d="M65.0747 44.9225V27.0342L60.9731 28.4923V44.9225C59.7378 45.6335 58.9053 46.9659 58.9053 48.4937C58.9053 50.0214 59.7378 51.3538 60.9731 52.0649V62.1433C60.9731 63.2759 61.8914 64.1941 63.0239 64.1941C64.1565 64.1941 65.0747 63.2759 65.0747 62.1433V52.0651C66.3101 51.3541 67.1426 50.0215 67.1426 48.4938C67.1426 46.966 66.3102 45.6335 65.0747 44.9225Z" fill="#00ABF4"/>
<path d="M34.9979 37.3487C34.2939 37.3487 33.6006 37.2291 32.9371 36.9933L14.4141 30.4082V39.4327C14.4141 41.6406 16.7174 43.5078 21.26 44.9822C25.2195 46.2673 30.0984 46.9751 34.9979 46.9751C39.8973 46.9751 44.7762 46.2673 48.7358 44.9822C53.2784 43.5078 55.5817 41.6406 55.5817 39.4327V30.4082L37.0588 36.9933C36.3952 37.2291 35.7019 37.3487 34.9979 37.3487Z" fill="#00ABF4"/>
</g>
<defs>
<clipPath id="clip0">
<rect width="70" height="70" fill="white"/>
</clipPath>
</defs>
</svg>
