<svg version="1.1" id="Layer_1" xmlns="http://www.w3.org/2000/svg" x="0" y="0" viewBox="0 0 85 83" xml:space="preserve"><style>.st0{fill:#fff}.st1{fill:#03a9f4}</style><path class="st0" d="M23.5 22c-1.4 1-2.5 2.3-3.4 3.7l2.7-.6c.2-1.1.4-2.2.7-3.1zm-.8 5.7l-3.9.9c-.5 1.6-.6 3.3-.4 5.1l4.8-1.1c-.3-1.7-.4-3.3-.5-4.9zm15.2-6c-1.4-.9-3-1.6-4.6-1.9.7.7 1.3 1.6 1.9 2.5l2.7-.6zM24 42.7c1.4.9 3 1.6 4.6 1.9-.7-.7-1.3-1.6-1.9-2.5l-2.7.6zm11.6-12.9c-.5-1.7-1.1-3.3-1.7-4.6l-8.5 1.9c0 1.5.1 3.2.4 4.9l9.8-2.2zm-7.5-9.9c-1.2.3-2.2 2-2.6 4.6l7-1.6c-1.5-2.2-3.2-3.3-4.4-3zm-4.3 15.2L19 36.2c.6 1.7 1.5 3.2 2.6 4.4l3.9-.9c-.7-1.4-1.2-2.9-1.7-4.6zM38 29.2l4.8-1.1c-.6-1.7-1.5-3.2-2.6-4.4l-3.9.9c.7 1.4 1.3 3 1.7 4.6zm-4.3 15.3c1.2-.3 2.2-2 2.6-4.6l-7 1.6c1.6 2.1 3.2 3.2 4.4 3zm5.4-7.9l3.9-.9c.5-1.6.6-3.3.4-5.1l-4.8 1.1c.3 1.7.5 3.4.5 4.9zM23.3 58l-2.1.5.9 4 2.1-.5c1.7-.4 2.4-1.3 2.1-2.6-.3-1.3-1.3-1.7-3-1.4zm7.9 2.9l2.9-.7-2.2-2.9-.7 3.6zm0 0"/><path class="st0" d="M44.9.2L4.4 9.4c-3.1.7-5 3.8-4.3 6.8l13.6 59.3c.7 3.1 3.8 5 6.8 4.3L61 70.6c3.1-.7 5-3.8 4.3-6.8L51.7 4.5C51 1.4 48-.5 44.9.2zM27.6 17.4c8.1-1.9 16.3 3.3 18.1 11.4 1.9 8.1-3.2 16.3-11.4 18.1-8.1 1.9-16.3-3.3-18.1-11.4-1.9-8.1 3.2-16.2 11.4-18.1zm-5 47.1l.5 2.3c.1.5-.2 1-.7 1.1h-.1c-.5.1-1-.2-1.1-.7L19 58c-.1-.5.2-1 .7-1.1l3.1-.7c2.8-.6 4.8.5 5.4 2.9.6 2.5-.8 4.4-3.6 5l-2 .4zm16.2-.7c-.1.3-.4.5-.7.6H38c-.4.1-.7-.1-1-.3L35.4 62l-4.7 1-.5 2.6c-.1.4-.4.7-.7.7h-.1c-.3.1-.6 0-.9-.2-.2-.2-.3-.6-.3-.9L30.4 55c.1-.4.4-.7.7-.7h.2c.4-.1.7.1 1 .3l6.5 8.3c.1.2.1.6 0 .9zm4.2-.5c-1.4.3-2.9.1-4.1-.6-.2-.1-.4-.3-.4-.6-.1-.2 0-.5.1-.7v-.1c.3-.4.9-.6 1.3-.3.7.4 1.8.6 2.6.4 1-.2 2.1-.8 1.8-1.7-.2-.9-.8-1-2.6-1.2-1.6-.1-3.8-.3-4.3-2.6-.4-1.8.9-3.3 3.2-3.8 1-.2 2.2-.2 3.1.1.2.1.4.3.6.5.1.2.1.5 0 .7v.1c-.2.5-.7.8-1.2.6-.5-.2-1.3-.2-2 0-.9.2-1.9.7-1.7 1.4.2.8.8 1 2.5 1.1 1.6.1 3.8.3 4.4 2.7.5 1.8-.8 3.4-3.3 4zm8.1-1.9c-1.4.3-2.9.1-4.1-.6-.2-.1-.4-.3-.4-.6-.1-.2 0-.5.1-.7v-.1c.3-.4.9-.6 1.3-.3.7.4 1.8.6 2.6.4 1-.2 2-.8 1.8-1.7-.2-.9-.8-1-2.6-1.2-1.6-.1-3.8-.3-4.3-2.6-.4-1.8.9-3.3 3.2-3.8 1-.2 2.2-.2 3.1.1.2.1.4.3.6.5.1.2.1.5 0 .7v.1c-.2.5-.7.7-1.2.6-.5-.2-1.3-.2-2 0-.9.2-1.9.7-1.7 1.4.2.8.8 1 2.5 1.1 1.6.1 3.8.3 4.4 2.7.5 1.8-.8 3.5-3.3 4zm0 0"/><path class="st0" d="M26.3 34.5c.5 1.7 1.1 3.3 1.7 4.6l8.5-1.9c0-1.5-.1-3.2-.4-4.9l-9.8 2.2zm12.1 7.8c1.4-1 2.5-2.3 3.4-3.7l-2.8.6c-.1 1.2-.3 2.2-.6 3.1zm0 0"/><path class="st1" d="M67 29.6c-1.1-1.3-2.4-2.3-4-3.1.4.9.8 1.9 1.1 2.9l2.9.2zm-2 7.3l5 .3c-.1-1.8-.5-3.4-1.3-4.9l-4-.2c.2 1.4.4 3 .3 4.8zm-.9 7.3l4 .2c.9-1.4 1.5-3 1.8-4.8l-5-.3c-.2 1.8-.4 3.5-.8 4.9zm4.8 25.2c1 .1 2.2-.2 2.2-1.1.1-.9-.5-1.2-2.1-1.8-.2-.1-.5-.2-.7-.3v.2c.2 1 .1 2-.2 2.9.3.1.5.1.8.1z"/><path class="st1" d="M79.6 10.8L55.3 9.5l3 13.1c8.3.5 14.6 7.6 14.2 15.9-.3 5.4-3.3 9.9-7.7 12.4l2.2 9.6c.7-.4 1.6-.6 2.7-.6 1 .1 2.1.4 2.9.9.2.1.4.4.4.6 0 .3 0 .5-.2.7v.1c-.3.4-.9.5-1.3.2-.5-.3-1.2-.6-1.9-.6-.9 0-2 .2-2 .9 0 .2 0 .4.1.5.2.5.8.8 2 1.2 1.5.5 3.6 1.3 3.4 3.8-.1 1.9-1.8 3.1-4.3 3-.6 0-1.3-.2-1.9-.5-.6.6-1.4 1-2.2 1.2l-33.3 7.6c.8.6 1.8.9 2.9 1L75.8 83c3.1.2 5.8-2.3 6-5.4L85 16.8c.2-3.1-2.3-5.8-5.4-6z"/><path class="st1" d="M59 25.5l.8 3.7 1.5.1c-.5-1.9-1.4-3.2-2.3-3.8zm4.9 21.3l.3 1.5c.6-.4 1.3-.9 1.8-1.4l-2.1-.1zm-3.4-15l1.1 4.9h.9c0-1.8-.1-3.4-.4-4.9h-1.6z"/></svg>