<svg version="1.1" id="Layer_1" xmlns="http://www.w3.org/2000/svg" x="0" y="0" viewBox="0 0 85 67" xml:space="preserve"><style>.st0,.st1{fill-rule:evenodd;clip-rule:evenodd;fill:#fff}.st1{fill:#03a9f4}</style><path class="st0" d="M42.5 33.5c7.5 0 13.2-8.1 13.2-16.5v-2.6C55.7 6 49.9.1 42.5.1 35 .1 29.3 6 29.3 14.4V17c0 8.5 5.7 16.5 13.2 16.5z"/><path class="st1" d="M16 36.2c2.1 0 8-2.9 8-8.9v-4.4c0-6-4.2-8.9-8-8.9-3.6 0-8 2.9-8 8.9v4.4c0 6.1 5.9 8.9 8 8.9z"/><path class="st0" d="M63.7 47.4v-.1l-.3-1.5c-.3-1.1-.7-2.1-1.4-3.1-1.1-1.7-2.9-3.4-5.7-5-1.5-.9-2.1-1.3-3.1-1.3-1.5 0-2.7 1.2-4.9 3.3l-2 1.9c-.1.1-2.2 3.2-3.8 3.2-1.6 0-3.7-3.1-3.8-3.2l-2-1.9c-2.2-2.1-3.4-3.3-4.9-3.3-.9 0-1.7.4-3.1 1.3-2.7 1.8-4.6 3.4-5.7 5-.7 1-1.2 2-1.4 3.1l-.3 1.5v.1c-.1.6-.1 1.1-.1 1.7v12.2c0 4 1.4 5.6 5.3 5.6h31.9c3.9 0 5.3-1.5 5.3-5.6V47.4z"/><path class="st1" d="M69.1 36.2c2.1 0 8-2.9 8-8.9v-4.4c0-6-4.2-8.9-8-8.9-3.6 0-8 2.9-8 8.9v4.4c0 6.1 6 8.9 8 8.9zM6 42.3C1.1 45.2 0 49.9 0 53v5.6c0 4 1.3 5.6 5.3 5.6h10.6V47.4l-2.7-2.8C10.5 42 8.1 41 6 42.3z"/><path class="st0" d="M15.9 47.4c.1 0 0-1.3 0 0z"/><path class="st1" d="M85 53c0-3.1-1.1-7.7-6-10.7-2.1-1.2-4.4-.2-7.2 2.4l-2.7 2.8v16.7h10.6c4 0 5.3-1.5 5.3-5.6V53z"/><path class="st0" d="M69.1 47.4c0-1.3-.1 0 0 0z"/></svg>