<svg xmlns="http://www.w3.org/2000/svg" viewBox="0 0 43.4 32.3"><path d="M39.6 28.3c-2.5 2.5-5.8 3.9-9.4 3.9h-.4c-3-.1-6-1.2-8.3-3.2-2.9-2.5-4.6-6.2-4.6-10.1 0-2.2.6-4.3 1.5-6.2.7.6 1.2 1.2 1.6 1.9.4.6.7 1.3.9 1.9-.2.8-.3 1.6-.3 2.4 0 2.6 1.1 5.2 3 6.9 1.7 1.6 4.1 2.6 6.5 2.6 5.2 0 9.5-4.3 9.5-9.5s-4.2-9.5-9.5-9.5c-1.8 0-3.4.5-4.9 1.4-.7-1.1-1.6-2-2.6-2.9 2.1-1.5 4.7-2.2 7.4-2.2 3.5 0 6.8 1.4 9.4 3.9 2.5 2.5 3.9 5.8 3.9 9.4.1 3.4-1.2 6.8-3.7 9.3zm-13.2-8.1c-.2 1.7-.7 3.3-1.4 4.9-1-.8-1.8-1.9-2.2-3.1l-.3-.7c.6-2.2.3-4.7-.8-6.8-1-1.9-2.7-3.5-4.7-4.3-.1-.1-.2-.1-.3-.1l2.7-2.9c.6.3 1.2.7 1.8 1.2 3.3 2.5 5.3 6.5 5.3 10.6 0 .3 0 .8-.1 1.2zM15.2 9.6l-1.1 1.2c-.3.3-.6.4-.9.4-.3 0-.6-.2-.9-.4L6.5 4.5c-.4-.4-.4-1-.2-1.4L8 .6c.2-.4.6-.6.9-.6h8.5c.4 0 .8.2 1 .6L20 3.2c.3.5.3 1.1-.2 1.4l-4.6 5zm-5.4.4c-3.5 1.4-6.1 4.9-6.1 8.9 0 5.3 4.2 9.5 9.5 9.5 1.7 0 3.4-.5 4.8-1.3.5.7 1.1 1.4 1.7 2.1.3.3.6.6.9.8-2.1 1.4-4.7 2.2-7.3 2.2-3.5 0-6.8-1.4-9.4-3.9C1.4 25.9 0 22.5 0 19c0-3.5 1.4-6.9 3.9-9.4 1-1 2-1.8 3.2-2.4L9.8 10z" fill="#1a237e"/></svg>