<svg xmlns="http://www.w3.org/2000/svg" viewBox="0 0 90 68"><path d="M21.3 30.3h5.2v30H34V34.1h7.5v26.1h7.3V34.1h7.5v26.1h7.5V30.3H69c.7 0 1.2-.3 1.7-.8.4-.4.7-1.1.8-1.7 0-.8-.3-1.6-.9-2v-.2h.2L47.3 13.3V9.7c1.2.7 3.2.7 5.9.2 2.5-.4 5-.3 7.3.4V2.5c-2.4-.8-4.8-.9-7.3-.3-2.9.5-4.8.3-5.9-.3v-.4C46.8.7 46.3.3 45 .3s-1.8.4-1.8 1.2v11.7L19.6 25.4h1.1c-.9 0-1.6.8-1.5 1.7v.5c0 1.8.7 2.7 2.1 2.7zm3 31.8l-5.5 5.6h52.3l-5.5-5.6H24.3zm41.4-29.9v28h1.7l.8 1.1 4.9 4.6 1.8 1.8H90V32.2H65.7zm11.1 22.4h-5.6v-5.5h5.6v5.5zm0-11.1h-5.6v-5.6h5.6v5.6zm7.6 11.1h-3.6v-5.5h3.6v5.5zm0-11.1h-3.6v-5.6h3.6v5.6zM22.7 60.2h1.7V32.3H0v35.4h15.2L17 66l4.9-4.7.8-1.1zM9.3 54.6H5.6v-5.5h3.6v5.5h.1zm0-11.1H5.6v-5.6h3.6v5.6h.1zm9.6 11.1h-5.6v-5.5h5.6v5.5zm0-11.1h-5.6v-5.6h5.6v5.6z" fill="#22287b"/></svg>