<svg version="1.1" id="Слой_1" xmlns="http://www.w3.org/2000/svg" x="0" y="0" viewBox="0 0 75.9 90" xml:space="preserve"><style>.st0{fill:#1b207b}</style><path class="st0" d="M54.7 0c-11.5 0-21 7.5-21 17 0 5.5 3.2 10.3 8.3 13.2-.3 2.9-2 6.1-4.3 8.3 5.5-.3 10.3-2 13.5-5.2 1.1.3 2.3.3 3.4.3 11.8 0 21.2-7.4 21.2-16.6.1-9.5-9.4-17-21.1-17zM45 20.1c-2 0-3.4-1.4-3.4-3.2 0-2 1.4-3.5 3.4-3.5 1.7 0 3.2 1.4 3.2 3.5-.1 1.7-1.6 3.2-3.2 3.2zm9.7 0c-1.7 0-3.2-1.4-3.2-3.2 0-2 1.4-3.5 3.2-3.5 2 0 3.2 1.4 3.2 3.5 0 1.7-1.2 3.2-3.2 3.2zm9.8 0c-1.7 0-3.2-1.4-3.2-3.2 0-2 1.4-3.5 3.2-3.5 2 0 3.4 1.4 3.4 3.5 0 1.7-1.5 3.2-3.4 3.2zm-.6 48.2c-2.7-1.7-6-3-9.7-3.3l-2.4 2.4c-.2.2-.3.2-.5.4.2.2.5.2.8.2 3.8 0 7.6 1.1 10 3.1 2.7 1.7 4.1 3.8 4.1 6.2v.6c0 2.4-1.1 4.5-3.5 6.2-2.7 1.7-6.2 3.1-10 3.1H52c-3.8-.4-7.2-1.4-9.9-3.1-2.8-2-4.2-4.5-4.2-6.5v-.7c-.7-3.1-2.8-5.9-5.5-7.9-3.1-2.1-7.3-3.5-12.1-3.5-4.5 0-8.6 1.4-11.7 3.5-3.1 2-5.2 5.5-5.2 8.9v.4c0 .7.7 1.4 1.7 1.4.7 0 1.4-.7 1.4-1.7 0-2.4 1.4-4.8 3.8-6.5 2.4-1.7 5.8-2.7 9.9-2.7 4.2 0 8 1.1 10.4 3.1 2.8 1.7 4.2 4.1 4.2 6.5 0 .3 0 .3.3.7.4 3.1 2.4 5.5 5.2 7.6C43.4 89 47.9 90 52.4 90h.3c4.5 0 8.7-1.1 11.8-3.1v-.3c3.1-2 4.9-5.2 4.9-8.7v-.3c0-3.9-2.1-6.9-5.5-9.3z"/><path class="st0" d="M54.1 64.9l3.8-3.8 1.4-1.4c1.4-1.4 1.4-3.8 0-4.8l-9.6-10c-1.4-1.1-3.4-1.1-4.9 0l-2.7 2.7c-1.4 1.4-3.4 1.4-4.9.3-3.1-2.4-6.1-5.2-9-7.9-3.1-3.1-5.8-6.2-8-9-1.4-1.7-1.1-3.8.4-5.2l2.4-2.7c1.4-1.1 1.4-3.1 0-4.5l-9.6-10C12 7.5 10 7.5 8.6 8.6l-7.6 8c-.7.8-1 1.5-1 2.6v1.1c3.1 9.3 10 19.3 19.3 28.9 9.3 9.3 19.7 15.9 29 19 .9.6 2 .4 3-.4.9-.6 2.2-2.2 2.8-2.9z"/></svg>