<svg version="1.1" id="Слой_1" xmlns="http://www.w3.org/2000/svg" x="0" y="0" viewBox="0 0 134 90" xml:space="preserve"><style>.st0{fill:#0d1e80}</style><path class="st0" d="M117.5 61.9l-5.5 8 16.5 11.3 5.5-7.9zm-32.1.5c3.2 6.4 10.2 9.8 16.9 8.8 1.7-.3 3.5-.8 5.2-1.6 8.2-4.2 11.4-14.1 7.2-22.1-3.2-6.4-10.2-9.8-16.9-8.8-1.7.3-3.5.8-5.2 1.6-8.1 4.2-11.4 14.1-7.2 22.1zm9.2-18.1a8.9 8.9 0 013.8-1.2c5.1-.7 10 1.9 12.3 6.4 1.5 2.8 1.7 6.2.7 9.1-.9 3.1-3.1 5.5-6 7a8.9 8.9 0 01-3.8 1.2c-5.1.7-10-1.9-12.3-6.4-1.5-2.8-1.7-6.2-.7-9.1 1-3.1 3.2-5.5 6-7zM50 34.7v.4c0 1.1.4 2 1.1 2C53.7 47.3 61.8 55.7 69 55.7c6.7 0 14.9-8.4 17.4-18.6.5-.1.9-.9.9-2v-.3c.4-.5.8-1.5 1.1-2.7.4-1.3 2-5.6.5-6.6-.5-.5-1.1-.3-1.5.4 0 0 1.9-10.3.5-14.9-3.1-11.1-30-14.2-30-7.4-11.4 3.2-9.2 14.2-7.6 22.5 0 0-.8-1.1-1.9 0-1.2 1.2.1 4.4.7 6 .2 1.2.6 1.9.9 2.6z"/><path class="st0" d="M99 74.7c-9.6 0-17.5-7.8-17.5-17.4v-.9l-.1-.1c-3.3 3.3-7.6 5.6-12.2 5.6-4.8 0-9.1-2.1-12.9-5.6-15.1 8.6-24.9 7.4-29.2 16.9h-.9c-2.8 0-5.4-1.3-7.5-3.2C6.3 76.9 0 72.9 0 89.7h24.5v.3h88.6c0-9.4-1.2-15-3.6-18.6-3 2.1-6.6 3.3-10.5 3.3z"/><path class="st0" d="M15 57.3v.3c0 .7.3 1.2.7 1.2 1.6 6 6.3 11 10.6 11 3.9 0 8.7-5 10.2-11 .3-.1.5-.5.5-1.2v-.1c.3-.3.5-.9.7-1.6.3-.8 1.2-3.2.3-3.9-.3-.3-.7-.1-.9.3 0 0 1.1-6 .3-8.7-1.9-6.6-17.7-8.4-17.7-4.4-6.7 1.9-5.4 8.3-4.4 13.1 0 0-.5-.7-1.1 0-.7.7.1 2.7.4 3.5 0 .7.2 1.1.4 1.5z"/></svg>