<svg width="70" height="70" viewBox="0 0 70 70" fill="none" xmlns="http://www.w3.org/2000/svg">
<g clip-path="url(#clip0)">
<path d="M43.7487 18.958C42.1387 18.958 40.832 17.6513 40.832 16.0413V11.6663H29.1654V16.0413C29.1654 17.6513 27.8587 18.958 26.2487 18.958C24.6387 18.958 23.332 17.6513 23.332 16.0413V11.6663C23.332 8.44926 25.9483 5.83301 29.1654 5.83301H40.832C44.0491 5.83301 46.6653 8.44926 46.6653 11.6663V16.0413C46.6653 17.6513 45.3587 18.958 43.7487 18.958Z" fill="#00ABF4"/>
<path d="M37.0708 44.8583C36.5458 45.0624 35.7875 45.2083 35 45.2083C34.2125 45.2083 33.4542 45.0624 32.7542 44.7999L0 33.8916V56.1458C0 60.5791 3.5875 64.1666 8.02083 64.1666H61.9792C66.4125 64.1666 70 60.5791 70 56.1458V33.8916L37.0708 44.8583Z" fill="#00ABF4"/>
<path d="M70 22.6048V29.284L35.7 40.7173C35.4667 40.8048 35.2333 40.834 35 40.834C34.7667 40.834 34.5333 40.8048 34.3 40.7173L0 29.284V22.6048C0 18.1715 3.5875 14.584 8.02083 14.584H61.9792C66.4125 14.584 70 18.1715 70 22.6048Z" fill="#00ABF4"/>
</g>
<defs>
<clipPath id="clip0">
<rect width="70" height="70" fill="white"/>
</clipPath>
</defs>
</svg>
