<svg xmlns="http://www.w3.org/2000/svg" viewBox="-252 378.9 91 84"><path d="M-165.5 416.9c-2.7 3.7-6.5 6.7-11 8.6l-12.2 13c-.4.5-1.1.7-1.7.7-.3 0-.6-.1-.9-.2-.9-.4-1.5-1.2-1.5-2.2v-9c-4.1-.5-8-1.8-11.3-3.7v.4c-.2 3.4-.2 4.7 1.7 6.1.4.3.6.7.6 1.1 0 .4-.2.9-.6 1.1-1.1.8-3.1 1.2-5.5 1.2-.6 0-1.3 0-1.9-.1 4.3 2.5 13.2 7.8 13.2 16.5v11c0 .8-.6 1.4-1.4 1.4h-52.7c-.8 0-1.4-.6-1.4-1.4v-11c0-8.6 8.9-14 13.2-16.5-.6.1-1.3.1-1.9.1-2.4 0-4.4-.4-5.5-1.2-.4-.3-.6-.7-.6-1.1 0-.4.2-.9.6-1.1 2-1.4 2-2.7 1.7-6.1-.1-2-.3-4.5 0-8.1 1.3-14.1 9.5-24.1 19.8-24.5h.7c3.2.1 6.2 1.1 8.8 2.9 3.9-9.4 14.2-16.1 26.1-16.1 15.4 0 27.9 11 27.9 24.6.3 5-1.3 9.6-4.2 13.6zm-47.7-3.4c-.3.2-.7.3-1.1.2-.4-.1-.7-.4-.9-.7-.2-.3-.3-.8-.5-1.2-.5-1.4-1.2-3.4-3.1-5.3-.9-.9-2.1-1.7-3.7-2.5-.8 1.3-5.1 7.8-11.8 7.8-1.2 0-2.3-.2-3.5-.6-.2.1-.4.4-.4.4-.4.7-.5 1.7-.2 2.7.4 1.5 1.3 2.4 2.1 2.5h.1c.6.1 1 .5 1.1 1v.1c1.7 6 6.1 12.4 11 12.4s9.3-6.4 11-12.4v-.1c.1-.5.6-.9 1.1-1h.1c.7-.1 1.7-1 2.1-2.5.3-1 .2-2-.2-2.7-.2-.3-.4-.5-.7-.6-.3.5-.8 1.1-1.3 1.5-.6.6-.9.8-1.2 1zm24.3-29.9c-10.7 0-19.7 6.2-22.4 14.7 3.9 4.4 6.6 10.7 7.3 18.3.1.8.1 1.5.1 2.2 3.7 2.7 8.4 4.4 13.6 4.7 1.2.1 2.2 1.1 2.2 2.3v5.3l8.5-9.1c.2-.2.5-.4.8-.6 8-3.3 13.1-10.4 13.1-18 .1-10.9-10.4-19.8-23.2-19.8zm9.4 22.5c-1.6 0-2.9-1.3-2.9-2.9 0-1.6 1.3-2.9 2.9-2.9 1.6 0 2.9 1.3 2.9 2.9.1 1.6-1.3 2.9-2.9 2.9zm-9.4 0c-1.6 0-2.9-1.3-2.9-2.9 0-1.6 1.3-2.9 2.9-2.9 1.6 0 2.9 1.3 2.9 2.9.1 1.6-1.3 2.9-2.9 2.9zm-9.4 0c-1.6 0-2.9-1.3-2.9-2.9 0-1.6 1.3-2.9 2.9-2.9 1.6 0 2.9 1.3 2.9 2.9 0 1.6-1.3 2.9-2.9 2.9z" fill="#1a237e"/></svg>