<svg width="70" height="70" viewBox="0 0 70 70" fill="none" xmlns="http://www.w3.org/2000/svg">
<path d="M56.0391 28.4375L52.7578 35H56.8747V28.4375H56.0391Z" fill="#00ABF4"/>
<path d="M65.625 10.9375H4.375C1.96438 10.9375 0 12.9019 0 15.3125V54.6875C0 57.1025 1.96438 59.0625 4.375 59.0625H65.625C68.04 59.0625 70 57.1025 70 54.6875V15.3125C70 12.9019 68.04 10.9375 65.625 10.9375ZM15.3125 45.9375H10.9375C9.73 45.9375 8.75 44.9575 8.75 43.75V28.4375C7.5425 28.4375 6.5625 27.4575 6.5625 26.25C6.5625 25.0425 7.5425 24.0625 8.75 24.0625H10.9375C12.145 24.0625 13.125 25.0425 13.125 26.25V41.5625H13.7944L19.8231 25.48C20.2475 24.3469 21.5075 23.7781 22.6406 24.2025C23.7694 24.6269 24.3425 25.8869 23.9181 27.02L17.3556 44.52C17.0406 45.3731 16.2225 45.9375 15.3125 45.9375ZM24.0625 45.9375C23.8875 45.9375 23.7081 45.9156 23.5287 45.8719C22.3562 45.5787 21.6431 44.3887 21.9362 43.2206L26.3112 25.7206C26.6087 24.5438 27.7987 23.8175 28.9669 24.1281C30.1394 24.4212 30.8525 25.6069 30.5594 26.7794L26.1844 44.2794C25.935 45.2769 25.0469 45.9375 24.0625 45.9375ZM40.0269 44.975C38.8369 45.6094 37.4806 45.9244 35.9756 45.9244C34.5275 45.9287 32.9437 45.6356 31.2288 45.0538C30.0869 44.6644 29.4744 43.4219 29.8638 42.2756C30.2531 41.1338 31.4869 40.53 32.6375 40.9063C34.9125 41.685 36.7631 41.7506 37.9706 41.1119C38.9725 40.5825 39.3094 39.6725 39.41 39.305C39.5413 38.8238 38.7669 37.7606 36.75 36.5575C35.4506 35.7875 32.7381 34.1731 32.0731 31.4737C31.8325 30.4806 31.7756 28.9231 32.8825 27.1338C35.6081 22.7325 42.2363 24.2638 42.98 24.4563C44.1525 24.7538 44.8569 25.9394 44.5594 27.1075C44.2619 28.2756 43.085 28.9844 41.9038 28.6956C40.5956 28.3631 37.4238 28.1006 36.6012 29.4306C36.2294 30.0388 36.2994 30.3319 36.3213 30.4325C36.5488 31.3512 38.325 32.4056 38.99 32.8038C43.7806 35.6606 44.1613 38.5438 43.6362 40.46C43.1112 42.385 41.7944 44.0344 40.0269 44.975ZM61.25 43.75C61.25 44.9575 60.27 45.9375 59.0625 45.9375C57.855 45.9375 56.875 44.9575 56.875 43.75V39.375H50.5706L47.8931 44.73C47.5081 45.4912 46.7381 45.9375 45.9375 45.9375C45.6094 45.9375 45.2769 45.8631 44.9575 45.7056C43.8769 45.1631 43.4394 43.8506 43.9775 42.77L52.7275 25.27C53.1037 24.5306 53.8606 24.0625 54.6875 24.0625H59.0625C60.27 24.0625 61.25 25.0425 61.25 26.25V43.75Z" fill="#00ABF4"/>
</svg>
