<?xml version="1.0" encoding="utf-8"?>
<!-- Generator: Adobe Illustrator 23.0.0, SVG Export Plug-In . SVG Version: 6.00 Build 0)  -->
<svg version="1.1" id="OBJECTS" xmlns="http://www.w3.org/2000/svg" xmlns:xlink="http://www.w3.org/1999/xlink" x="0px" y="0px"
	 viewBox="0 0 47.3 48.2" style="enable-background:new 0 0 47.3 48.2;" xml:space="preserve">
<style type="text/css">
	.st0{opacity:0.1;}
	.st1{fill:#001683;}
</style>
<g class="st0">
	<path d="M27.3,48.2H11.6C5.2,48.2,0,42.9,0,36.5V20.9C0,14.4,5.2,9.2,11.6,9.2h15.7c6.4,0,11.6,5.2,11.6,11.6v15.7
		C38.9,42.9,33.7,48.2,27.3,48.2z M11.6,17.3c-1.9,0-3.5,1.6-3.5,3.5v15.7c0,1.9,1.6,3.5,3.5,3.5h15.7c1.9,0,3.5-1.6,3.5-3.5V20.9
		c0-1.9-1.6-3.5-3.5-3.5H11.6z"/>
</g>
<path class="st1" d="M47.3,0c-9,8.2-18.3,17.4-26.5,26.3c-2.7-3.3-4.9-7-7-10.8c-3.6,0.9-7.2,1.8-10.8,2.7
	C8.4,25,14.4,31.3,21.3,36.6C30,24.8,38.6,11.7,47.3,0z"/>
</svg>
