<svg fill="#001683" id="Слой_1" data-name="Слой 1" xmlns="http://www.w3.org/2000/svg" viewBox="0 0 496 496">
    <title>icon-i2</title>
    <path d="M176,248a32,32,0,0,0,32-32H192a16,16,0,0,1-32,0H144a32,32,0,0,0,32,32Zm0,0"/>
    <path d="M144,168a8,8,0,1,1-8-8,8,8,0,0,1,8,8Zm0,0"/>
    <path d="M224,168a8,8,0,1,1-8-8,8,8,0,0,1,8,8Zm0,0"/>
    <path d="M272,240v63.57l-40-13.34V267.82a88.12,88.12,0,0,0,28.71-44.3A39.91,39.91,0,0,0,296,184V120a120,120,0,0,0-240,0v64a39.91,39.91,0,0,0,35.29,39.52A88.12,88.12,0,0,0,120,267.82v22.41L38.29,317.48A55.91,55.91,0,0,0,0,370.59V448H272v48H496V292.69L443.31,240Zm176,27.31L468.69,288H448Zm-209.23,42-12.2,60.95L188.34,343l37.82-37.83Zm24.89-102.72c.17-2.2.34-4.39.34-6.63V161.47a23.85,23.85,0,0,1-.34,45.16ZM72,184a24,24,0,0,1,16-22.53V200c0,2.24.17,4.43.34,6.63A24,24,0,0,1,72,184Zm17.53-39.34A39.48,39.48,0,0,0,72,152.21V120a104,104,0,0,1,208,0v32.21a39.47,39.47,0,0,0-17.54-7.55,43.94,43.94,0,0,0-68.86-23.85L176,134l-17.59-13.19a44,44,0,0,0-68.88,23.85ZM104,200V156a28,28,0,0,1,44.81-22.4L176,154l27.2-20.4A28,28,0,0,1,248,156v44a72,72,0,0,1-144,0Zm72,88a87.43,87.43,0,0,0,40-9.71v14.4l-40,40-40-40v-14.4A87.43,87.43,0,0,0,176,288Zm-50.16,17.15L163.66,343,125.43,370.3l-12.2-60.95ZM80,432V384H64v48H16V370.59a39.94,39.94,0,0,1,27.35-37.94l54.59-18.19,16.65,83.24L176,353.83l61.43,43.87,16.64-83.24,17.93,6V432Zm208,48V256H432v48h48V480Zm0,0"/>
    <path d="M384,464h80V384H384Zm16-64h48v48H400Zm0,0"/>
    <rect x="304" y="448" width="64" height="16"/>
    <rect x="304" y="416" width="64" height="16"/>
    <rect x="304" y="384" width="64" height="16"/>
    <rect x="304" y="272" width="16" height="16"/>
    <rect x="336" y="272" width="80" height="16"/>
    <rect x="304" y="304" width="112" height="16"/>
    <rect x="448" y="336" width="16" height="16"/>
    <rect x="304" y="336" width="128" height="16"/>
    <path d="M408,224A87.85,87.85,0,0,0,479.59,85l14.3-15.61L482.1,58.59l-13,14.2A88,88,0,1,0,408,224Zm0-160a71.7,71.7,0,0,1,50.29,20.57l-59.14,64.51L365,121.75l-10,12.5,45.84,36.67,67.66-73.81A71.93,71.93,0,1,1,408,64Zm0,0"/>
</svg>