<svg xmlns="http://www.w3.org/2000/svg" xmlns:xlink="http://www.w3.org/1999/xlink" viewBox="0 0 28.3 28.3"><circle fill="#FFF" cx="14.2" cy="14.2" r="14.2"/><circle fill="#FFF" cx="14.2" cy="14.2" r="14.2"/><defs><circle id="a" cx="14.2" cy="14.2" r="12.8"/></defs><clipPath id="b"><use xlink:href="#a" overflow="visible"/></clipPath><g clip-path="url(#b)"><path fill="#E52520" d="M28.6 28.5H-.1c-.1 0-.2 0-.2-.1v-9.2c0-.1 0-.1.2-.1h28.7v9.4z"/></g><g clip-path="url(#b)"><path fill="#509D33" d="M28.6 19H-.1c-.1 0-.2 0-.2-.1V9.7c0-.1 0-.1.2-.1h28.7V19z"/></g><g clip-path="url(#b)"><path fill="#FFF" d="M28.6 9.6H-.1c-.1 0-.2 0-.2-.1V.3c0-.1 0-.1.2-.1h28.7v9.4z"/></g></svg>