<svg width="19" height="19" viewBox="0 0 19 19" fill="none" xmlns="http://www.w3.org/2000/svg">
<path d="M9.5 19C14.7467 19 19 14.7467 19 9.5C19 4.25329 14.7467 0 9.5 0C4.25329 0 0 4.25329 0 9.5C0 14.7467 4.25329 19 9.5 19Z" fill="#3A51B5"/>
<path d="M4.34688 9.29415L13.5065 5.76252C13.9316 5.60894 14.3029 5.86623 14.1651 6.50906L14.1659 6.50827L12.6063 13.8557C12.4908 14.3766 12.1812 14.5033 11.7482 14.2579L9.37317 12.5075L8.22763 13.6111C8.10097 13.7378 7.99409 13.8446 7.74867 13.8446L7.9173 11.4277L12.319 7.45115C12.5105 7.28252 12.2762 7.18752 12.0237 7.35536L6.58413 10.7801L4.23922 10.0486C3.73017 9.88711 3.71909 9.53956 4.34688 9.29415Z" fill="white"/>
</svg>
