<svg width="19" height="19" viewBox="0 0 19 19" fill="none" xmlns="http://www.w3.org/2000/svg">
<path d="M4.19582 17.3375L4.55207 17.5354C6.01665 18.4458 7.71876 19 9.5 19C14.6854 19 19 14.6854 19 9.42081C19 4.15622 14.6854 0 9.46041 0C4.23541 0 0 4.19582 0 9.42081C0 11.2417 0.51459 13.0229 1.46458 14.5271L1.7021 14.8833L0.791704 18.2083L4.19582 17.3375Z" fill="#3A51B5"/>
<path d="M6.32876 3.84162L5.59034 3.79999C5.35713 3.79999 5.12396 3.88324 4.9685 4.04971C4.6187 4.38264 4.03573 5.00688 3.88027 5.83926C3.60823 7.08778 4.03573 8.58597 5.04625 10.0842C6.05676 11.5824 8.00004 13.9961 11.4202 15.0366C12.5084 15.3695 13.3634 15.1614 14.063 14.7036C14.6072 14.3291 14.9569 13.7465 15.0736 13.1222L15.1901 12.5395C15.229 12.3731 15.1513 12.165 14.9958 12.0818L12.5473 10.8749C12.3918 10.7916 12.1975 10.8332 12.0809 10.9997L11.1093 12.3314C11.0315 12.4147 10.9149 12.4563 10.7983 12.4147C10.1376 12.165 7.92229 11.1662 6.71744 8.66918C6.67856 8.54434 6.67856 8.41946 6.75631 8.33625L7.68908 7.21261C7.76683 7.08778 7.80566 6.92131 7.76683 6.79643L6.63973 4.09134C6.60081 3.96645 6.48422 3.84162 6.32876 3.84162Z" fill="#FEFEFE"/>
</svg>
