<svg width="19" height="19" viewBox="0 0 19 19" fill="none" xmlns="http://www.w3.org/2000/svg">
<path d="M9.5 19C14.7467 19 19 14.7467 19 9.5C19 4.25329 14.7467 0 9.5 0C4.25329 0 0 4.25329 0 9.5C0 14.7467 4.25329 19 9.5 19Z" fill="#3A51B5"/>
<path d="M14.5257 6.67688L14.5226 6.66433C14.2688 5.63815 13.1244 4.53704 12.0735 4.30796L12.0616 4.30551C10.3618 3.98125 8.63824 3.98125 6.93878 4.30551L6.92657 4.30796C5.876 4.53704 4.73159 5.63822 4.47743 6.66433L4.47461 6.67688C4.16081 8.10993 4.16081 9.56328 4.47461 10.9963L4.47743 11.0089C4.72079 11.9912 5.77993 13.0418 6.79164 13.3307V14.4762C6.79164 14.8908 7.29689 15.0944 7.58419 14.7952L8.74478 13.5888C8.99653 13.6029 9.24839 13.6108 9.50018 13.6108C10.3558 13.6108 11.2118 13.5298 12.0616 13.3677L12.0734 13.3653C13.1244 13.1362 14.2687 12.035 14.5226 11.0089L14.5257 10.9964C14.8395 9.56328 14.8395 8.11 14.5257 6.67688ZM13.6072 10.7886C13.4377 11.458 12.5689 12.2903 11.8785 12.4441C10.9747 12.616 10.0637 12.6894 9.15362 12.6643C9.13551 12.6637 9.1181 12.6708 9.10552 12.6838C8.97634 12.8163 8.25813 13.5537 8.25813 13.5537L7.35682 14.4788C7.29091 14.5475 7.17513 14.5007 7.17513 14.4059V12.5082C7.17513 12.4769 7.15275 12.4503 7.12195 12.4442C7.12177 12.4441 7.12162 12.4441 7.12143 12.4441C6.43105 12.2903 5.56247 11.458 5.39269 10.7885C5.11025 9.49318 5.11025 8.18003 5.39269 6.88469C5.56247 6.2152 6.43105 5.38291 7.12143 5.22913C8.69992 4.92891 10.3004 4.92891 11.8785 5.22913C12.5692 5.38291 13.4378 6.2152 13.6073 6.88469C13.89 8.18007 13.89 9.49322 13.6072 10.7886Z" fill="white"/>
<path d="M11.0018 11.6644C10.8957 11.6322 10.7946 11.6106 10.7006 11.5716C9.72717 11.1678 8.83135 10.6467 8.12179 9.84812C7.71826 9.39397 7.40242 8.88123 7.13546 8.33862C7.00884 8.0813 6.90215 7.81393 6.79338 7.54823C6.69423 7.30598 6.84029 7.05571 6.99407 6.87313C7.13839 6.7018 7.32412 6.57073 7.52525 6.47406C7.68223 6.39865 7.83705 6.44214 7.95171 6.57518C8.19953 6.86285 8.42723 7.16522 8.61152 7.49868C8.72489 7.70379 8.69379 7.9545 8.48832 8.09407C8.43837 8.12799 8.39287 8.16784 8.34637 8.20614C8.30555 8.23972 8.26718 8.27364 8.2392 8.3191C8.1881 8.40226 8.18565 8.50042 8.21853 8.59085C8.47188 9.28706 8.89889 9.82849 9.5997 10.1201C9.71185 10.1668 9.82444 10.2211 9.95365 10.206C10.17 10.1808 10.2401 9.94341 10.3917 9.81943C10.5399 9.69827 10.7293 9.69667 10.8889 9.79769C11.0486 9.89877 11.2033 10.0072 11.3572 10.1169C11.5082 10.2245 11.6585 10.3297 11.7978 10.4524C11.9318 10.5704 11.9779 10.7251 11.9025 10.8852C11.7644 11.1784 11.5635 11.4222 11.2737 11.5779C11.1918 11.6218 11.0941 11.636 11.0018 11.6644C10.8957 11.6322 11.0941 11.636 11.0018 11.6644Z" fill="white"/>
<path d="M9.50289 6.13881C10.7761 6.17451 11.8219 7.01945 12.046 8.2782C12.0841 8.49269 12.0977 8.71194 12.1147 8.92966C12.1219 9.02121 12.07 9.10819 11.9712 9.10942C11.8692 9.11064 11.8233 9.02521 11.8166 8.93374C11.8035 8.75257 11.7944 8.57055 11.7694 8.39094C11.6376 7.44246 10.8814 6.65778 9.93729 6.48942C9.7952 6.46407 9.64988 6.45743 9.50593 6.44233C9.41498 6.43279 9.29586 6.4273 9.27571 6.31419C9.25882 6.21937 9.33883 6.14389 9.42912 6.13903C9.45357 6.13758 9.47825 6.13873 9.50289 6.13881C10.7762 6.17451 9.47825 6.13873 9.50289 6.13881Z" fill="white"/>
<path d="M11.4377 8.64727C11.4355 8.66319 11.4345 8.70056 11.4251 8.73574C11.3914 8.86354 11.1975 8.87954 11.1529 8.75058C11.1397 8.71232 11.1377 8.66876 11.1376 8.62757C11.1372 8.35793 11.0786 8.08851 10.9426 7.85387C10.8028 7.6127 10.5892 7.41004 10.3387 7.28732C10.1873 7.21318 10.0235 7.16705 9.85747 7.13963C9.78492 7.1276 9.71159 7.12037 9.63867 7.1102C9.55031 7.09792 9.50311 7.04162 9.50734 6.95456C9.51124 6.873 9.57087 6.81425 9.65979 6.81934C9.95195 6.83589 10.2342 6.89912 10.494 7.03665C11.0222 7.31642 11.324 7.75794 11.4121 8.34757C11.4161 8.37433 11.4224 8.40075 11.4245 8.42755C11.4295 8.49367 11.4326 8.55991 11.4377 8.64727C11.4355 8.66312 11.4326 8.55991 11.4377 8.64727Z" fill="white"/>
<path d="M10.6457 8.61637C10.5392 8.6183 10.4822 8.5593 10.4711 8.4617C10.4635 8.39364 10.4575 8.32462 10.4412 8.25834C10.4092 8.12783 10.3399 8.00693 10.2301 7.92696C10.1783 7.88922 10.1195 7.86172 10.058 7.8439C9.97993 7.8213 9.89873 7.82754 9.82084 7.80847C9.73619 7.78772 9.68936 7.71914 9.70268 7.63977C9.71478 7.56748 9.78507 7.51107 9.86407 7.51682C10.3577 7.55245 10.7105 7.80765 10.7609 8.38878C10.7645 8.42979 10.7686 8.47309 10.7595 8.51239C10.7439 8.57945 10.6941 8.61311 10.6457 8.61637C10.5391 8.61827 10.6941 8.61311 10.6457 8.61637Z" fill="white"/>
<path d="M11.0019 11.6645C11.0942 11.6361 10.8958 11.6323 11.0019 11.6645V11.6645Z" fill="white"/>
<path d="M9.50617 6.139C9.50504 6.139 9.50394 6.13889 9.50281 6.13889C9.50172 6.13881 9.50312 6.13889 9.50617 6.139Z" fill="white"/>
<path d="M9.50293 6.13885C9.50401 6.13885 9.50504 6.13897 9.50612 6.13897C9.57678 6.14149 10.726 6.17314 9.50293 6.13885Z" fill="white"/>
<path d="M11.4376 8.64723C11.4326 8.55987 11.4355 8.66308 11.4376 8.64723V8.64723Z" fill="white"/>
<path d="M10.6464 8.61645C10.6482 8.61633 10.6499 8.61543 10.6515 8.61523C10.6468 8.61523 10.6395 8.61535 10.6321 8.61563C10.6369 8.61574 10.6413 8.61648 10.6464 8.61645Z" fill="white"/>
<path d="M10.6457 8.61662C10.6409 8.6167 10.6366 8.61599 10.632 8.61584C10.609 8.61648 10.5852 8.6177 10.6457 8.61662Z" fill="white"/>
<path d="M10.6509 8.61523C10.6491 8.61543 10.6474 8.61633 10.6458 8.61645C10.6589 8.61555 10.6577 8.61523 10.6509 8.61523Z" fill="white"/>
</svg>
