<svg id="Слой_1" data-name="Слой 1" xmlns="http://www.w3.org/2000/svg" viewBox="0 0 84.7 41.06"><defs><style>.cls-1{fill:#fff200;}.cls-2{fill:#184799;}.cls-3{fill:#77d1f5;}.cls-4{fill:#808285;}.cls-5{fill:#2e3192;}.cls-6{fill:#fdd8c9;}.cls-7{fill:#b66c64;}.cls-8{fill:#91cbea;}.cls-9{fill:#d4d4d4;}.cls-10{fill:#a97c50;}.cls-11{fill:#f9ed32;}.cls-12{fill:#f15a29;}.cls-13{fill:#2bb673;}.cls-14{fill:#52bd90;}.cls-15{fill:#386cb5;opacity:0.3;}.cls-15,.cls-17,.cls-19,.cls-24{isolation:isolate;}.cls-16{fill:#fbc0ab;}.cls-17,.cls-18,.cls-25{fill:none;stroke-linecap:round;stroke-width:0.25px;}.cls-17,.cls-25{stroke:#535671;}.cls-17,.cls-18{stroke-linejoin:round;}.cls-17,.cls-24{opacity:0.4;}.cls-18{stroke:#fbc0ab;}.cls-19,.cls-21{fill:#f05866;}.cls-19{opacity:0.1;}.cls-20{fill:#3a3d54;}.cls-22,.cls-24{fill:#fff;}.cls-23{fill:#535671;}.cls-25{stroke-miterlimit:10;}.cls-26{fill:#8f5754;}</style></defs><polygon class="cls-1" points="20.4 0 20.83 0.88 21.8 1.02 21.1 1.71 21.27 2.67 20.4 2.21 19.53 2.67 19.7 1.71 19 1.02 19.97 0.88 20.4 0"/><polygon class="cls-1" points="25.84 0.81 26.26 1.7 27.23 1.86 26.51 2.53 26.66 3.5 25.8 3.03 24.92 3.46 25.11 2.5 24.42 1.8 25.39 1.68 25.84 0.81"/><polygon class="cls-1" points="30.7 3.08 31.14 3.96 32.11 4.09 31.41 4.78 31.59 5.74 30.71 5.29 29.85 5.75 30.01 4.79 29.3 4.11 30.27 3.96 30.7 3.08"/><polygon class="cls-1" points="36.31 7.69 35.6 8.37 35.76 9.34 34.9 8.88 34.03 9.33 34.2 8.37 33.5 7.68 34.47 7.54 34.91 6.66 35.34 7.54 36.31 7.69"/><polygon class="cls-1" points="39.24 12.25 38.54 12.93 38.69 13.9 37.83 13.43 36.96 13.88 37.13 12.92 36.43 12.23 37.41 12.09 37.85 11.22 38.27 12.1 39.24 12.25"/><polygon class="cls-1" points="40.79 17.44 40.11 18.15 40.3 19.11 39.42 18.68 38.57 19.16 38.7 18.19 37.98 17.53 38.95 17.36 39.35 16.46 39.81 17.33 40.79 17.44"/><polygon class="cls-1" points="40.77 22.97 40.07 23.65 40.23 24.62 39.37 24.16 38.5 24.62 38.66 23.66 37.96 22.97 38.93 22.83 39.36 21.95 39.8 22.83 40.77 22.97"/><polygon class="cls-1" points="38.77 29.84 37.89 29.4 37.03 29.87 37.18 28.9 36.47 28.22 37.44 28.07 37.86 27.18 38.31 28.06 39.28 28.18 38.59 28.88 38.77 29.84"/><polygon class="cls-1" points="36.27 32.62 35.58 33.32 35.76 34.28 34.89 33.84 34.03 34.32 34.17 33.35 33.46 32.68 34.43 32.52 34.84 31.63 35.3 32.5 36.27 32.62"/><polygon class="cls-1" points="31.57 38.03 30.73 37.53 29.84 37.93 30.05 36.98 29.39 36.26 30.37 36.17 30.85 35.32 31.24 36.22 32.2 36.41 31.46 37.06 31.57 38.03"/><polygon class="cls-1" points="26.77 40.23 25.87 39.85 25.04 40.37 25.13 39.4 24.37 38.77 25.33 38.55 25.69 37.64 26.2 38.48 27.17 38.55 26.53 39.28 26.77 40.23"/><polygon class="cls-1" points="19.62 41.06 19.78 40.09 19.07 39.41 20.04 39.27 20.47 38.38 20.91 39.26 21.88 39.4 21.19 40.09 21.36 41.05 20.49 40.6 19.62 41.06"/><polygon class="cls-1" points="14.17 40.32 14.3 39.35 13.57 38.69 14.54 38.52 14.94 37.62 15.41 38.49 16.38 38.59 15.71 39.3 15.9 40.26 15.02 39.84 14.17 40.32"/><polygon class="cls-1" points="9.17 38 9.33 37.03 8.62 36.35 9.58 36.2 10.01 35.31 10.45 36.19 11.42 36.32 10.73 37.01 10.91 37.98 10.04 37.53 9.17 38"/><polygon class="cls-1" points="5.06 34.44 5.22 33.47 4.51 32.79 5.48 32.65 5.91 31.76 6.35 32.64 7.32 32.77 6.62 33.46 6.79 34.43 5.92 33.98 5.06 34.44"/><polygon class="cls-1" points="2.13 29.92 2.23 28.94 1.48 28.31 2.44 28.1 2.81 27.19 3.31 28.04 4.28 28.12 3.63 28.85 3.86 29.8 2.96 29.4 2.13 29.92"/><polygon class="cls-1" points="0.03 22.97 1 22.83 1.44 21.95 1.87 22.83 2.84 22.97 2.14 23.66 2.3 24.62 1.44 24.16 0.57 24.62 0.73 23.65 0.03 22.97"/><polygon class="cls-1" points="0 17.48 0.97 17.34 1.41 16.46 1.84 17.34 2.81 17.48 2.11 18.17 2.27 19.14 1.4 18.68 0.53 19.13 0.7 18.17 0 17.48"/><polygon class="cls-1" points="1.54 12.31 2.51 12.12 2.89 11.22 3.37 12.08 4.35 12.17 3.68 12.89 3.9 13.85 3.01 13.43 2.17 13.93 2.28 12.96 1.54 12.31"/><polygon class="cls-1" points="4.47 7.76 5.43 7.57 5.82 6.67 6.3 7.53 7.28 7.62 6.61 8.34 6.83 9.29 5.94 8.88 5.1 9.38 5.21 8.41 4.47 7.76"/><polygon class="cls-1" points="10.05 3.08 10.51 3.94 11.48 4.06 10.79 4.76 10.98 5.73 10.11 5.29 9.25 5.77 9.39 4.8 8.67 4.13 9.64 3.96 10.05 3.08"/><polygon class="cls-1" points="14.9 0.81 15.39 1.66 16.37 1.74 15.71 2.47 15.93 3.42 15.04 3.02 14.2 3.53 14.3 2.55 13.56 1.91 14.52 1.71 14.9 0.81"/><polygon class="cls-1" points="20.4 0 20.83 0.88 21.8 1.02 21.1 1.71 21.27 2.67 20.4 2.21 19.53 2.67 19.7 1.71 19 1.02 19.97 0.88 20.4 0"/><path class="cls-2" d="M25.27,24.83H21.19v3.79h4.56v1.13H19.83V19.24h5.68v1.13H21.19V23.7h4.08Z" transform="translate(-7.33 -4.47)"/><path class="cls-2" d="M28.86,19.24v6.23c0,2.35,1,3.34,2.46,3.34s2.55-1,2.55-3.34V19.24h1.37v6.14c0,3.23-1.7,4.54-4,4.54S27.5,28.7,27.5,25.43V19.24Z" transform="translate(-7.33 -4.47)"/><path class="cls-2" d="M47.71,30.39v6h-.79v-6Z" transform="translate(-7.33 -4.47)"/><path class="cls-2" d="M49.13,33.27c0-.45,0-.81,0-1.17h.68l0,.7h0a1.47,1.47,0,0,1,1.36-.8,1.29,1.29,0,0,1,1.23.87h0A1.73,1.73,0,0,1,53,32.3a1.5,1.5,0,0,1,.95-.3c.58,0,1.43.37,1.43,1.88v2.56h-.77V34c0-.84-.31-1.33-.94-1.33a1,1,0,0,0-.94.71,1.18,1.18,0,0,0-.06.39v2.69h-.77V33.83c0-.69-.31-1.18-.9-1.18a1.09,1.09,0,0,0-1,.78,1.27,1.27,0,0,0-.06.39v2.62h-.77Z" transform="translate(-7.33 -4.47)"/><path class="cls-2" d="M56.62,33.27c0-.45,0-.81,0-1.17h.69l0,.7h0A1.49,1.49,0,0,1,58.7,32a1.27,1.27,0,0,1,1.22.87h0a1.86,1.86,0,0,1,.49-.57,1.53,1.53,0,0,1,1-.3c.57,0,1.43.37,1.43,1.88v2.56h-.77V34c0-.84-.31-1.33-.94-1.33a1,1,0,0,0-.94.71,1.18,1.18,0,0,0-.07.39v2.69h-.77V33.83c0-.69-.3-1.18-.9-1.18a1.09,1.09,0,0,0-1,.78,1.27,1.27,0,0,0-.06.39v2.62h-.77Z" transform="translate(-7.33 -4.47)"/><path class="cls-2" d="M65,30.87a.49.49,0,1,1-1,0,.49.49,0,0,1,.5-.49A.47.47,0,0,1,65,30.87Zm-.88,5.57V32.1h.79v4.34Z" transform="translate(-7.33 -4.47)"/><path class="cls-2" d="M70,32.1c0,.31,0,.66,0,1.19v2.52a2.49,2.49,0,0,1-.62,2,2.34,2.34,0,0,1-1.58.52A2.83,2.83,0,0,1,66.26,38l.2-.61a2.44,2.44,0,0,0,1.28.35c.8,0,1.39-.43,1.39-1.52v-.49h0a1.54,1.54,0,0,1-1.38.73,1.94,1.94,0,0,1-1.85-2.12,2.07,2.07,0,0,1,2-2.3,1.44,1.44,0,0,1,1.35.75h0l0-.65Zm-.82,1.7a1.34,1.34,0,0,0,0-.35A1.13,1.13,0,0,0,68,32.61c-.75,0-1.29.64-1.29,1.65,0,.85.44,1.56,1.29,1.56A1.15,1.15,0,0,0,69.06,35a1.23,1.23,0,0,0,.07-.42Z" transform="translate(-7.33 -4.47)"/><path class="cls-2" d="M71.16,33.45c0-.51,0-1,0-1.35h.69l0,.85h0a1.32,1.32,0,0,1,1.21-1,.82.82,0,0,1,.22,0v.74l-.27,0a1.11,1.11,0,0,0-1.06,1,2.13,2.13,0,0,0,0,.37v2.32h-.79Z" transform="translate(-7.33 -4.47)"/><path class="cls-2" d="M76.46,36.44l-.07-.55h0a1.62,1.62,0,0,1-1.33.65,1.24,1.24,0,0,1-1.32-1.25c0-1,.93-1.63,2.6-1.62v-.09a.9.9,0,0,0-1-1,2,2,0,0,0-1.12.33L74,32.38A2.73,2.73,0,0,1,75.46,32c1.32,0,1.65.91,1.65,1.78V35.4a6.7,6.7,0,0,0,.06,1Zm-.12-2.22c-.85,0-1.83.14-1.83,1a.69.69,0,0,0,.73.75,1.08,1.08,0,0,0,1.06-.72.81.81,0,0,0,0-.25Z" transform="translate(-7.33 -4.47)"/><path class="cls-2" d="M79.29,30.85V32.1h1.14v.6H79.29V35c0,.54.16.84.6.84a1.38,1.38,0,0,0,.46-.06l0,.6a2,2,0,0,1-.7.11,1.11,1.11,0,0,1-.85-.33,1.64,1.64,0,0,1-.31-1.13V32.7h-.67v-.6h.67V31.05Z" transform="translate(-7.33 -4.47)"/><path class="cls-2" d="M82.2,30.87a.48.48,0,0,1-.5.49.47.47,0,0,1-.48-.49.49.49,0,0,1,1,0Zm-.88,5.57V32.1h.78v4.34Z" transform="translate(-7.33 -4.47)"/><path class="cls-2" d="M87.34,34.23a2.13,2.13,0,0,1-2.15,2.31A2.07,2.07,0,0,1,83.1,34.3,2.12,2.12,0,0,1,85.25,32,2,2,0,0,1,87.34,34.23Zm-3.44.05c0,.95.55,1.67,1.32,1.67s1.32-.71,1.32-1.7c0-.73-.37-1.66-1.31-1.66S83.9,33.45,83.9,34.28Z" transform="translate(-7.33 -4.47)"/><path class="cls-2" d="M88.34,33.27c0-.45,0-.81,0-1.17H89l0,.71h0A1.6,1.6,0,0,1,90.51,32c.59,0,1.53.36,1.53,1.85v2.59h-.79v-2.5c0-.71-.26-1.29-1-1.29a1.14,1.14,0,0,0-1.07.81,1.25,1.25,0,0,0-.05.36v2.62h-.79Z" transform="translate(-7.33 -4.47)"/><path class="cls-3" d="M49.36,43.12a2.59,2.59,0,0,1-.8.11c-.84,0-1.48-.43-1.48-1.22s.64-1.27,1.57-1.27a1.78,1.78,0,0,1,.71.11l-.09.25a1.68,1.68,0,0,0-.61-.1c-.7,0-1.17.36-1.17,1s.42,1,1.15,1a2,2,0,0,0,.64-.1Z" transform="translate(-7.33 -4.47)"/><path class="cls-3" d="M52.32,42a1.26,1.26,0,0,1-1.4,1.27A1.23,1.23,0,0,1,49.57,42,1.27,1.27,0,0,1,51,40.74,1.23,1.23,0,0,1,52.32,42ZM50,42a1,1,0,1,0,1-1A.93.93,0,0,0,50,42Z" transform="translate(-7.33 -4.47)"/><path class="cls-3" d="M52.82,43.19V40.78h.42l1,1.22a6.06,6.06,0,0,1,.53.79h0c0-.32,0-.61,0-1v-1h.36v2.41h-.39l-1-1.22a7.4,7.4,0,0,1-.56-.81h0c0,.31,0,.6,0,1v1Z" transform="translate(-7.33 -4.47)"/><path class="cls-3" d="M55.7,42.81a1.56,1.56,0,0,0,.69.16c.4,0,.63-.17.63-.41s-.16-.36-.57-.48-.79-.35-.79-.68.39-.66,1-.66a1.66,1.66,0,0,1,.67.12l-.11.25a1.52,1.52,0,0,0-.57-.11c-.41,0-.57.19-.57.36s.19.33.6.46.77.36.77.72-.34.69-1.05.69a1.77,1.77,0,0,1-.77-.16Z" transform="translate(-7.33 -4.47)"/><path class="cls-3" d="M58.33,40.78v1.43a.72.72,0,1,0,1.44,0V40.78h.39v1.41c0,.74-.49,1-1.14,1a1,1,0,0,1-1.08-1V40.78Z" transform="translate(-7.33 -4.47)"/><path class="cls-3" d="M60.83,40.78h.39v2.15H62.5v.26H60.83Z" transform="translate(-7.33 -4.47)"/><path class="cls-3" d="M63.11,41H62.2v-.26h2.22V41H63.5v2.15h-.39Z" transform="translate(-7.33 -4.47)"/><path class="cls-3" d="M65.14,40.78v2.41h-.39V40.78Z" transform="translate(-7.33 -4.47)"/><path class="cls-3" d="M65.82,43.19V40.78h.43l1,1.22a6.06,6.06,0,0,1,.53.79h0c0-.32,0-.61,0-1v-1h.37v2.41h-.4l-1-1.22a7.4,7.4,0,0,1-.56-.81h0c0,.31,0,.6,0,1v1Z" transform="translate(-7.33 -4.47)"/><path class="cls-3" d="M71,43.09a3.43,3.43,0,0,1-.92.13A1.78,1.78,0,0,1,69,42.9a1.13,1.13,0,0,1-.41-.9c0-.72.61-1.25,1.62-1.25a2.27,2.27,0,0,1,.75.11l-.1.26a1.83,1.83,0,0,0-.66-.1c-.73,0-1.21.36-1.21,1s.46,1,1.16,1a1.76,1.76,0,0,0,.52-.06v-.72h-.61v-.25h1Z" transform="translate(-7.33 -4.47)"/><path class="cls-3" d="M72.53,42.11v.23h-1.1v-.23Z" transform="translate(-7.33 -4.47)"/><path class="cls-3" d="M73,42.81a1.56,1.56,0,0,0,.69.16c.4,0,.63-.17.63-.41s-.16-.36-.57-.48-.79-.35-.79-.68.39-.66,1-.66a1.61,1.61,0,0,1,.66.12l-.1.25a1.52,1.52,0,0,0-.57-.11c-.41,0-.57.19-.57.36s.18.33.6.46.76.36.76.72-.33.69-1,.69a1.75,1.75,0,0,1-.76-.16Z" transform="translate(-7.33 -4.47)"/><path class="cls-3" d="M77.76,42a1.26,1.26,0,0,1-1.39,1.27A1.22,1.22,0,0,1,75,42a1.27,1.27,0,0,1,1.39-1.27A1.22,1.22,0,0,1,77.76,42Zm-2.33,0a1,1,0,1,0,1-1A.93.93,0,0,0,75.43,42Z" transform="translate(-7.33 -4.47)"/><path class="cls-3" d="M78.26,40.78h.4v2.15h1.28v.26H78.26Z" transform="translate(-7.33 -4.47)"/><path class="cls-3" d="M80.6,40.78v1.43c0,.54.29.77.7.77a.68.68,0,0,0,.73-.77V40.78h.39v1.41c0,.74-.49,1-1.14,1a.94.94,0,0,1-1.07-1V40.78Z" transform="translate(-7.33 -4.47)"/><path class="cls-3" d="M83.66,41h-.91v-.26H85V41h-.92v2.15h-.39Z" transform="translate(-7.33 -4.47)"/><path class="cls-3" d="M85.7,40.78v2.41h-.4V40.78Z" transform="translate(-7.33 -4.47)"/><path class="cls-3" d="M88.94,42a1.26,1.26,0,0,1-1.4,1.27A1.22,1.22,0,0,1,86.2,42a1.27,1.27,0,0,1,1.39-1.27A1.22,1.22,0,0,1,88.94,42Zm-2.33,0a1,1,0,1,0,1-1A.93.93,0,0,0,86.61,42Z" transform="translate(-7.33 -4.47)"/><path class="cls-3" d="M89.44,43.19V40.78h.43l1,1.22a7.46,7.46,0,0,1,.54.79h0a7.61,7.61,0,0,1,0-1v-1h.37v2.41h-.4l-1-1.22a7.4,7.4,0,0,1-.56-.81h0c0,.31,0,.6,0,1v1Z" transform="translate(-7.33 -4.47)"/><g id="flag"><polygon class="cls-4" points="63.04 17.56 61.02 3.07 61.43 3.07 63.37 17.56 63.04 17.56"/><path class="cls-5" d="M68.76,7.54s4.24.22,6.38-1.15c0,0,2.35-.88,2.59.58a33.8,33.8,0,0,1,.66,5.47s-2.69-.22-4.16.83a7.29,7.29,0,0,1-4.6.76Z" transform="translate(-7.33 -4.47)"/><polygon class="cls-1" points="66.13 4.01 66.17 4.09 66.25 4.1 66.19 4.16 66.2 4.25 66.13 4.21 66.05 4.25 66.07 4.16 66.01 4.1 66.09 4.09 66.13 4.01"/><polygon class="cls-1" points="66.6 4.08 66.64 4.16 66.72 4.18 66.66 4.23 66.67 4.32 66.59 4.28 66.52 4.31 66.53 4.23 66.48 4.17 66.56 4.16 66.6 4.08"/><polygon class="cls-1" points="67.02 4.28 67.06 4.36 67.14 4.37 67.08 4.43 67.09 4.51 67.02 4.47 66.94 4.51 66.96 4.43 66.9 4.37 66.98 4.36 67.02 4.28"/><polygon class="cls-1" points="67.5 4.68 67.44 4.74 67.46 4.82 67.38 4.78 67.31 4.82 67.32 4.74 67.26 4.68 67.34 4.67 67.38 4.59 67.42 4.67 67.5 4.68"/><polygon class="cls-1" points="67.76 5.07 67.69 5.13 67.71 5.21 67.63 5.17 67.56 5.21 67.57 5.13 67.51 5.07 67.6 5.06 67.64 4.98 67.67 5.06 67.76 5.07"/><polygon class="cls-1" points="67.89 5.52 67.83 5.58 67.85 5.67 67.77 5.63 67.7 5.67 67.71 5.59 67.65 5.53 67.73 5.51 67.77 5.44 67.81 5.51 67.89 5.52"/><polygon class="cls-1" points="67.89 6 67.83 6.06 67.84 6.14 67.77 6.1 67.69 6.14 67.71 6.06 67.64 6 67.73 5.99 67.77 5.91 67.8 5.99 67.89 6"/><polygon class="cls-1" points="67.72 6.59 67.64 6.55 67.56 6.59 67.58 6.51 67.52 6.45 67.6 6.44 67.64 6.36 67.68 6.44 67.76 6.45 67.7 6.51 67.72 6.59"/><polygon class="cls-1" points="67.5 6.83 67.44 6.89 67.46 6.98 67.38 6.94 67.31 6.98 67.32 6.9 67.26 6.84 67.34 6.82 67.38 6.75 67.42 6.82 67.5 6.83"/><polygon class="cls-1" points="67.09 7.3 67.02 7.26 66.94 7.29 66.96 7.21 66.91 7.15 66.99 7.14 67.03 7.07 67.06 7.14 67.15 7.16 67.08 7.22 67.09 7.3"/><polygon class="cls-1" points="66.68 7.49 66.6 7.46 66.53 7.5 66.54 7.42 66.47 7.36 66.55 7.34 66.59 7.27 66.63 7.34 66.71 7.34 66.66 7.41 66.68 7.49"/><polygon class="cls-1" points="66.06 7.56 66.08 7.48 66.01 7.42 66.1 7.41 66.14 7.33 66.17 7.41 66.26 7.42 66.2 7.48 66.21 7.56 66.14 7.52 66.06 7.56"/><polygon class="cls-1" points="65.59 7.5 65.6 7.41 65.54 7.36 65.62 7.34 65.66 7.26 65.7 7.34 65.78 7.35 65.72 7.41 65.74 7.49 65.66 7.46 65.59 7.5"/><polygon class="cls-1" points="65.16 7.3 65.17 7.21 65.11 7.16 65.19 7.14 65.23 7.07 65.27 7.14 65.35 7.15 65.29 7.21 65.31 7.29 65.23 7.26 65.16 7.3"/><polygon class="cls-1" points="64.8 6.99 64.82 6.91 64.76 6.85 64.84 6.83 64.88 6.76 64.92 6.83 65 6.85 64.94 6.91 64.95 6.99 64.88 6.95 64.8 6.99"/><polygon class="cls-1" points="64.55 6.6 64.56 6.51 64.49 6.46 64.58 6.44 64.61 6.36 64.65 6.44 64.74 6.44 64.68 6.51 64.7 6.59 64.62 6.55 64.55 6.6"/><polygon class="cls-1" points="64.37 6 64.45 5.99 64.49 5.91 64.53 5.99 64.61 6 64.55 6.06 64.56 6.14 64.49 6.1 64.42 6.14 64.43 6.06 64.37 6"/><polygon class="cls-1" points="64.37 5.53 64.45 5.51 64.49 5.44 64.53 5.51 64.61 5.53 64.55 5.58 64.56 5.67 64.49 5.63 64.41 5.67 64.43 5.58 64.37 5.53"/><polygon class="cls-1" points="64.5 5.08 64.58 5.06 64.62 4.98 64.66 5.06 64.74 5.07 64.69 5.13 64.7 5.21 64.63 5.18 64.55 5.22 64.56 5.13 64.5 5.08"/><polygon class="cls-1" points="64.75 4.69 64.84 4.67 64.87 4.59 64.91 4.67 65 4.67 64.94 4.74 64.96 4.82 64.88 4.78 64.81 4.83 64.82 4.74 64.75 4.69"/><polygon class="cls-1" points="65.23 4.28 65.27 4.36 65.36 4.37 65.3 4.43 65.31 4.51 65.24 4.47 65.17 4.51 65.18 4.43 65.12 4.37 65.2 4.36 65.23 4.28"/><polygon class="cls-1" points="65.65 4.08 65.7 4.16 65.78 4.17 65.72 4.23 65.74 4.31 65.67 4.28 65.59 4.32 65.6 4.24 65.54 4.18 65.62 4.16 65.65 4.08"/><polygon class="cls-1" points="66.13 4.01 66.17 4.09 66.25 4.1 66.19 4.16 66.2 4.25 66.13 4.21 66.05 4.25 66.07 4.16 66.01 4.1 66.09 4.09 66.13 4.01"/></g><g id="flag-2" data-name="flag"><polygon class="cls-4" points="48.77 17.62 46.75 3.12 47.16 3.12 49.09 17.62 48.77 17.62"/><path class="cls-5" d="M54.49,7.59s4.24.22,6.38-1.14c0,0,2.35-.89,2.58.58a32.65,32.65,0,0,1,.66,5.46s-2.68-.22-4.15.84a7.32,7.32,0,0,1-4.6.75Z" transform="translate(-7.33 -4.47)"/><polygon class="cls-1" points="51.86 4.07 51.9 4.15 51.98 4.16 51.92 4.22 51.93 4.3 51.86 4.26 51.78 4.3 51.8 4.22 51.74 4.16 51.82 4.15 51.86 4.07"/><polygon class="cls-1" points="52.33 4.14 52.36 4.22 52.45 4.23 52.39 4.29 52.4 4.37 52.32 4.33 52.25 4.37 52.26 4.29 52.2 4.23 52.29 4.22 52.33 4.14"/><polygon class="cls-1" points="52.75 4.34 52.79 4.41 52.87 4.42 52.81 4.48 52.82 4.57 52.75 4.53 52.67 4.57 52.69 4.48 52.63 4.42 52.71 4.41 52.75 4.34"/><polygon class="cls-1" points="53.23 4.74 53.17 4.79 53.19 4.88 53.11 4.84 53.03 4.88 53.05 4.79 52.99 4.73 53.07 4.72 53.11 4.65 53.15 4.72 53.23 4.74"/><polygon class="cls-1" points="53.49 5.13 53.42 5.19 53.44 5.27 53.36 5.23 53.29 5.27 53.3 5.19 53.24 5.13 53.33 5.12 53.37 5.04 53.4 5.12 53.49 5.13"/><polygon class="cls-1" points="53.62 5.58 53.56 5.64 53.58 5.72 53.5 5.68 53.43 5.73 53.44 5.64 53.38 5.58 53.46 5.57 53.49 5.49 53.53 5.57 53.62 5.58"/><polygon class="cls-1" points="53.62 6.05 53.56 6.11 53.57 6.2 53.5 6.16 53.42 6.2 53.44 6.11 53.38 6.05 53.46 6.04 53.5 5.97 53.53 6.04 53.62 6.05"/><polygon class="cls-1" points="53.45 6.65 53.37 6.61 53.3 6.65 53.31 6.57 53.25 6.51 53.33 6.5 53.37 6.42 53.41 6.49 53.49 6.5 53.43 6.57 53.45 6.65"/><polygon class="cls-1" points="53.23 6.89 53.17 6.95 53.19 7.03 53.11 6.99 53.03 7.04 53.05 6.95 52.99 6.89 53.07 6.88 53.11 6.8 53.15 6.88 53.23 6.89"/><polygon class="cls-1" points="52.82 7.36 52.75 7.31 52.67 7.35 52.69 7.26 52.63 7.2 52.72 7.2 52.76 7.12 52.79 7.2 52.88 7.22 52.81 7.27 52.82 7.36"/><polygon class="cls-1" points="52.41 7.55 52.33 7.51 52.26 7.56 52.27 7.47 52.2 7.42 52.28 7.4 52.31 7.32 52.36 7.39 52.44 7.4 52.39 7.46 52.41 7.55"/><polygon class="cls-1" points="51.79 7.62 51.8 7.53 51.74 7.47 51.83 7.46 51.86 7.39 51.9 7.46 51.99 7.47 51.93 7.53 51.94 7.62 51.87 7.58 51.79 7.62"/><polygon class="cls-1" points="51.32 7.55 51.33 7.47 51.27 7.41 51.35 7.4 51.39 7.32 51.43 7.39 51.51 7.4 51.45 7.46 51.47 7.55 51.39 7.51 51.32 7.55"/><polygon class="cls-1" points="50.89 7.35 50.9 7.27 50.84 7.21 50.92 7.2 50.96 7.12 51 7.2 51.08 7.21 51.02 7.27 51.04 7.35 50.96 7.31 50.89 7.35"/><polygon class="cls-1" points="50.53 7.04 50.55 6.96 50.48 6.9 50.57 6.89 50.61 6.81 50.64 6.89 50.73 6.9 50.67 6.96 50.68 7.04 50.61 7 50.53 7.04"/><polygon class="cls-1" points="50.28 6.66 50.29 6.57 50.22 6.52 50.31 6.5 50.34 6.42 50.38 6.49 50.47 6.5 50.41 6.56 50.43 6.64 50.35 6.61 50.28 6.66"/><polygon class="cls-1" points="50.1 6.05 50.18 6.04 50.22 5.97 50.26 6.04 50.34 6.05 50.28 6.11 50.3 6.2 50.22 6.16 50.15 6.2 50.16 6.11 50.1 6.05"/><polygon class="cls-1" points="50.1 5.58 50.18 5.57 50.22 5.49 50.26 5.57 50.34 5.58 50.28 5.64 50.29 5.72 50.22 5.68 50.14 5.72 50.16 5.64 50.1 5.58"/><polygon class="cls-1" points="50.23 5.13 50.31 5.12 50.35 5.04 50.39 5.11 50.47 5.12 50.41 5.18 50.43 5.27 50.36 5.23 50.28 5.27 50.29 5.19 50.23 5.13"/><polygon class="cls-1" points="50.48 4.74 50.56 4.72 50.6 4.65 50.64 4.72 50.72 4.73 50.67 4.79 50.69 4.87 50.61 4.84 50.54 4.88 50.55 4.8 50.48 4.74"/><polygon class="cls-1" points="50.96 4.34 51 4.41 51.09 4.42 51.03 4.48 51.05 4.57 50.97 4.53 50.9 4.57 50.91 4.49 50.84 4.43 50.93 4.41 50.96 4.34"/><polygon class="cls-1" points="51.38 4.14 51.42 4.21 51.51 4.22 51.45 4.28 51.47 4.37 51.39 4.33 51.32 4.38 51.33 4.29 51.27 4.24 51.35 4.22 51.38 4.14"/><polygon class="cls-1" points="51.86 4.07 51.9 4.15 51.98 4.16 51.92 4.22 51.93 4.3 51.86 4.26 51.78 4.3 51.8 4.22 51.74 4.16 51.82 4.15 51.86 4.07"/></g><path class="cls-6" d="M55,17.1a.24.24,0,0,1,.33,0l.47.35a0,0,0,0,0,0,0h0A.78.78,0,0,1,56,17c.16-.12.29-.09.35,0a.18.18,0,0,1,0,.25,1.28,1.28,0,0,0-.24.86c-.12,0,0,0,0,0l-.41.54s-.05-.14-.11,0c0,0-.05,0-.08,0s-.21,0-.32-.09l-.48-.37c-.15-.11-.11-.21-.07-.26l.07-.06a.21.21,0,0,1,.1-.28.2.2,0,0,1,0-.22.16.16,0,0,1,.08-.06A.26.26,0,0,1,55,17.1Z" transform="translate(-7.33 -4.47)"/><path class="cls-6" d="M56.16,18.11s1.73,2.54,2.24,2.45-.44.6-.44.6l-2.41-2.48" transform="translate(-7.33 -4.47)"/><path class="cls-6" d="M62.6,22.72s.87.92,2.15-1.44c0,0,.88.12.67.46s-.93,1.93-1.41,2.09-1.54.18-1.94-.33S62.57,23,62.6,22.72Z" transform="translate(-7.33 -4.47)"/><path class="cls-6" d="M66.35,20.61l-.35.66a.63.63,0,0,1-.86.28L65,21.48a.69.69,0,0,1-.35-.42l-.18-.55a.14.14,0,0,1,0-.11.14.14,0,0,1,.27,0l.09.29.47-.9a.11.11,0,1,1,.2.11l-.29.56a.06.06,0,0,0,.1.06l.35-.67a.11.11,0,0,1,.15-.05.12.12,0,0,1,0,.16l-.34.67a0,0,0,0,0,0,.07.05.05,0,0,0,.08,0l.29-.57a.13.13,0,0,1,.16-.05.12.12,0,0,1,.05.16l-.29.57a0,0,0,0,0,0,.07.05.05,0,0,0,.08,0l.19-.36a.1.1,0,0,1,.15-.05A.12.12,0,0,1,66.35,20.61Z" transform="translate(-7.33 -4.47)"/><path class="cls-7" d="M69.1,17.1a.24.24,0,0,1,.33,0l.47.35s0,0,0,0h0a.78.78,0,0,1,.21-.36c.16-.12.29-.09.35,0a.18.18,0,0,1,0,.25,1.28,1.28,0,0,0-.24.86c-.12,0,0,0,0,0l-.41.54s0-.14-.11,0c0,0,0,0-.08,0s-.21,0-.32-.09l-.48-.37c-.15-.11-.11-.21-.07-.26l.07-.06a.21.21,0,0,1,.1-.28.2.2,0,0,1,0-.22.16.16,0,0,1,.08-.06A.26.26,0,0,1,69.1,17.1Z" transform="translate(-7.33 -4.47)"/><path class="cls-7" d="M70.28,18.11s1.73,2.54,2.24,2.45-.44.6-.44.6l-2.41-2.48" transform="translate(-7.33 -4.47)"/><path class="cls-7" d="M76.72,22.72s.87.92,2.15-1.44c0,0,.88.12.67.46s-.93,1.93-1.41,2.09-1.54.18-1.94-.33S76.69,23,76.72,22.72Z" transform="translate(-7.33 -4.47)"/><path class="cls-7" d="M80.47,20.61l-.35.66a.63.63,0,0,1-.86.28l-.12-.07a.69.69,0,0,1-.35-.42l-.18-.55a.14.14,0,0,1,0-.11.14.14,0,0,1,.27,0l.09.29.47-.9a.11.11,0,1,1,.2.11l-.29.56a.06.06,0,0,0,0,.08.05.05,0,0,0,.08,0l.35-.67a.12.12,0,0,1,.16-.05A.12.12,0,0,1,80,20l-.34.67a0,0,0,0,0,0,.07.05.05,0,0,0,.08,0l.29-.57a.13.13,0,0,1,.16-.05.12.12,0,0,1,0,.16l-.29.57a0,0,0,0,0,0,.07.05.05,0,0,0,.08,0l.19-.36a.11.11,0,0,1,.15-.05A.12.12,0,0,1,80.47,20.61Z" transform="translate(-7.33 -4.47)"/><path class="cls-6" d="M59.6,21.81l.28-1.18L61,21l-.54,1.37S59.56,22.13,59.6,21.81Z" transform="translate(-7.33 -4.47)"/><path class="cls-7" d="M73.81,21.81l.28-1.18,1.12.4-.54,1.37S73.77,22.13,73.81,21.81Z" transform="translate(-7.33 -4.47)"/><path class="cls-8" d="M62.25,29a1.53,1.53,0,0,1,.62,1s-.58,1.7-.9,1.85c0,0-1.5.41-1-.47,0,0,.61-1,.22-1.16Z" transform="translate(-7.33 -4.47)"/><path class="cls-8" d="M57.56,29.5s.1,1-.59.62c0,0,.26-1.21-1.62-2.74,0,0,.09-.6,1.14.23C56.49,27.61,57.67,29.11,57.56,29.5Z" transform="translate(-7.33 -4.47)"/><path class="cls-9" d="M57,30.12s-2-1.34-1.62-2.74C55.35,27.38,57.3,28.94,57,30.12Z" transform="translate(-7.33 -4.47)"/><path class="cls-10" d="M57.56,25.48a4.28,4.28,0,0,1-1,2.17s1.07,1.35,1,1.94a8.1,8.1,0,0,1,1.25-1.13s1.9,1.37,2.35,1.8A1.36,1.36,0,0,0,62.25,29s-1-.7-1-1c0,0,.95-.38.62-2.29l-.19-.12S58.71,24.82,57.56,25.48Z" transform="translate(-7.33 -4.47)"/><path class="cls-11" d="M58.49,20.52S57.11,20.93,58,22c0,0,.33,2.48-.31,3.15,0,0-.47.72,0,.43,0,0,1-.82,4.07.17,0,0-.57-1.83-.14-2.23a.68.68,0,0,0,.67-.27s.47-.49.23-.88a1.38,1.38,0,0,0-1.41-.78s-1,1-1.58,0A1.6,1.6,0,0,0,58.49,20.52Z" transform="translate(-7.33 -4.47)"/><path class="cls-8" d="M64,29.22" transform="translate(-7.33 -4.47)"/><path class="cls-8" d="M76.51,29a1.53,1.53,0,0,1,.62,1s-.58,1.7-.9,1.85c0,0-1.5.41-1-.47,0,0,.61-1,.22-1.16Z" transform="translate(-7.33 -4.47)"/><path class="cls-8" d="M71.82,29.5s.1,1-.59.62c0,0,.26-1.21-1.62-2.74,0,0,.09-.6,1.14.23C70.75,27.61,71.93,29.11,71.82,29.5Z" transform="translate(-7.33 -4.47)"/><path class="cls-9" d="M71.23,30.12s-2-1.34-1.62-2.74C69.61,27.38,71.56,28.94,71.23,30.12Z" transform="translate(-7.33 -4.47)"/><path class="cls-12" d="M71.82,25.48a4.28,4.28,0,0,1-1,2.17s1.07,1.35,1,1.94a8.1,8.1,0,0,1,1.25-1.13s1.9,1.37,2.35,1.8A1.36,1.36,0,0,0,76.51,29s-1.05-.7-1.05-1c0,0,1-.38.62-2.29l-.19-.12S73,24.82,71.82,25.48Z" transform="translate(-7.33 -4.47)"/><path class="cls-13" d="M72.75,20.52s-1.38.41-.47,1.51c0,0,.33,2.48-.31,3.15,0,0-.47.72,0,.43,0,0,1-.82,4.07.17,0,0-.57-1.83-.14-2.23a.68.68,0,0,0,.67-.27s.47-.49.23-.88a1.38,1.38,0,0,0-1.41-.78s-1,1-1.58,0A1.6,1.6,0,0,0,72.75,20.52Z" transform="translate(-7.33 -4.47)"/><path class="cls-8" d="M78.24,29.22" transform="translate(-7.33 -4.47)"/><path class="cls-14" d="M64.27,17.43,65,19.3a.42.42,0,0,1-.36.45.4.4,0,0,1-.19,0l-2.14-.8.44-2.34Z" transform="translate(-7.33 -4.47)"/><path class="cls-15" d="M64.27,17.43,65,19.3a.42.42,0,0,1-.36.45.4.4,0,0,1-.19,0l-2.14-.8.44-2.34Z" transform="translate(-7.33 -4.47)"/><ellipse class="cls-16" cx="63.52" cy="19.28" rx="0.76" ry="0.62" transform="translate(15.87 67.54) rotate(-69.48)"/><ellipse class="cls-16" cx="58.87" cy="17.53" rx="0.76" ry="0.61" transform="translate(14.48 62.05) rotate(-69.48)"/><path class="cls-6" d="M60.22,21a2.57,2.57,0,0,1-.57-.3,2.72,2.72,0,0,1-1-3.21h0l.35-.92a2.72,2.72,0,1,1,5.1,1.91l-.34.92A2.73,2.73,0,0,1,60.22,21Z" transform="translate(-7.33 -4.47)"/><circle class="cls-14" cx="55.41" cy="9.79" r="0.41"/><circle class="cls-15" cx="55.41" cy="9.79" r="0.41"/><line class="cls-17" x1="54.9" y1="13.79" x2="55.93" y2="13.96"/><line class="cls-17" x1="53.06" y1="13.11" x2="52.25" y2="12.65"/><polyline class="cls-18" points="53.89 13.85 53.71 14.33 53.79 14.8 53.34 14.63"/><ellipse class="cls-19" cx="59.68" cy="18.69" rx="0.29" ry="0.44" transform="translate(13.92 63.57) rotate(-69.48)"/><ellipse class="cls-19" cx="62.13" cy="19.61" rx="0.29" ry="0.44" transform="translate(14.66 66.46) rotate(-69.48)"/><path class="cls-20" d="M61.44,19.92a.11.11,0,0,1,.05.14h0a.87.87,0,0,1-1.62-.61.11.11,0,0,1,.13-.07h0Z" transform="translate(-7.33 -4.47)"/><path class="cls-21" d="M60,20.13a.84.84,0,0,0,1,.36c0-.2-.21-.28-.42-.36S60.15,20,60,20.13Z" transform="translate(-7.33 -4.47)"/><rect class="cls-22" x="60.49" y="19.61" width="0.2" height="0.2" transform="translate(13.56 65.08) rotate(-69.48)"/><rect class="cls-22" x="60.77" y="19.72" width="0.2" height="0.2" transform="translate(13.64 65.42) rotate(-69.48)"/><circle class="cls-23" cx="55" cy="14.36" r="0.31"/><circle class="cls-23" cx="52.71" cy="13.51" r="0.31"/><path class="cls-20" d="M64.19,18.36l0-.07A2.8,2.8,0,0,0,59,16.2a.64.64,0,0,1,0,.07l0,.13a.2.2,0,0,0,.12.26l.7.26a.63.63,0,0,0,.62-.09l.39-.31L62,17a2.36,2.36,0,0,0,1.29,1.27l.61.23a.21.21,0,0,0,.27-.11Z" transform="translate(-7.33 -4.47)"/><path class="cls-14" d="M64.25,18a.2.2,0,0,0,.26-.12h0A2.94,2.94,0,0,0,59,15.85a.2.2,0,0,0,.1.27h0Z" transform="translate(-7.33 -4.47)"/><path class="cls-24" d="M62.64,17.44s.13-.06.17-.17c.48-1.43.65-2.69,0-3s-2,.59-2.55,2c0,.11,0,.22,0,.24Z" transform="translate(-7.33 -4.47)"/><path class="cls-20" d="M62.5,16.84c-.18.48-1.9-.17-1.73-.64a.92.92,0,0,1,1.73.64Z" transform="translate(-7.33 -4.47)"/><path class="cls-25" d="M62.2,16.29a.6.6,0,0,0-.35-.35l-.92-.35" transform="translate(-7.33 -4.47)"/><path class="cls-14" d="M60.34,16,63,17a.26.26,0,0,1,.15.33h0a.26.26,0,0,1-.33.15l-2.62-1a.1.1,0,0,1-.06-.13l.1-.29A.11.11,0,0,1,60.34,16Z" transform="translate(-7.33 -4.47)"/><path class="cls-15" d="M60.34,16,63,17a.26.26,0,0,1,.15.33h0a.26.26,0,0,1-.33.15l-2.62-1a.1.1,0,0,1-.06-.13l.1-.29A.11.11,0,0,1,60.34,16Z" transform="translate(-7.33 -4.47)"/><circle class="cls-20" cx="55.46" cy="12.75" r="0.1"/><circle class="cls-20" cx="55.08" cy="12.61" r="0.1"/><circle class="cls-20" cx="54.69" cy="12.47" r="0.1"/><circle class="cls-20" cx="54.31" cy="12.33" r="0.1"/><circle class="cls-20" cx="53.93" cy="12.18" r="0.1"/><circle class="cls-20" cx="53.55" cy="12.04" r="0.1"/><path class="cls-20" d="M79.25,17.89a.42.42,0,0,0,.18-.82.41.41,0,0,0,.35-.48.42.42,0,0,0-.37-.36.42.42,0,0,0-.23-.8.43.43,0,0,0,.07-.6.42.42,0,0,0-.47-.13.43.43,0,0,0,0-.6.44.44,0,0,0-.52,0,.41.41,0,0,0-.19-.56.4.4,0,0,0-.5.1.43.43,0,0,0-.33-.5.41.41,0,0,0-.46.22h-.07a.43.43,0,0,0-.45-.4.42.42,0,0,0-.39.33.42.42,0,0,0-.53-.28.41.41,0,0,0-.29.41.42.42,0,0,0-.58-.14.4.4,0,0,0-.19.47.43.43,0,0,0-.68.5.42.42,0,0,0-.53.65.42.42,0,0,0-.53.27.41.41,0,0,0,.17.48.42.42,0,0,0-.17.82.43.43,0,0,0-.37.47.42.42,0,0,0,.4.37.43.43,0,0,0-.24.55.44.44,0,0,0,.46.26.42.42,0,0,0-.08.59.43.43,0,0,0,.49.14.43.43,0,0,0,.07.59.41.41,0,0,0,.51,0,.43.43,0,0,0,.2.57.44.44,0,0,0,.5-.11.43.43,0,0,0,.32.5.42.42,0,0,0,.48-.24.42.42,0,0,0,.83.08.43.43,0,0,0,.53.28.42.42,0,0,0,.3-.41.42.42,0,0,0,.58.15.44.44,0,0,0,.2-.47.41.41,0,0,0,.59,0,.43.43,0,0,0,.08-.51.43.43,0,0,0,.58-.13.42.42,0,0,0,0-.51.42.42,0,0,0,.37-.75Z" transform="translate(-7.33 -4.47)"/><ellipse class="cls-26" cx="77.52" cy="19.3" rx="0.73" ry="0.56" transform="translate(25.4 80.99) rotate(-69.89)"/><ellipse class="cls-26" cx="73.11" cy="17.69" rx="0.73" ry="0.56" transform="translate(24.03 75.79) rotate(-69.89)"/><path class="cls-7" d="M74.4,21a2.6,2.6,0,0,1-1.55-3.35h0l.32-.88a2.61,2.61,0,1,1,4.91,1.79l-.32.89A2.61,2.61,0,0,1,74.41,21Z" transform="translate(-7.33 -4.47)"/><path class="cls-20" d="M76.6,14.74a2.76,2.76,0,0,0-3.44,1.7.19.19,0,0,0,.11.25h0a.27.27,0,0,0,.31-.1h0a.9.9,0,0,1,1.09-.39l2.62,1a.91.91,0,0,1,.58,1h0a.26.26,0,0,0,.17.27h0a.19.19,0,0,0,.25-.11l0-.06a2.74,2.74,0,0,0-1.63-3.5Z" transform="translate(-7.33 -4.47)"/><line class="cls-17" x1="69.14" y1="13.72" x2="69.98" y2="14.01"/><line class="cls-17" x1="67.29" y1="13.05" x2="66.46" y2="12.72"/><path class="cls-20" d="M75.56,20a.11.11,0,0,1,.06.13h0a.83.83,0,0,1-1.55-.57.09.09,0,0,1,.12-.06h0Z" transform="translate(-7.33 -4.47)"/><path class="cls-21" d="M74.18,20.17a.84.84,0,0,0,.93.33c0-.19-.21-.27-.41-.34S74.33,20,74.18,20.17Z" transform="translate(-7.33 -4.47)"/><path class="cls-22" d="M75.26,20.05l-.91-.33a.19.19,0,0,1-.1-.24h0l1.23.46a.17.17,0,0,1-.22.12Z" transform="translate(-7.33 -4.47)"/><rect class="cls-20" x="74.4" y="19.64" width="0.29" height="0.2" transform="translate(23.05 78.48) rotate(-69.89)"/><path class="cls-26" d="M75.21,18.6l-.55.58a.07.07,0,0,0,0,.09l0,0,.59.22a.08.08,0,0,0,.09,0,0,0,0,0,0,0,0l0-.79a.08.08,0,0,0-.08-.07Z" transform="translate(-7.33 -4.47)"/><path class="cls-25" d="M74.36,18.27a.3.3,0,0,0-.18-.38.28.28,0,0,0-.37.17" transform="translate(-7.33 -4.47)"/><path class="cls-25" d="M76.74,19.14a.29.29,0,1,0-.55-.2" transform="translate(-7.33 -4.47)"/></svg>