<svg id="Слой_1" data-name="Слой 1" xmlns="http://www.w3.org/2000/svg" viewBox="0 0 44.79 26.87"><defs><style>.cls-1{fill:#77d1f5;}.cls-2{fill:#808285;}.cls-3{fill:#2e3192;}.cls-4{fill:#fff200;}.cls-5{fill:#fdd8c9;}.cls-6{fill:#b66c64;}.cls-7{fill:#91cbea;}.cls-8{fill:#d4d4d4;}.cls-9{fill:#a97c50;}.cls-10{fill:#f9ed32;}.cls-11{fill:#f15a29;}.cls-12{fill:#2bb673;}.cls-13{fill:#52bd90;}.cls-14{fill:#386cb5;opacity:0.3;}.cls-14,.cls-16,.cls-18,.cls-23{isolation:isolate;}.cls-15{fill:#fbc0ab;}.cls-16,.cls-17,.cls-24{fill:none;stroke-linecap:round;stroke-width:0.25px;}.cls-16,.cls-24{stroke:#535671;}.cls-16,.cls-17{stroke-linejoin:round;}.cls-16,.cls-23{opacity:0.4;}.cls-17{stroke:#fbc0ab;}.cls-18,.cls-20{fill:#f05866;}.cls-18{opacity:0.1;}.cls-19{fill:#3a3d54;}.cls-21,.cls-23{fill:#fff;}.cls-22{fill:#535671;}.cls-24{stroke-miterlimit:10;}.cls-25{fill:#8f5754;}</style></defs><path class="cls-1" d="M3.54,18.71v4.77H2.77V18.71Z" transform="translate(-2.77 -2.27)"/><path class="cls-1" d="M4.93,21c0-.36,0-.64,0-.92h.67l0,.55h0A1.56,1.56,0,0,1,7,20a1.25,1.25,0,0,1,1.2.69h0a1.45,1.45,0,0,1,.48-.45A1.73,1.73,0,0,1,9.6,20,1.34,1.34,0,0,1,11,21.46v2h-.76V21.54c0-.66-.3-1.05-.92-1.05a1,1,0,0,0-.92.56.78.78,0,0,0-.06.31v2.12H7.59V21.43a.84.84,0,0,0-.88-.94,1,1,0,0,0-1,.62.78.78,0,0,0-.06.31v2.06H4.93Z" transform="translate(-2.77 -2.27)"/><path class="cls-1" d="M12.26,21c0-.36,0-.64,0-.92h.67l0,.55h0A1.56,1.56,0,0,1,14.3,20a1.25,1.25,0,0,1,1.2.69h0a1.37,1.37,0,0,1,.48-.45,1.73,1.73,0,0,1,.93-.24,1.34,1.34,0,0,1,1.41,1.48v2h-.76V21.54c0-.66-.3-1.05-.92-1.05a1,1,0,0,0-.92.56.78.78,0,0,0-.06.31v2.12h-.76V21.43a.84.84,0,0,0-.88-.94,1,1,0,0,0-1,.62.78.78,0,0,0-.06.31v2.06h-.76Z" transform="translate(-2.77 -2.27)"/><path class="cls-1" d="M20.46,19.09c0,.21-.19.39-.5.39a.42.42,0,0,1-.46-.39c0-.21.19-.38.48-.38A.43.43,0,0,1,20.46,19.09Zm-.87,4.39V20.06h.77v3.42Z" transform="translate(-2.77 -2.27)"/><path class="cls-1" d="M25.32,20.06a7.61,7.61,0,0,0,0,.93v2a1.75,1.75,0,0,1-.61,1.56,2.65,2.65,0,0,1-1.55.41,3.17,3.17,0,0,1-1.41-.28l.19-.48a2.72,2.72,0,0,0,1.25.28c.79,0,1.37-.34,1.37-1.2v-.38h0a1.61,1.61,0,0,1-1.35.57,1.69,1.69,0,0,1-1.81-1.67A1.81,1.81,0,0,1,23.26,20a1.49,1.49,0,0,1,1.32.59h0l0-.51Zm-.81,1.34a.86.86,0,0,0,0-.28,1.11,1.11,0,0,0-1.09-.66,1.21,1.21,0,0,0-1.26,1.3A1.17,1.17,0,0,0,23.38,23a1.13,1.13,0,0,0,1.07-.64.92.92,0,0,0,.06-.33Z" transform="translate(-2.77 -2.27)"/><path class="cls-1" d="M26.5,21.12c0-.4,0-.74,0-1.06h.68l0,.67h0A1.28,1.28,0,0,1,28.39,20l.21,0v.58h-.26a1,1,0,0,0-1,.79,1.35,1.35,0,0,0,0,.29v1.83H26.5Z" transform="translate(-2.77 -2.27)"/><path class="cls-1" d="M31.69,23.48,31.62,23h0a1.71,1.71,0,0,1-1.3.51c-.86,0-1.3-.49-1.3-1,0-.82.92-1.28,2.56-1.27v-.07c0-.28-.1-.79-1-.79a2.59,2.59,0,0,0-1.11.25l-.17-.41a3.19,3.19,0,0,1,1.4-.3c1.3,0,1.62.72,1.62,1.4v1.28a4.21,4.21,0,0,0,.06.82Zm-.12-1.75c-.83,0-1.79.11-1.79.77,0,.41.33.59.72.59a1.08,1.08,0,0,0,1-.57.68.68,0,0,0,0-.19Z" transform="translate(-2.77 -2.27)"/><path class="cls-1" d="M34.46,19.08v1h1.12v.47H34.46v1.84c0,.43.16.67.59.67A1.64,1.64,0,0,0,35.5,23l0,.47a2.3,2.3,0,0,1-.69.09,1.21,1.21,0,0,1-.83-.26,1.11,1.11,0,0,1-.3-.89V20.53h-.66v-.47h.66v-.82Z" transform="translate(-2.77 -2.27)"/><path class="cls-1" d="M37.31,19.09c0,.21-.19.39-.49.39a.39.39,0,1,1,0-.77C37.12,18.71,37.31,18.88,37.31,19.09Zm-.86,4.39V20.06h.76v3.42Z" transform="translate(-2.77 -2.27)"/><path class="cls-1" d="M42.35,21.73a1.89,1.89,0,0,1-2.11,1.82,1.83,1.83,0,0,1-2.05-1.76A1.89,1.89,0,0,1,40.3,20,1.82,1.82,0,0,1,42.35,21.73Zm-3.37,0a1.29,1.29,0,1,0,2.58,0,1.29,1.29,0,1,0-2.58,0Z" transform="translate(-2.77 -2.27)"/><path class="cls-1" d="M43.33,21c0-.36,0-.64,0-.92H44l.05.56h0a1.66,1.66,0,0,1,1.4-.64,1.38,1.38,0,0,1,1.5,1.46v2h-.77v-2a.9.9,0,0,0-1-1,1.1,1.1,0,0,0-1,.64.83.83,0,0,0-.06.29v2.06h-.76Z" transform="translate(-2.77 -2.27)"/><path class="cls-1" d="M5.22,29a2.59,2.59,0,0,1-.8.11c-.84,0-1.48-.43-1.48-1.22s.64-1.27,1.57-1.27a1.78,1.78,0,0,1,.71.11L5.13,27a1.68,1.68,0,0,0-.61-.1c-.7,0-1.17.36-1.17,1s.43,1,1.15,1a2,2,0,0,0,.64-.1Z" transform="translate(-2.77 -2.27)"/><path class="cls-1" d="M8.18,27.87a1.26,1.26,0,0,1-1.4,1.27,1.23,1.23,0,0,1-1.35-1.22,1.28,1.28,0,0,1,1.4-1.27A1.22,1.22,0,0,1,8.18,27.87Zm-2.34,0a1,1,0,1,0,1-1A.94.94,0,0,0,5.84,27.91Z" transform="translate(-2.77 -2.27)"/><path class="cls-1" d="M8.68,29.1V26.69h.43l1,1.22a6.06,6.06,0,0,1,.53.79h0c0-.32,0-.61,0-1v-1h.37V29.1h-.4l-.95-1.22A7.4,7.4,0,0,1,9,27.07H9c0,.31,0,.6,0,1v1Z" transform="translate(-2.77 -2.27)"/><path class="cls-1" d="M11.56,28.72a1.56,1.56,0,0,0,.69.16c.4,0,.63-.17.63-.41s-.16-.36-.56-.48-.8-.35-.8-.68.39-.66,1-.66a1.64,1.64,0,0,1,.66.12l-.11.25a1.52,1.52,0,0,0-.57-.11c-.41,0-.57.19-.57.36s.19.33.6.46.77.36.77.72-.34.69-1,.69a1.8,1.8,0,0,1-.77-.16Z" transform="translate(-2.77 -2.27)"/><path class="cls-1" d="M14.2,26.69v1.43c0,.54.29.77.7.77a.68.68,0,0,0,.73-.77V26.69H16V28.1c0,.74-.49,1-1.14,1a.94.94,0,0,1-1.07-1V26.69Z" transform="translate(-2.77 -2.27)"/><path class="cls-1" d="M16.69,26.69h.39v2.15h1.29v.26H16.69Z" transform="translate(-2.77 -2.27)"/><path class="cls-1" d="M19,27h-.92v-.26h2.22V27h-.91V29.1H19Z" transform="translate(-2.77 -2.27)"/><path class="cls-1" d="M21,26.69V29.1h-.39V26.69Z" transform="translate(-2.77 -2.27)"/><path class="cls-1" d="M21.68,29.1V26.69h.43l1,1.22a7.46,7.46,0,0,1,.54.79h0a7.61,7.61,0,0,1-.05-1v-1h.37V29.1h-.4l-.95-1.22a7.4,7.4,0,0,1-.56-.81h0c0,.31,0,.6,0,1v1Z" transform="translate(-2.77 -2.27)"/><path class="cls-1" d="M26.9,29a3.43,3.43,0,0,1-.92.13,1.73,1.73,0,0,1-1.12-.32,1.11,1.11,0,0,1-.42-.9c0-.72.62-1.25,1.62-1.25a2.27,2.27,0,0,1,.75.11l-.09.26a1.85,1.85,0,0,0-.67-.1c-.73,0-1.2.36-1.2,1s.45,1,1.16,1a1.73,1.73,0,0,0,.51-.06v-.72h-.61v-.25h1Z" transform="translate(-2.77 -2.27)"/><path class="cls-1" d="M28.39,28v.23h-1.1V28Z" transform="translate(-2.77 -2.27)"/><path class="cls-1" d="M28.81,28.72a1.56,1.56,0,0,0,.69.16c.4,0,.63-.17.63-.41s-.16-.36-.56-.48-.8-.35-.8-.68.39-.66,1-.66a1.64,1.64,0,0,1,.66.12L30.3,27a1.52,1.52,0,0,0-.57-.11c-.41,0-.57.19-.57.36s.19.33.6.46.77.36.77.72-.34.69-1.05.69a1.8,1.8,0,0,1-.77-.16Z" transform="translate(-2.77 -2.27)"/><path class="cls-1" d="M33.62,27.87a1.26,1.26,0,0,1-1.39,1.27,1.23,1.23,0,0,1-1.35-1.22,1.27,1.27,0,0,1,1.39-1.27A1.22,1.22,0,0,1,33.62,27.87Zm-2.33,0a1,1,0,1,0,1-1A.93.93,0,0,0,31.29,27.91Z" transform="translate(-2.77 -2.27)"/><path class="cls-1" d="M34.13,26.69h.39v2.15H35.8v.26H34.13Z" transform="translate(-2.77 -2.27)"/><path class="cls-1" d="M36.46,26.69v1.43c0,.54.3.77.7.77a.68.68,0,0,0,.73-.77V26.69h.39V28.1c0,.74-.48,1-1.14,1a.94.94,0,0,1-1.07-1V26.69Z" transform="translate(-2.77 -2.27)"/><path class="cls-1" d="M39.53,27h-.92v-.26h2.23V27h-.92V29.1h-.39Z" transform="translate(-2.77 -2.27)"/><path class="cls-1" d="M41.56,26.69V29.1h-.39V26.69Z" transform="translate(-2.77 -2.27)"/><path class="cls-1" d="M44.8,27.87a1.26,1.26,0,0,1-1.39,1.27,1.22,1.22,0,0,1-1.35-1.22,1.27,1.27,0,0,1,1.39-1.27A1.22,1.22,0,0,1,44.8,27.87Zm-2.33,0a1,1,0,1,0,1-1A.93.93,0,0,0,42.47,27.91Z" transform="translate(-2.77 -2.27)"/><path class="cls-1" d="M45.3,29.1V26.69h.43l1,1.22a6.21,6.21,0,0,1,.54.79h0a7.71,7.71,0,0,1,0-1v-1h.36V29.1h-.39l-1-1.22a7.4,7.4,0,0,1-.56-.81h0c0,.31,0,.6,0,1v1Z" transform="translate(-2.77 -2.27)"/><g id="flag"><polygon class="cls-2" points="28.51 11.05 27.11 0.98 27.39 0.98 28.74 11.05 28.51 11.05"/><path class="cls-3" d="M30.16,3.25s2.95.15,4.43-.79c0,0,1.63-.62,1.8.4a23.2,23.2,0,0,1,.46,3.79A5.21,5.21,0,0,0,34,7.24a5.1,5.1,0,0,1-3.2.52Z" transform="translate(-2.77 -2.27)"/><polygon class="cls-4" points="30.66 1.64 30.68 1.69 30.74 1.7 30.7 1.74 30.71 1.8 30.66 1.77 30.61 1.8 30.61 1.74 30.57 1.7 30.63 1.69 30.66 1.64"/><polygon class="cls-4" points="30.98 1.69 31.01 1.74 31.07 1.75 31.02 1.79 31.03 1.85 30.98 1.82 30.93 1.84 30.94 1.79 30.9 1.75 30.96 1.74 30.98 1.69"/><polygon class="cls-4" points="31.27 1.82 31.3 1.87 31.36 1.88 31.32 1.92 31.33 1.98 31.28 1.95 31.22 1.98 31.23 1.92 31.19 1.88 31.25 1.87 31.27 1.82"/><polygon class="cls-4" points="31.61 2.1 31.57 2.14 31.58 2.2 31.53 2.17 31.48 2.2 31.48 2.14 31.44 2.1 31.5 2.09 31.53 2.04 31.55 2.09 31.61 2.1"/><polygon class="cls-4" points="31.79 2.37 31.75 2.41 31.75 2.47 31.7 2.44 31.65 2.47 31.66 2.41 31.62 2.37 31.68 2.36 31.7 2.31 31.73 2.36 31.79 2.37"/><polygon class="cls-4" points="31.88 2.68 31.84 2.73 31.85 2.78 31.8 2.76 31.75 2.79 31.75 2.73 31.71 2.69 31.77 2.68 31.79 2.63 31.82 2.68 31.88 2.68"/><polygon class="cls-4" points="31.88 3.02 31.84 3.06 31.85 3.11 31.8 3.09 31.74 3.11 31.75 3.06 31.71 3.02 31.77 3.01 31.8 2.95 31.82 3.01 31.88 3.02"/><polygon class="cls-4" points="31.76 3.43 31.71 3.4 31.66 3.43 31.66 3.37 31.62 3.33 31.68 3.32 31.7 3.27 31.73 3.32 31.79 3.33 31.75 3.37 31.76 3.43"/><polygon class="cls-4" points="31.61 3.59 31.57 3.64 31.58 3.69 31.53 3.67 31.48 3.7 31.48 3.64 31.44 3.6 31.5 3.59 31.52 3.54 31.55 3.59 31.61 3.59"/><polygon class="cls-4" points="31.33 3.92 31.28 3.89 31.22 3.91 31.24 3.86 31.2 3.81 31.25 3.81 31.28 3.76 31.31 3.81 31.36 3.82 31.32 3.86 31.33 3.92"/><polygon class="cls-4" points="31.04 4.05 30.98 4.03 30.93 4.06 30.94 4 30.89 3.96 30.95 3.95 30.98 3.9 31 3.95 31.06 3.95 31.02 3.99 31.04 4.05"/><polygon class="cls-4" points="30.61 4.1 30.62 4.04 30.58 4 30.64 3.99 30.66 3.94 30.69 3.99 30.75 4 30.7 4.04 30.71 4.1 30.66 4.07 30.61 4.1"/><polygon class="cls-4" points="30.28 4.06 30.29 4 30.25 3.96 30.3 3.95 30.33 3.89 30.36 3.95 30.42 3.95 30.38 4 30.39 4.05 30.33 4.03 30.28 4.06"/><polygon class="cls-4" points="29.98 3.92 29.99 3.86 29.95 3.82 30.01 3.81 30.03 3.76 30.06 3.81 30.12 3.82 30.08 3.86 30.09 3.92 30.04 3.89 29.98 3.92"/><polygon class="cls-4" points="29.74 3.7 29.75 3.65 29.7 3.6 29.76 3.6 29.79 3.54 29.81 3.6 29.87 3.6 29.83 3.65 29.84 3.7 29.79 3.68 29.74 3.7"/><polygon class="cls-4" points="29.56 3.43 29.57 3.37 29.52 3.33 29.58 3.32 29.6 3.27 29.63 3.32 29.69 3.32 29.65 3.37 29.66 3.42 29.61 3.4 29.56 3.43"/><polygon class="cls-4" points="29.43 3.02 29.49 3.01 29.52 2.95 29.55 3.01 29.6 3.02 29.56 3.06 29.57 3.11 29.52 3.09 29.47 3.11 29.48 3.06 29.43 3.02"/><polygon class="cls-4" points="29.43 2.69 29.49 2.68 29.52 2.63 29.54 2.68 29.6 2.69 29.56 2.73 29.57 2.79 29.52 2.76 29.46 2.79 29.48 2.73 29.43 2.69"/><polygon class="cls-4" points="29.53 2.38 29.58 2.36 29.61 2.31 29.64 2.36 29.69 2.37 29.65 2.41 29.67 2.47 29.61 2.44 29.56 2.47 29.57 2.42 29.53 2.38"/><polygon class="cls-4" points="29.7 2.1 29.76 2.09 29.78 2.04 29.81 2.09 29.87 2.09 29.83 2.14 29.84 2.19 29.79 2.17 29.74 2.2 29.75 2.14 29.7 2.1"/><polygon class="cls-4" points="30.04 1.82 30.06 1.87 30.12 1.88 30.08 1.92 30.09 1.98 30.04 1.95 29.99 1.98 30 1.93 29.95 1.89 30.01 1.88 30.04 1.82"/><polygon class="cls-4" points="30.33 1.69 30.36 1.74 30.41 1.74 30.38 1.78 30.39 1.84 30.34 1.82 30.29 1.85 30.29 1.79 30.25 1.75 30.3 1.74 30.33 1.69"/><polygon class="cls-4" points="30.66 1.64 30.68 1.69 30.74 1.7 30.7 1.74 30.71 1.8 30.66 1.77 30.61 1.8 30.61 1.74 30.57 1.7 30.63 1.69 30.66 1.64"/></g><g id="flag-2" data-name="flag"><polygon class="cls-2" points="18.6 11.09 17.2 1.02 17.48 1.02 18.82 11.09 18.6 11.09"/><path class="cls-3" d="M20.25,3.29s2.94.15,4.43-.8c0,0,1.63-.61,1.79.41a23.2,23.2,0,0,1,.46,3.79,5.23,5.23,0,0,0-2.88.58,5.09,5.09,0,0,1-3.2.53Z" transform="translate(-2.77 -2.27)"/><polygon class="cls-4" points="20.74 1.68 20.77 1.73 20.83 1.74 20.79 1.78 20.8 1.84 20.74 1.81 20.69 1.84 20.7 1.78 20.66 1.74 20.72 1.73 20.74 1.68"/><polygon class="cls-4" points="21.07 1.72 21.1 1.78 21.15 1.79 21.11 1.83 21.12 1.89 21.07 1.86 21.02 1.88 21.03 1.82 20.98 1.78 21.04 1.78 21.07 1.72"/><polygon class="cls-4" points="21.36 1.86 21.39 1.91 21.45 1.92 21.41 1.96 21.41 2.02 21.36 1.99 21.31 2.02 21.32 1.96 21.28 1.92 21.34 1.91 21.36 1.86"/><polygon class="cls-4" points="21.7 2.14 21.66 2.18 21.67 2.24 21.61 2.21 21.56 2.23 21.57 2.18 21.53 2.14 21.59 2.13 21.61 2.08 21.64 2.13 21.7 2.14"/><polygon class="cls-4" points="21.88 2.41 21.83 2.45 21.84 2.51 21.79 2.48 21.74 2.51 21.75 2.45 21.71 2.41 21.77 2.4 21.79 2.35 21.82 2.4 21.88 2.41"/><polygon class="cls-4" points="21.97 2.72 21.93 2.76 21.94 2.82 21.89 2.8 21.83 2.83 21.84 2.77 21.8 2.73 21.86 2.72 21.88 2.66 21.91 2.71 21.97 2.72"/><polygon class="cls-4" points="21.97 3.05 21.92 3.1 21.93 3.15 21.88 3.13 21.83 3.15 21.84 3.1 21.8 3.05 21.86 3.04 21.88 2.99 21.91 3.04 21.97 3.05"/><polygon class="cls-4" points="21.85 3.47 21.79 3.44 21.74 3.47 21.75 3.41 21.71 3.37 21.77 3.36 21.79 3.31 21.82 3.36 21.88 3.37 21.84 3.41 21.85 3.47"/><polygon class="cls-4" points="21.7 3.63 21.66 3.67 21.67 3.73 21.61 3.71 21.56 3.73 21.57 3.68 21.53 3.64 21.59 3.63 21.61 3.57 21.64 3.63 21.7 3.63"/><polygon class="cls-4" points="21.41 3.96 21.36 3.93 21.31 3.95 21.32 3.89 21.28 3.85 21.34 3.85 21.37 3.79 21.39 3.85 21.45 3.86 21.41 3.9 21.41 3.96"/><polygon class="cls-4" points="21.13 4.09 21.07 4.07 21.02 4.1 21.03 4.04 20.98 4 21.04 3.99 21.06 3.93 21.09 3.98 21.15 3.99 21.11 4.03 21.13 4.09"/><polygon class="cls-4" points="20.7 4.14 20.71 4.08 20.66 4.04 20.72 4.03 20.75 3.98 20.77 4.03 20.83 4.04 20.79 4.08 20.8 4.14 20.75 4.11 20.7 4.14"/><polygon class="cls-4" points="20.37 4.09 20.38 4.04 20.34 4 20.39 3.99 20.42 3.93 20.45 3.98 20.5 3.99 20.46 4.03 20.47 4.09 20.42 4.07 20.37 4.09"/><polygon class="cls-4" points="20.07 3.96 20.08 3.9 20.04 3.86 20.09 3.85 20.12 3.79 20.15 3.85 20.21 3.85 20.16 3.9 20.18 3.95 20.12 3.93 20.07 3.96"/><polygon class="cls-4" points="19.82 3.74 19.83 3.68 19.79 3.64 19.85 3.63 19.87 3.58 19.9 3.63 19.96 3.64 19.92 3.68 19.93 3.74 19.88 3.71 19.82 3.74"/><polygon class="cls-4" points="19.65 3.47 19.65 3.41 19.61 3.37 19.67 3.36 19.69 3.31 19.72 3.36 19.78 3.36 19.74 3.41 19.75 3.46 19.7 3.44 19.65 3.47"/><polygon class="cls-4" points="19.52 3.05 19.58 3.04 19.61 2.99 19.63 3.04 19.69 3.05 19.65 3.1 19.66 3.15 19.61 3.13 19.55 3.15 19.56 3.1 19.52 3.05"/><polygon class="cls-4" points="19.52 2.72 19.58 2.72 19.6 2.66 19.63 2.72 19.69 2.72 19.65 2.77 19.66 2.82 19.6 2.8 19.55 2.82 19.56 2.77 19.52 2.72"/><polygon class="cls-4" points="19.61 2.41 19.67 2.4 19.69 2.35 19.72 2.4 19.78 2.4 19.74 2.45 19.75 2.51 19.7 2.48 19.65 2.51 19.66 2.45 19.61 2.41"/><polygon class="cls-4" points="19.79 2.14 19.85 2.13 19.87 2.08 19.9 2.13 19.96 2.13 19.92 2.17 19.93 2.23 19.88 2.21 19.83 2.24 19.83 2.18 19.79 2.14"/><polygon class="cls-4" points="20.12 1.86 20.15 1.91 20.21 1.92 20.17 1.96 20.18 2.02 20.13 1.99 20.07 2.02 20.08 1.96 20.04 1.92 20.1 1.91 20.12 1.86"/><polygon class="cls-4" points="20.41 1.72 20.44 1.77 20.5 1.78 20.46 1.82 20.48 1.88 20.42 1.86 20.37 1.89 20.38 1.83 20.33 1.79 20.39 1.78 20.41 1.72"/><polygon class="cls-4" points="20.74 1.68 20.77 1.73 20.83 1.74 20.79 1.78 20.8 1.84 20.74 1.81 20.69 1.84 20.7 1.78 20.66 1.74 20.72 1.73 20.74 1.68"/></g><path class="cls-5" d="M20.59,9.9a.15.15,0,0,1,.22,0l.33.25h0a.44.44,0,0,1,.14-.25c.12-.09.21-.07.25,0a.14.14,0,0,1,0,.18.84.84,0,0,0-.17.59c-.08,0,0,0,0,0l-.28.38s0-.1-.08,0,0,0-.06,0-.15,0-.22-.06l-.34-.26c-.1-.07-.07-.14,0-.18l.05,0a.14.14,0,0,1,.06-.19.18.18,0,0,1,0-.16.09.09,0,0,1,.06,0A.13.13,0,0,1,20.59,9.9Z" transform="translate(-2.77 -2.27)"/><path class="cls-5" d="M21.4,10.59S22.61,12.36,23,12.3s-.3.42-.3.42L21,11" transform="translate(-2.77 -2.27)"/><path class="cls-5" d="M25.88,13.8s.61.64,1.5-1c0,0,.61.08.46.32s-.65,1.34-1,1.45a1.42,1.42,0,0,1-1.34-.23C25.24,14,25.86,14,25.88,13.8Z" transform="translate(-2.77 -2.27)"/><path class="cls-5" d="M28.49,12.33l-.25.46a.43.43,0,0,1-.59.19l-.09,0a.48.48,0,0,1-.24-.3l-.13-.38a.22.22,0,0,1,0-.08.11.11,0,0,1,.14,0,.1.1,0,0,1,.05.06l.06.2.32-.62a.08.08,0,1,1,.15.07l-.21.4a0,0,0,1,0,.07,0l.25-.46a.07.07,0,0,1,.1,0,.08.08,0,0,1,0,.11l-.24.47s0,0,0,.05a0,0,0,0,0,.06,0l.2-.39a.08.08,0,0,1,.11,0,.08.08,0,0,1,0,.11l-.21.39a0,0,0,0,0,0,0s0,0,.05,0l.13-.25a.08.08,0,0,1,.15.07Z" transform="translate(-2.77 -2.27)"/><path class="cls-6" d="M30.39,9.9a.16.16,0,0,1,.23,0l.33.25h0a.44.44,0,0,1,.14-.25c.12-.09.21-.07.25,0a.14.14,0,0,1,0,.18.84.84,0,0,0-.17.59c-.08,0,0,0,0,0l-.29.38s0-.1-.07,0,0,0-.06,0-.15,0-.22-.06l-.34-.26c-.1-.07-.07-.14,0-.18l0,0a.14.14,0,0,1,.06-.19.16.16,0,0,1,0-.16.1.1,0,0,1,.05,0A.18.18,0,0,1,30.39,9.9Z" transform="translate(-2.77 -2.27)"/><path class="cls-6" d="M31.21,10.59s1.21,1.77,1.56,1.71-.3.42-.3.42L30.79,11" transform="translate(-2.77 -2.27)"/><path class="cls-6" d="M35.69,13.8s.6.64,1.49-1c0,0,.62.08.47.32s-.65,1.34-1,1.45a1.44,1.44,0,0,1-1.35-.23C35.05,14,35.67,14,35.69,13.8Z" transform="translate(-2.77 -2.27)"/><path class="cls-6" d="M38.29,12.33l-.24.46a.43.43,0,0,1-.59.19l-.09,0a.5.5,0,0,1-.25-.3L37,12.26a.11.11,0,0,1,0-.08.1.1,0,0,1,.14,0,.07.07,0,0,1,0,.06l.07.2.32-.62a.08.08,0,0,1,.15.07l-.21.4a0,0,0,1,0,.07,0l.24-.46a.08.08,0,0,1,.15.07l-.24.47s0,0,0,.05a0,0,0,0,0,.06,0L38,12a.08.08,0,0,1,.11,0,.07.07,0,0,1,0,.11l-.2.39a0,0,0,0,0,0,0s0,0,.05,0l.13-.25a.08.08,0,0,1,.11,0A.07.07,0,0,1,38.29,12.33Z" transform="translate(-2.77 -2.27)"/><path class="cls-5" d="M23.8,13.17l.19-.82.78.27-.37,1S23.77,13.39,23.8,13.17Z" transform="translate(-2.77 -2.27)"/><path class="cls-6" d="M33.67,13.17l.19-.82.78.27-.37,1S33.64,13.39,33.67,13.17Z" transform="translate(-2.77 -2.27)"/><path class="cls-7" d="M25.64,18.19a1.09,1.09,0,0,1,.43.69s-.4,1.19-.63,1.29c0,0-1,.28-.71-.33,0,0,.42-.67.15-.81Z" transform="translate(-2.77 -2.27)"/><path class="cls-7" d="M22.38,18.51s.07.67-.41.43c0,0,.18-.84-1.13-1.9,0,0,.06-.42.8.16C21.64,17.2,22.46,18.24,22.38,18.51Z" transform="translate(-2.77 -2.27)"/><path class="cls-8" d="M22,18.94S20.57,18,20.84,17C20.84,17,22.2,18.12,22,18.94Z" transform="translate(-2.77 -2.27)"/><path class="cls-9" d="M22.38,15.72a3,3,0,0,1-.71,1.51s.75.93.71,1.34a6.11,6.11,0,0,1,.87-.79s1.32.95,1.63,1.25c0,0,.75-.15.76-.84,0,0-.73-.49-.73-.68,0,0,.66-.26.43-1.59l-.14-.08S23.18,15.26,22.38,15.72Z" transform="translate(-2.77 -2.27)"/><path class="cls-10" d="M23,12.27s-1,.29-.33,1.05c0,0,.23,1.72-.22,2.19,0,0-.32.5,0,.29,0,0,.72-.57,2.83.13,0,0-.39-1.28-.09-1.55a.47.47,0,0,0,.46-.19s.32-.34.16-.61a1,1,0,0,0-1-.55s-.7.68-1.1,0A1.09,1.09,0,0,0,23,12.27Z" transform="translate(-2.77 -2.27)"/><path class="cls-7" d="M26.84,18.31" transform="translate(-2.77 -2.27)"/><path class="cls-7" d="M35.54,18.19a1.05,1.05,0,0,1,.43.69s-.4,1.19-.62,1.29c0,0-1,.28-.71-.33,0,0,.41-.67.14-.81Z" transform="translate(-2.77 -2.27)"/><path class="cls-7" d="M32.29,18.51s.07.67-.42.43c0,0,.19-.84-1.12-1.9,0,0,.06-.42.79.16C31.54,17.2,32.36,18.24,32.29,18.51Z" transform="translate(-2.77 -2.27)"/><path class="cls-8" d="M31.87,18.94S30.48,18,30.75,17C30.75,17,32.11,18.12,31.87,18.94Z" transform="translate(-2.77 -2.27)"/><path class="cls-11" d="M32.28,15.72a3,3,0,0,1-.7,1.51s.74.93.7,1.34a6.11,6.11,0,0,1,.87-.79s1.32.95,1.63,1.25c0,0,.75-.15.76-.84,0,0-.73-.49-.73-.68,0,0,.67-.26.44-1.59l-.14-.08S33.08,15.26,32.28,15.72Z" transform="translate(-2.77 -2.27)"/><path class="cls-12" d="M32.93,12.27s-1,.29-.32,1.05c0,0,.23,1.72-.22,2.19,0,0-.33.5,0,.29,0,0,.72-.57,2.83.13,0,0-.4-1.28-.1-1.55a.47.47,0,0,0,.46-.19s.33-.34.17-.61a1,1,0,0,0-1-.55s-.71.68-1.1,0A1.09,1.09,0,0,0,32.93,12.27Z" transform="translate(-2.77 -2.27)"/><path class="cls-7" d="M36.75,18.31" transform="translate(-2.77 -2.27)"/><path class="cls-13" d="M27,10.13l.47,1.29a.28.28,0,0,1-.25.32.3.3,0,0,1-.13,0l-1.49-.56L26,9.54Z" transform="translate(-2.77 -2.27)"/><path class="cls-14" d="M27,10.13l.47,1.29a.28.28,0,0,1-.25.32.3.3,0,0,1-.13,0l-1.49-.56L26,9.54Z" transform="translate(-2.77 -2.27)"/><ellipse class="cls-15" cx="26.52" cy="11.41" rx="0.53" ry="0.43" transform="translate(3.77 29.97) rotate(-69.48)"/><ellipse class="cls-15" cx="23.29" cy="10.2" rx="0.53" ry="0.43" transform="translate(2.81 26.16) rotate(-69.48)"/><path class="cls-5" d="M24.23,12.6a2.15,2.15,0,0,1-.4-.21,1.88,1.88,0,0,1-.71-2.23h0l.24-.64a1.89,1.89,0,1,1,3.54,1.33l-.23.63a1.91,1.91,0,0,1-2.44,1.12Z" transform="translate(-2.77 -2.27)"/><circle class="cls-13" cx="23.21" cy="5.65" r="0.28"/><circle class="cls-14" cx="23.21" cy="5.65" r="0.28"/><line class="cls-16" x1="22.85" y1="8.43" x2="23.58" y2="8.55"/><line class="cls-16" x1="21.58" y1="7.96" x2="21.01" y2="7.64"/><polyline class="cls-17" points="22.15 8.47 22.03 8.8 22.09 9.13 21.77 9.01"/><ellipse class="cls-18" cx="23.85" cy="11" rx="0.2" ry="0.31" transform="translate(2.42 27.21) rotate(-69.48)"/><ellipse class="cls-18" cx="25.56" cy="11.64" rx="0.2" ry="0.31" transform="translate(2.93 29.22) rotate(-69.48)"/><path class="cls-19" d="M25.07,11.86a.06.06,0,0,1,0,.09h0a.61.61,0,0,1-.82.26.62.62,0,0,1-.31-.68.07.07,0,0,1,.09,0h0Z" transform="translate(-2.77 -2.27)"/><path class="cls-20" d="M24.07,12a.61.61,0,0,0,.67.25c0-.14-.15-.2-.29-.25S24.18,11.91,24.07,12Z" transform="translate(-2.77 -2.27)"/><rect class="cls-21" x="24.41" y="11.64" width="0.14" height="0.14" transform="translate(2.17 28.26) rotate(-69.48)"/><rect class="cls-21" x="24.61" y="11.71" width="0.14" height="0.14" transform="translate(2.23 28.5) rotate(-69.48)"/><circle class="cls-22" cx="22.93" cy="8.82" r="0.21"/><circle class="cls-22" cx="21.34" cy="8.23" r="0.21"/><path class="cls-19" d="M27,10.77v0a2,2,0,0,0-1.07-2.51A1.94,1.94,0,0,0,23.4,9.27l0,.05,0,.09a.15.15,0,0,0,.09.18l.49.18a.42.42,0,0,0,.42-.06l.28-.22.86.32a1.6,1.6,0,0,0,.89.88l.43.16a.14.14,0,0,0,.18-.07Z" transform="translate(-2.77 -2.27)"/><path class="cls-13" d="M27,10.55a.14.14,0,0,0,.18-.08h0A2,2,0,0,0,23.38,9a.15.15,0,0,0,.07.19h0Z" transform="translate(-2.77 -2.27)"/><path class="cls-23" d="M25.91,10.13s.09,0,.11-.12c.34-1,.46-1.87,0-2.08s-1.36.41-1.77,1.41c0,.08,0,.15,0,.17Z" transform="translate(-2.77 -2.27)"/><path class="cls-19" d="M25.81,9.72c-.13.33-1.32-.12-1.2-.45a.65.65,0,0,1,.82-.38A.65.65,0,0,1,25.81,9.72Z" transform="translate(-2.77 -2.27)"/><path class="cls-24" d="M25.61,9.33a.45.45,0,0,0-.25-.24l-.64-.24" transform="translate(-2.77 -2.27)"/><path class="cls-13" d="M24.31,9.15l1.82.68a.18.18,0,0,1,.1.23h0a.18.18,0,0,1-.23.11l-1.82-.69a.08.08,0,0,1,0-.09l.08-.2A.08.08,0,0,1,24.31,9.15Z" transform="translate(-2.77 -2.27)"/><path class="cls-14" d="M24.31,9.15l1.82.68a.18.18,0,0,1,.1.23h0a.18.18,0,0,1-.23.11l-1.82-.69a.08.08,0,0,1,0-.09l.08-.2A.08.08,0,0,1,24.31,9.15Z" transform="translate(-2.77 -2.27)"/><circle class="cls-19" cx="23.24" cy="7.71" r="0.07"/><circle class="cls-19" cx="22.98" cy="7.61" r="0.07"/><circle class="cls-19" cx="22.71" cy="7.51" r="0.07"/><circle class="cls-19" cx="22.45" cy="7.41" r="0.07"/><circle class="cls-19" cx="22.18" cy="7.31" r="0.07"/><circle class="cls-19" cx="21.92" cy="7.21" r="0.07"/><path class="cls-19" d="M37.44,10.44a.29.29,0,0,0,.13-.56.3.3,0,0,0,0-.59.29.29,0,0,0,.16-.38.31.31,0,0,0-.32-.18.28.28,0,0,0,0-.41.28.28,0,0,0-.32-.09.3.3,0,0,0,0-.42.29.29,0,0,0-.35,0,.29.29,0,0,0-.14-.39.29.29,0,0,0-.35.07A.3.3,0,0,0,36,7.13a.29.29,0,0,0-.32.16l0,0A.28.28,0,0,0,35.33,7a.3.3,0,0,0-.27.22A.29.29,0,0,0,34.69,7a.3.3,0,0,0-.2.29.29.29,0,0,0-.53.22.31.31,0,0,0-.42,0,.3.3,0,0,0,0,.37.28.28,0,0,0-.4.09.29.29,0,0,0,0,.35.3.3,0,0,0-.37.19.3.3,0,0,0,.12.34.3.3,0,0,0-.31.28.31.31,0,0,0,.19.29.29.29,0,0,0-.26.32.31.31,0,0,0,.28.26.29.29,0,0,0-.16.38.28.28,0,0,0,.31.18.3.3,0,0,0-.05.41.28.28,0,0,0,.34.1.29.29,0,0,0,0,.41.29.29,0,0,0,.35,0,.3.3,0,0,0,.14.39.31.31,0,0,0,.35-.08.28.28,0,0,0,.22.35.28.28,0,0,0,.33-.16.29.29,0,0,0,.58.05.3.3,0,0,0,.58-.09.29.29,0,0,0,.4.11.31.31,0,0,0,.14-.33.29.29,0,0,0,.41,0,.27.27,0,0,0,.05-.35.3.3,0,0,0,.38-.45.29.29,0,0,0,.37-.18.3.3,0,0,0-.12-.34Z" transform="translate(-2.77 -2.27)"/><ellipse class="cls-25" cx="36.24" cy="11.43" rx="0.51" ry="0.39" transform="translate(10.28 39.26) rotate(-69.89)"/><ellipse class="cls-25" cx="33.18" cy="10.3" rx="0.51" ry="0.39" transform="translate(9.33 35.64) rotate(-69.89)"/><path class="cls-6" d="M34.08,12.59A1.81,1.81,0,0,1,33,10.26h0l.22-.61a1.82,1.82,0,0,1,3.41,1.25l-.22.61a1.81,1.81,0,0,1-2.33,1.08Z" transform="translate(-2.77 -2.27)"/><path class="cls-19" d="M35.61,8.25a1.94,1.94,0,0,0-2.4,1.19.13.13,0,0,0,.08.17h0a.19.19,0,0,0,.22-.07h0a.62.62,0,0,1,.76-.27l1.81.66a.64.64,0,0,1,.41.7h0a.19.19,0,0,0,.11.19h0a.14.14,0,0,0,.18-.08v0a1.9,1.9,0,0,0-1.13-2.43Z" transform="translate(-2.77 -2.27)"/><line class="cls-16" x1="32.75" y1="8.38" x2="33.34" y2="8.58"/><line class="cls-16" x1="31.46" y1="7.91" x2="30.89" y2="7.68"/><path class="cls-19" d="M34.89,11.88a.06.06,0,0,1,0,.09h0a.58.58,0,0,1-1.08-.4.07.07,0,0,1,.08-.05h0Z" transform="translate(-2.77 -2.27)"/><path class="cls-20" d="M33.93,12a.58.58,0,0,0,.64.24c0-.14-.14-.19-.28-.24S34,11.94,33.93,12Z" transform="translate(-2.77 -2.27)"/><path class="cls-21" d="M34.68,12,34,11.71a.12.12,0,0,1-.06-.16h0l.86.32a.14.14,0,0,1-.16.09Z" transform="translate(-2.77 -2.27)"/><rect class="cls-19" x="34.08" y="11.66" width="0.2" height="0.14" transform="translate(8.65 37.52) rotate(-69.89)"/><path class="cls-25" d="M34.64,10.94l-.38.4s0,0,0,.06h0l.41.16s.05,0,.06,0,0,0,0,0l0-.55a0,0,0,0,0,0-.05Z" transform="translate(-2.77 -2.27)"/><path class="cls-24" d="M34.05,10.7a.21.21,0,0,0-.12-.26.21.21,0,0,0-.26.12" transform="translate(-2.77 -2.27)"/><path class="cls-24" d="M35.7,11.31a.2.2,0,0,0-.12-.26.21.21,0,0,0-.26.12" transform="translate(-2.77 -2.27)"/></svg>